<svg id="Capa_1" data-name="Capa 1" xmlns="http://www.w3.org/2000/svg" viewBox="0 0 254 133.98"><defs><style>.cls-1{fill:#fff;}</style></defs><title>eye</title><path d="M302.62,115.09c-1.3,1.87-2.36,4-3.93,5.56-21.44,21.72-45.88,39.08-74.39,50.29-19.49,7.67-39.7,11.16-60.69,9.05a144.33,144.33,0,0,1-46.93-13.4c-24.53-11.46-46-27.28-64.85-46.63-4.28-4.4-4.29-8.32,0-12.7,21.6-22,46.27-39.64,75.09-51,19.49-7.67,39.7-11.16,60.69-9.05a144.63,144.63,0,0,1,46.94,13.4c24.21,11.31,45.43,26.89,64.13,45.94a42,42,0,0,1,3.93,5.56ZM175.55,61.52a52.09,52.09,0,1,0,52.15,52A52.25,52.25,0,0,0,175.55,61.52Z" transform="translate(-48.62 -46.61)"/><path class="cls-1" d="M175.55,61.52a52.09,52.09,0,1,1-52,52.15A52.26,52.26,0,0,1,175.55,61.52ZM192,80.59c-12.85-7.58-31.21-4.69-42.64,6.73a37.18,37.18,0,0,0,36.56,62c13.62-4,26.21-18.23,25.83-29.15-12.6,1.76-20.83-1.64-25.84-10.67C180.65,100.08,182.38,91.87,192,80.59Z" transform="translate(-48.62 -46.61)"/><path d="M192,80.59c-9.6,11.28-11.33,19.49-6.09,28.93,5,9,13.24,12.43,25.84,10.67.38,10.92-12.21,25.13-25.83,29.15a37.18,37.18,0,0,1-36.56-62C160.77,75.9,179.13,73,192,80.59Z" transform="translate(-48.62 -46.61)"/></svg>