<svg id="Capa_1" data-name="Capa 1" xmlns="http://www.w3.org/2000/svg" viewBox="0 0 141.28 138.92"><defs><style>.cls-1{fill:#fff;}</style></defs><title>search</title><path d="M198,141.59a56,56,0,0,1-79-4.31c-19.39-21.78-19.22-54.42.32-75.35a56.05,56.05,0,0,1,75.06-6.85c24.46,18.5,30.13,54.38,10.18,79.55,3.57,3.5,7.2,7,10.76,10.55q14.25,14.26,28.45,28.59a7.69,7.69,0,0,1,1.89,3,4.57,4.57,0,0,1-2.31,5.3,4.78,4.78,0,0,1-5.86-.84c-3.48-3.45-6.92-6.94-10.37-10.41L198.86,142.4C198.6,142.15,198.33,141.91,198,141.59ZM160.53,53.5a46.31,46.31,0,1,0,46.39,46.2A46.4,46.4,0,0,0,160.53,53.5Z" transform="translate(-104.58 -43.76)"/><path class="cls-1" d="M160.53,53.5A46.31,46.31,0,1,1,114.3,99.76,46.3,46.3,0,0,1,160.53,53.5Zm1.32,6.15A41.6,41.6,0,0,0,140.66,65c-2.7,1.54-3.63,4.31-2.26,6.8s4.25,3.15,7.06,1.67q17.32-9.15,33.41,2.07c2.59,1.8,5.55,1.51,7.22-.81s1-5.19-1.43-7A39.47,39.47,0,0,0,161.85,59.65Z" transform="translate(-104.58 -43.76)"/><path d="M161.85,59.65a39.47,39.47,0,0,1,22.81,8c2.48,1.85,3.07,4.77,1.43,7s-4.63,2.61-7.22.81q-16.06-11.2-33.41-2.07c-2.81,1.48-5.68.84-7.06-1.67s-.44-5.26,2.26-6.8A41.6,41.6,0,0,1,161.85,59.65Z" transform="translate(-104.58 -43.76)"/></svg>