<svg id="Capa_1" data-name="Capa 1" xmlns="http://www.w3.org/2000/svg" viewBox="0 0 210.5 210.5"><defs><style>.cls-1{fill:#1a1a1a;}.cls-2{fill:none;stroke:#1a1a1a;stroke-miterlimit:10;stroke-width:4px;}</style></defs><title>accessible</title><path class="cls-1" d="M172.41,44.1c2,.72,4.17,1.15,6,2.23,5.47,3.32,8,8.35,7.37,14.73-.62,5.91-3.85,10.1-9.31,12.52-.35.15-.7.33-1.07.5,2.12,3.66.72,7.62,1.32,11.61h30.47c3.68,0,6.18,2,6.6,5.25a5.87,5.87,0,0,1-4.59,6.54,11.48,11.48,0,0,1-2.35.2q-14.25,0-28.51,0h-1.66v27.16h1.5q14.58,0,29.17,0a7.09,7.09,0,0,1,5.89,2.84c5.86,7.32,11.76,14.6,17.74,22,1.17-1,2.25-2.1,3.46-3a5.61,5.61,0,0,1,6.41-.45,5.7,5.7,0,0,1,3.09,5.66,5.8,5.8,0,0,1-2,4c-2.54,2.35-5,4.73-7.65,7a6,6,0,0,1-8.74-.9q-9.74-12.07-19.43-24.16a2.48,2.48,0,0,0-2.21-1q-16.09,0-32.19,0c-4.85,0-7.14-2.31-7.14-7.18,0-17,0-34,0-51a28.93,28.93,0,0,1,.76-4.56l.41,0c-.34-.17-.68-.36-1-.51a15.3,15.3,0,0,1,3.41-29.28,4.84,4.84,0,0,0,.6-.22Zm.12,45.59c0-2.61,0-5.06,0-7.5,0-1.58,0-3.16-.08-4.73a1.72,1.72,0,0,0-1.85-1.67,1.74,1.74,0,0,0-1.91,1.45,8,8,0,0,0-.14,1.69q0,25.36,0,50.72c0,2.69.54,3.23,3.24,3.23q17.08,0,34.16,0a2.26,2.26,0,0,1,2,.95q10.18,12.7,20.44,25.37c1.26,1.56,2.3,1.67,3.74.35,2.31-2.08,4.59-4.19,6.88-6.3a3.65,3.65,0,0,0,.67-.8,1.63,1.63,0,0,0-.37-2.34,3.33,3.33,0,0,0-2.25-.28c-.57.13-1,.76-1.53,1.2l-4.93,4.52c-.41-.49-.73-.85-1-1.22-6.41-7.95-12.83-15.87-19.19-23.85a4,4,0,0,0-3.49-1.62q-16.29,0-32.58,0c-.55,0-1.1,0-1.68-.07V93.7h34.06a7.42,7.42,0,0,0,1.7-.15,1.92,1.92,0,0,0-.13-3.74,10.59,10.59,0,0,0-1.69-.11h-34ZM159.2,59.48a11.35,11.35,0,1,0,11.35-11.4A11.43,11.43,0,0,0,159.2,59.48Z" transform="translate(-70.34 -8.11)"/><path class="cls-1" d="M121.27,130.73c.55-19.47,8.65-34.24,25.29-44.07a5.92,5.92,0,0,1,8.33,2.06,5.86,5.86,0,0,1-2.28,8.17,38.65,38.65,0,0,0-15,15.39,37.32,37.32,0,0,0,5.22,42c6.48,7.1,14.46,11.44,24,12.22,14.91,1.21,26.66-4.61,35.14-17a12,12,0,0,1,3.26-3.47,5.58,5.58,0,0,1,7,1.11,5.72,5.72,0,0,1,.72,7.26,60.69,60.69,0,0,1-5.64,7.73c-9.66,10.67-21.76,16.37-36.16,16.5s-26.86-5.31-36.78-16a47.59,47.59,0,0,1-11.78-22.8C121.87,136.75,121.66,133.59,121.27,130.73ZM170,170.81c-2.26-.29-5.17-.46-8-1.06a39.42,39.42,0,0,1-24.62-16c-9-12.77-10.46-26.54-4.37-40.94a39.64,39.64,0,0,1,17.21-19.07c1.45-.85,1.86-1.91,1.25-3s-1.91-1.36-3.31-.37c-2.92,2.07-6,4-8.59,6.44-12,11.7-16.36,25.91-13.07,42.31a43,43,0,0,0,14.35,24.33,43.79,43.79,0,0,0,31,11.19c12.89-.37,23.73-5.53,32.4-15.07a65.69,65.69,0,0,0,5.27-7.19,1.93,1.93,0,0,0-.56-2.78,1.9,1.9,0,0,0-2.66.56c-.45.59-.81,1.25-1.23,1.86C196.74,164.15,185.16,170.2,170,170.81Z" transform="translate(-70.34 -8.11)"/><circle class="cls-2" cx="105.25" cy="105.25" r="103.25"/></svg>