<svg id="Capa_1" data-name="Capa 1" xmlns="http://www.w3.org/2000/svg" viewBox="0 0 210.5 210.5"><defs><style>.cls-1{fill:none;stroke:#1a1a1a;stroke-miterlimit:10;stroke-width:4px;}.cls-2{fill:#1a1a1a;}</style></defs><title>+</title><circle class="cls-1" cx="105.25" cy="105.25" r="103.25"/><path class="cls-2" d="M124.25,112.22c.71-2,1.91-3.57,4.14-4a8.13,8.13,0,0,1,1.64-.12H172v-1.26c0-13.32,0-26.64,0-39.95,0-3.22,1-5.45,4.17-6.5h2.07c2,.71,3.57,1.9,4,4.13a8.49,8.49,0,0,1,.12,1.75q0,20.24,0,40.47v1.36h1.26c13.31,0,26.63,0,39.95,0,3.22,0,5.45,1,6.5,4.17v2.06c-.72,2-1.9,3.58-4.14,4a9.2,9.2,0,0,1-1.74.12H182.29v1.26c0,13.32,0,26.64,0,40,0,3.22-1,5.46-4.17,6.51h-2.07c-2-.73-3.57-1.91-4-4.14a9,9,0,0,1-.11-1.64q0-20.29,0-40.57v-1.37H170.7c-13.31,0-26.63,0-39.95,0-3.21,0-5.45-1-6.5-4.17Z" transform="translate(-70.34 -8.11)"/></svg>