<svg id="Capa_1" data-name="Capa 1" xmlns="http://www.w3.org/2000/svg" viewBox="0 0 210.5 210.5"><defs><style>.cls-1{fill:none;stroke:#1a1a1a;stroke-miterlimit:10;stroke-width:4px;}.cls-2{fill:#1a1a1a;}</style></defs><title>air_conditioner</title><circle class="cls-1" cx="105.25" cy="105.25" r="103.25"/><path class="cls-2" d="M109.17,72.78a12.49,12.49,0,0,1,4.08-7.38,12,12,0,0,1,8-2.69H233c4.93,0,8.8,2,10.94,6.51a12.74,12.74,0,0,1,1.15,5.24c.09,14.83.07,29.65,0,44.48,0,6.86-4.84,11.75-11.69,11.75q-56.29,0-112.58,0c-6,0-10.24-3.55-11.52-9.5a4.82,4.82,0,0,0-.2-.61Zm11.35,53.29v-1.55q0-7.83,0-15.67c0-2.33.75-3.08,3.12-3.08h107c2.37,0,3.12.75,3.13,3.08,0,5.27,0,10.54,0,15.81v1.54c.6-.08,1-.1,1.47-.2,3.32-.76,5.35-3.42,5.35-7.11q0-22.19,0-44.36a8.93,8.93,0,0,0-.3-2.36,6.45,6.45,0,0,0-6.51-4.77c0,1,0,2.1,0,3.15a34.54,34.54,0,0,1-.32,6c-1.21,5.6-5.71,8.88-11.89,8.88q-44.43,0-88.85,0A14.51,14.51,0,0,1,129.2,85c-5.39-1.42-8.56-5.57-8.67-11.27,0-2.12,0-4.23,0-6.38a4.59,4.59,0,0,0-.66,0c-3.73.38-6.17,3.27-6.17,7.34q0,22.05,0,44.1a10,10,0,0,0,.13,1.72A6.58,6.58,0,0,0,120.52,126.07ZM229.2,67.32H125.06c0,2.11,0,4.14,0,6.17a11,11,0,0,0,.09,1.72c.49,2.63,2.65,5.68,7.68,5.66,29.56-.07,59.12,0,88.69,0,.57,0,1.15,0,1.72-.08a6.47,6.47,0,0,0,5.91-5.55C229.38,72.63,229.2,70,229.2,67.32Zm-104.09,45.2H229.18V110.4H125.11Zm0,6.77H229.22v-2.08H125.13ZM229.22,124h-104v2.1H229.22Z" transform="translate(-70.34 -8.11)"/><path class="cls-2" d="M154.47,177.53a15.35,15.35,0,0,1,3-7.84,8.52,8.52,0,0,0,1-7.85,18.28,18.28,0,0,0-1.81-3.37,13.37,13.37,0,0,1-.85-13.16,10.34,10.34,0,0,1,1-1.83,10.93,10.93,0,0,0,2.18-6,2.21,2.21,0,0,1,2.35-2.18,2.32,2.32,0,0,1,2.12,2.59,13.46,13.46,0,0,1-1.95,6.66,19.34,19.34,0,0,0-2.12,3.95,8.39,8.39,0,0,0,1.15,7.71c2.56,3.68,3.65,7.67,2.39,12a18.14,18.14,0,0,1-2.13,4.52,10.5,10.5,0,0,0-1.84,5.3,2.3,2.3,0,0,1-2,2.47,2,2,0,0,1-2.28-1.2A7.47,7.47,0,0,1,154.47,177.53Z" transform="translate(-70.34 -8.11)"/><path class="cls-2" d="M199.8,137.66a15,15,0,0,1-2.94,8.46,8.53,8.53,0,0,0-1.05,7.85,18.28,18.28,0,0,0,1.81,3.37,13.37,13.37,0,0,1,.87,13.16,12.07,12.07,0,0,1-1.25,2.18,10.25,10.25,0,0,0-2,5.54,2.27,2.27,0,0,1-2.34,2.35c-1.37-.07-2.22-1.2-2.14-2.82a16.35,16.35,0,0,1,2.81-7.89,13.35,13.35,0,0,0,1.6-4.67,7.8,7.8,0,0,0-1.6-5.74c-2.52-3.6-3.54-7.53-2.3-11.8a18.38,18.38,0,0,1,2.13-4.53,10.41,10.41,0,0,0,1.85-5.29,2.35,2.35,0,0,1,1.55-2.4A2.14,2.14,0,0,1,199.8,137.66Z" transform="translate(-70.34 -8.11)"/><path class="cls-2" d="M172.69,177.21a12.5,12.5,0,0,1,1.93-5.9c.5-.79,1.06-1.54,1.48-2.36a8.71,8.71,0,0,0-.54-9.31c-2.55-3.75-3.69-7.75-2.34-12.17a21,21,0,0,1,2.25-4.62,10.39,10.39,0,0,0,1.7-5.08,2.28,2.28,0,1,1,4.51.18,12.78,12.78,0,0,1-1.92,6.53c-.52.83-1.11,1.62-1.54,2.48a8.63,8.63,0,0,0,.53,9.19c2.3,3.4,3.63,7,2.61,11.13a24.56,24.56,0,0,1-2.53,5.76,11.2,11.2,0,0,0-1.66,5c-.08,1.65-1.09,2.68-2.42,2.57S172.62,179.38,172.69,177.21Z" transform="translate(-70.34 -8.11)"/><path class="cls-2" d="M175.05,99c2.78,0,5.57,0,8.36,0,1.81,0,2.82.87,2.79,2.29s-1,2.23-2.75,2.23c-5.7,0-11.41,0-17.11,0-1.71,0-2.71-.88-2.72-2.25s1-2.26,2.8-2.27C169.3,99,172.17,99,175.05,99Z" transform="translate(-70.34 -8.11)"/><path class="cls-2" d="M224,94.47c-2.59,0-3.74-.8-3.71-2.33s1.12-2.21,3.3-2.21a11.56,11.56,0,0,1,1.32,0A2.23,2.23,0,0,1,227,92.11a2.26,2.26,0,0,1-2.1,2.3A5.89,5.89,0,0,1,224,94.47Z" transform="translate(-70.34 -8.11)"/><path class="cls-2" d="M232.39,89.93c2.61,0,3.76.8,3.7,2.32s-1.15,2.23-3.31,2.22a8.29,8.29,0,0,1-1.58-.12,2.19,2.19,0,0,1,.12-4.35C231.8,89.94,232.28,89.94,232.39,89.93Z" transform="translate(-70.34 -8.11)"/></svg>