<svg id="Capa_1" data-name="Capa 1" xmlns="http://www.w3.org/2000/svg" viewBox="0 0 153.41 187.95"><defs><style>.cls-1{fill:#1a1a1a;}</style></defs><title>apple</title><path class="cls-1" d="M142.47,204.52H137a31.17,31.17,0,0,1-14.91-9.18,118.7,118.7,0,0,1-30.48-65.2c-1.25-9.54-1.34-19,1-28.43,3.64-14.53,11-26.43,24.46-33.93,8.67-4.85,18-6.91,27.73-4.49a131.18,131.18,0,0,1,16.11,5.48c4.85,1.89,9.51,2.26,14.38.1,3.17-1.41,6.51-2.45,9.78-3.64,15.75-5.74,30.64-4,44.55,5.35a32.47,32.47,0,0,1,9.48,10.15c-14.14,9-21.23,21.47-20,38.38s10.21,28.29,25.08,35.41c-.17.61-.24,1-.36,1.31-5,14.53-13,27.34-22.93,38.95-6.78,7.95-15.32,11.41-25.74,8.57a109.62,109.62,0,0,1-10.9-3.76c-7.61-2.94-15.3-3.62-23.14-1.14C154.83,200.41,148.66,202.49,142.47,204.52Z" transform="translate(-90.7 -16.57)"/><path class="cls-1" d="M204.85,16.57a37,37,0,0,1-3.47,20.1c-4.43,9-10.64,16.39-19.89,20.78a27.21,27.21,0,0,1-14.1,2.33C164.85,40,182.1,18.58,204.85,16.57Z" transform="translate(-90.7 -16.57)"/></svg>