<svg id="Capa_1" data-name="Capa 1" xmlns="http://www.w3.org/2000/svg" viewBox="0 0 210.5 210.5"><defs><style>.cls-1{fill:none;stroke:#1a1a1a;stroke-miterlimit:10;stroke-width:4px;}.cls-2{fill:#1a1a1a;}</style></defs><title>back</title><circle class="cls-1" cx="105.25" cy="105.25" r="103.25"/><path class="cls-2" d="M200,181.66a13.76,13.76,0,0,1-5.39-3.84Q164.85,148,135,118.17c-2.78-2.78-3.37-6-1.62-9a9.4,9.4,0,0,1,1.42-1.79L196.07,46.1c2.11-2.11,4.57-3,7.48-2.05a6.91,6.91,0,0,1,3,11.16c-.38.44-.79.86-1.2,1.27l-55,55a8.82,8.82,0,0,1-1.32.91v.6a10.46,10.46,0,0,1,1.33.92q27.69,27.66,55.37,55.35c2.82,2.82,3.36,6.14,1.53,9.14a8.32,8.32,0,0,1-4.58,3.29Z" transform="translate(-70.34 -8.11)"/></svg>