<svg id="Capa_1" data-name="Capa 1" xmlns="http://www.w3.org/2000/svg" viewBox="0 0 210.5 210.5"><defs><style>.cls-1{fill:none;stroke:#1a1a1a;stroke-miterlimit:10;stroke-width:4px;}.cls-2{fill:#1a1a1a;}</style></defs><title>balcony</title><circle class="cls-1" cx="105.25" cy="105.25" r="103.25"/><path class="cls-2" d="M123.53,179.28a2.76,2.76,0,0,1-1.82-3.12,17.46,17.46,0,0,0-3-12c-2.93-4.38-2.8-9.43-1.88-14.53,1.55-8.53,2.9-17.09,4.33-25.64.06-.34.06-.69.09-1-2.37-.48-3.16,0-3.77,2.29a2.1,2.1,0,0,1-2.29,1.69,2.14,2.14,0,0,1-1.82-2.34,6.31,6.31,0,0,1,5.75-6c.43,0,.87,0,1.3,0H231.88c3.86,0,6.58,2.09,7,5.47a3.24,3.24,0,0,1-.54,2.16,2.07,2.07,0,0,1-1.82.6,2.73,2.73,0,0,1-1.59-1.48c-.88-2.47-1.16-2.73-3.91-2.46l1,6.25c1.29,7.87,2.62,15.73,3.87,23.6a17.8,17.8,0,0,1-1.9,10.9,2.49,2.49,0,0,1-.31.58c-2.9,3.51-3.58,7.59-3.1,12a2.77,2.77,0,0,1-1.83,3.12ZM126,175H226.28v-4H126Zm69.53-8.34c.26-.85.52-1.72.78-2.59a25.27,25.27,0,0,0,1.41-9.5c-.72-8.25-1.31-16.51-2-24.77-.18-2.33-.39-4.66-.59-7h-6.3c.14,14.65.27,29.2.4,43.81ZM157.16,122.8c0,.32-.09.49-.1.66-.78,9.72-1.43,19.45-2.39,29.16-.48,4.93.58,9.49,2.16,14H163c.15-14.67.3-29.23.46-43.82Zm-15.54,43.91c-.44-1.12-.82-2.09-1.21-3.05a17.92,17.92,0,0,1-1.51-8.53c.9-8.8,1.88-17.59,2.83-26.39.21-2,.42-3.93.64-5.92H136.1a6.67,6.67,0,0,0-.22.81c-1.4,8.37-2.84,16.75-4.18,25.13a44.88,44.88,0,0,0-.71,7.39c0,3.88,2.27,7,4.22,10.11a1.29,1.29,0,0,0,1,.43C137.91,166.74,139.65,166.71,141.62,166.71Zm68.32-43.9a5.18,5.18,0,0,0,0,.56c1,8.92,2,17.85,3,26.76.49,4.27.91,8.51-.74,12.64-.51,1.28-1,2.56-1.55,3.94a15.61,15.61,0,0,1,2.39,0c2.82.51,4.41-.65,5.78-3.18a18.13,18.13,0,0,0,2.18-12.3c-1.28-7-2.36-14.09-3.54-21.14-.4-2.43-.83-4.87-1.24-7.3Zm-10,43.9h2.15c1.3,0,2.94.43,3.82-.19s1.13-2.34,1.69-3.56a17.4,17.4,0,0,0,1.48-9.42c-.86-7.44-1.68-14.89-2.51-22.34q-.47-4.2-.93-8.36h-6.23c0,.49,0,.88,0,1.27.65,8.21,1.35,16.42,1.94,24.63a77.13,77.13,0,0,1,.33,10.3C201.55,161.56,200.61,164,200,166.71Zm-53.34-43.9c0,.27-.07.48-.09.69-.94,8.35-1.9,16.71-2.81,25.07-.29,2.64-.63,5.29-.68,7.94C143,160,144.72,163,146,166.19a.89.89,0,0,0,.62.5c1.89,0,3.79,0,5.82,0-.21-.73-.36-1.26-.52-1.8-.88-3-1.83-6-1.58-9.22.62-8,1.28-16,1.92-24,.23-2.94.45-5.88.68-8.9Zm21.17,0c-.18,9.76-1.19,40.23,0,43.84H174V122.8Zm10.52,0v43.85h6.34c.89-14.64-.15-29.21-.08-43.85Zm-52.67,0a8.21,8.21,0,0,0-.24.88c-1.4,8.37-2.83,16.74-4.17,25.12a44.78,44.78,0,0,0-.72,7.38c0,3.88,2.26,7,4.2,10.11a1,1,0,0,0,.69.45c1.64,0,3.28,0,5.13,0-.39-.67-.67-1.15-1-1.62a18.56,18.56,0,0,1-2.68-12.76c1.16-7.22,2.38-14.43,3.57-21.65.43-2.6.85-5.2,1.29-7.86-.37,0-.59-.07-.8-.07Zm96.43,44a9.15,9.15,0,0,1,1.73,0c2.65.51,4.06-.66,5.36-3a18,18,0,0,0,2.31-12.52c-1.28-7-2.37-14.08-3.54-21.12-.41-2.43-.83-4.87-1.24-7.28h-6.12c0,.42,0,.77.09,1.11q2,12,4,24.09c.65,3.82,1.51,7.67.29,11.5C224.24,162,223.1,164.25,222.08,166.71Z" transform="translate(-70.34 -8.11)"/><path class="cls-2" d="M146.82,80.87v30.35a8,8,0,0,1,0,1.3,2.06,2.06,0,0,1-4.1,0,6.51,6.51,0,0,1,0-1.17V56.75c0-2.47.62-3.1,3.08-3.1h60.84c2.46,0,3.08.63,3.08,3.11v54.55a7.67,7.67,0,0,1,0,1.18,2,2,0,0,1-2,1.84,2,2,0,0,1-2.06-1.81,7.11,7.11,0,0,1-.05-1.31V81H178.23V111.2a8,8,0,0,1,0,1.3,2.06,2.06,0,0,1-4.1,0,8.63,8.63,0,0,1-.05-1.44V57.91H146.93V76.68h19.8a7.11,7.11,0,0,1,1.31,0,2.06,2.06,0,0,1,0,4.07,7.68,7.68,0,0,1-1.44.06Zm31.47-4.28h27.05V57.91H178.29Z" transform="translate(-70.34 -8.11)"/><path class="cls-2" d="M213.82,49.53H138.45v61.64c0,2.15-.66,3.16-2.07,3.18s-2.12-1-2.12-3.12V50.38c0-3.56,1.54-5.1,5.08-5.1h73.54c3.62,0,5.13,1.52,5.13,5.18v60.71c0,2.15-.66,3.16-2.06,3.18s-2.13-1-2.13-3.12V49.53Z" transform="translate(-70.34 -8.11)"/></svg>