<svg id="Capa_1" data-name="Capa 1" xmlns="http://www.w3.org/2000/svg" viewBox="0 0 210.5 210.5"><defs><style>.cls-1{fill:none;stroke:#1a1a1a;stroke-miterlimit:10;stroke-width:4px;}.cls-2{fill:#1a1a1a;}.cls-3{fill:#fff;}</style></defs><title>bath</title><circle class="cls-1" cx="105.25" cy="105.25" r="103.25"/><path class="cls-2" d="M106.26,125c.66-1.06,1.39-2.09,1.95-3.2a5.12,5.12,0,0,0,.34-1.89,10.92,10.92,0,0,1,7.8-10.17,14,14,0,0,1,3.88-.5,1.61,1.61,0,0,0,1.55-.9,15.37,15.37,0,0,1,14.33-8.13,1.26,1.26,0,0,1,.39,0c2.37.91,3.8-.37,5.47-1.9a18.8,18.8,0,0,1,25.22-.15c.26.23.53.45.63.53a39.47,39.47,0,0,1,5.35-2.57,11,11,0,0,1,12.67,5.37c.24.46.77,1,1.21,1.06a2.12,2.12,0,0,0,2.42-1.05c4.11-7.44,10.54-11,18.95-10.17,7.89.8,13.26,5.32,16,12.8.09.25.19.49.33.84l3-.38v-1.27q0-22.59,0-45.2c0-4.09-2.31-6.92-6-7.41a6.74,6.74,0,0,0-7.43,6c-.06.77.09,1.15.9,1.42a11.06,11.06,0,0,1,7.91,9.7c.26,2-.6,3-2.59,3.05-3.3,0-6.59,0-9.89,0-3,0-6.06,0-9.09,0-2.44,0-3.3-1-2.91-3.37a11.59,11.59,0,0,1,10-10l1.11-.19a19.67,19.67,0,0,1,.31-2.34,11,11,0,0,1,9.13-8.72,2.37,2.37,0,0,0,.47-.2h2.64a12.57,12.57,0,0,1,6.89,3.55,12,12,0,0,1,3.1,8.56c0,15,0,30,0,44.94a3.38,3.38,0,0,0,1.73,3.47c4.3,2.67,5.91,7.68,4.48,12.69-.2.71-.78,1.43.34,2.13a5.07,5.07,0,0,1,2.39,5.21,5.26,5.26,0,0,1-3.8,4.6,1.14,1.14,0,0,0-.94,1.17c-.3,3.15-.73,6.29-1,9.44a34.53,34.53,0,0,1-5.07,16.15,32.1,32.1,0,0,1-12.81,11.62c-.7.35-1,.68-.71,1.5a21.71,21.71,0,0,1,.72,3.07,5.92,5.92,0,0,1-10.34,4.8,15.29,15.29,0,0,1-1.94-2.81c-.87-1.76-2-2.63-4-2a3.59,3.59,0,0,1-1,0q-24.66,0-49.3,0c-2.1,0-4.21-.22-6.31-.24a1.93,1.93,0,0,0-1.37.64c-1,1.29-1.8,2.71-2.77,4a5.74,5.74,0,0,1-6.2,2.17,5.57,5.57,0,0,1-4.36-5,14.06,14.06,0,0,1,.65-4.38c.28-1.06,0-1.48-.92-2-9.5-5.1-15.32-13-17.06-23.62-.77-4.72-1.11-9.5-1.65-14.34a6.09,6.09,0,0,1-4.69-4.47Zm125.83,6.75H115.48c.54,4.74,1,9.36,1.59,14a22.16,22.16,0,0,0,3.52,9.56c6.24,9.48,15.4,14.16,26.42,14.43,17.12.43,34.26.16,51.39.16a35.19,35.19,0,0,0,19-5.26c6.41-4,11.07-9.47,12.62-17C231.12,142.46,231.43,137.12,232.09,131.73Zm-118.9-11.32H231.5c2,0,2.05,0,2.6-1.94.09-.3.16-.6.22-.9,1-5.13-3.12-9.32-8.12-8.17-.8.19-1.54.6-2.33.86A2.13,2.13,0,0,1,221,108.9a10.34,10.34,0,0,1-.34-1.54,14.64,14.64,0,0,0-16.8-11.48,14.27,14.27,0,0,0-11,9,2.89,2.89,0,0,1-3.1,2.07,11.83,11.83,0,0,0-3.12.41c-2.73.68-3.42.33-4.2-2.36a6.64,6.64,0,0,0-11-2.94c-.56.54-1,1.23-1.5,1.82a2.13,2.13,0,0,1-3.25.22,11.74,11.74,0,0,1-1.09-1.14,14.47,14.47,0,0,0-22.83,1.1c-1.17,1.57-1.73,1.77-3.59,1.21a11.25,11.25,0,0,0-10.27,1.59,11.41,11.41,0,0,0-4,5.29c-.73,1.87-1.53,2.22-3.5,1.78-.21,0-.42-.12-.64-.16A6.54,6.54,0,0,0,113.19,120.41Zm60.57,6.71h60.76c.87,0,2.12.31,2.17-1s-1.27-1.16-2.18-1.16q-60.75,0-121.51,0c-.87,0-2.13-.3-2.17,1s1.26,1.15,2.17,1.15ZM203.53,66.3h14.59A7.92,7.92,0,0,0,211.28,62,8.28,8.28,0,0,0,203.53,66.3ZM135.06,172a16,16,0,0,0-.64,2.82,2,2,0,0,0,.74,1.58,1.81,1.81,0,0,0,1.69-.34,21.57,21.57,0,0,0,2-2.87Zm73.58,1.18a19.59,19.59,0,0,0,1.82,2.65,2.37,2.37,0,0,0,1.76.66c.85-.12,1.07-.94.89-1.76s-.43-1.76-.67-2.72Z" transform="translate(-70.34 -8.11)"/><path class="cls-2" d="M137.77,88.87a9,9,0,1,1,9-9A9,9,0,0,1,137.77,88.87Zm0-13.46a4.49,4.49,0,1,0,4.43,4.45A4.49,4.49,0,0,0,137.8,75.41Z" transform="translate(-70.34 -8.11)"/><path class="cls-2" d="M171.47,84.4a6.75,6.75,0,0,1-6.69,6.74,6.74,6.74,0,1,1,0-13.47A6.69,6.69,0,0,1,171.47,84.4Zm-4.52,0a2.15,2.15,0,0,0-2.27-2.18,2.21,2.21,0,0,0-2.14,2.2,2.23,2.23,0,0,0,2.16,2.2A2.18,2.18,0,0,0,167,84.38Z" transform="translate(-70.34 -8.11)"/><path class="cls-2" d="M203,81.09c0,1.06.05,2.12,0,3.17a2.23,2.23,0,0,1-2.32,2.34,2.2,2.2,0,0,1-2.14-2.37q-.06-3.23,0-6.45a2.22,2.22,0,0,1,2.16-2.36A2.32,2.32,0,0,1,203,77.67c0,.08,0,.17,0,.26v3.16Z" transform="translate(-70.34 -8.11)"/><path class="cls-2" d="M216.49,81c0,1.09,0,2.19,0,3.29a2.23,2.23,0,1,1-4.45,0c-.07-2.19-.06-4.39,0-6.59a2.23,2.23,0,1,1,4.46.09C216.52,78.89,216.49,79.94,216.49,81Z" transform="translate(-70.34 -8.11)"/><path class="cls-2" d="M205.21,77.52a25.19,25.19,0,0,1,.17-2.55,2,2,0,0,1,2.11-1.76,1.9,1.9,0,0,1,2.13,1.73,38.64,38.64,0,0,1,0,5.38,1.91,1.91,0,0,1-2.1,1.76,2.05,2.05,0,0,1-2.16-1.87C205.24,79.35,205.26,78.47,205.21,77.52Z" transform="translate(-70.34 -8.11)"/><path class="cls-2" d="M223.33,77.62a25.06,25.06,0,0,1-.2,2.72,2.17,2.17,0,0,1-4.29-.28c-.08-1.62-.08-3.25,0-4.87a2.17,2.17,0,0,1,4.3-.21A25,25,0,0,1,223.33,77.62Z" transform="translate(-70.34 -8.11)"/><path class="cls-2" d="M158,67.54a3.34,3.34,0,1,1-3.31-3.41A3.47,3.47,0,0,1,158,67.54ZM154.64,66c-.52.71-1.11,1.18-1,1.5s.7.76,1.09,1.13c.35-.37.94-.71,1-1.11S155.15,66.68,154.64,66Z" transform="translate(-70.34 -8.11)"/><path class="cls-3" d="M173.76,127.12H113c-.91,0-2.22.32-2.17-1.15s1.3-1,2.17-1q60.76,0,121.51,0c.91,0,2.23-.31,2.18,1.16s-1.3,1-2.17,1Z" transform="translate(-70.34 -8.11)"/></svg>