<svg id="Capa_1" data-name="Capa 1" xmlns="http://www.w3.org/2000/svg" viewBox="0 0 210.5 210.5"><defs><style>.cls-1{fill:none;stroke:#1a1a1a;stroke-miterlimit:10;stroke-width:4px;}.cls-2{fill:#1a1a1a;}</style></defs><title>bed</title><circle class="cls-1" cx="105.25" cy="105.25" r="103.25"/><path class="cls-2" d="M249.31,162.15a3.35,3.35,0,0,1-3.48,1.92c-2.54-.09-5.08,0-7.62,0s-3.12-.78-3.62-3.14c-.75-3.47-1.64-6.92-2.73-10.29a24.19,24.19,0,0,0-2.54-4.53,2.65,2.65,0,0,0-2.56-1.27q-30.64.06-61.27,0a14.39,14.39,0,0,1-1.74-.06,2.63,2.63,0,0,1-.25-5.16,10.19,10.19,0,0,1,2-.13h78.36v-9.1h-66c-3.92,0-7.85-.17-11.77,0-10.88.55-13.25-2.4-12.68-12.64,0-.57,0-1.14,0-1.78H117.74V139.5h21.73a10,10,0,0,1,1.34.05,2.64,2.64,0,0,1,2.42,2.71,2.57,2.57,0,0,1-2.58,2.55c-2,.07-3.93.1-5.88,0a2.6,2.6,0,0,0-2.38,1.14c-2.64,3.4-3.87,7.38-4.8,11.49-.29,1.3-.44,2.63-.66,4-.33,1.87-1.2,2.63-3.08,2.64-2.72,0-5.44,0-8.16,0-2.47,0-3.38-.91-3.38-3.39V99.25c0-7.32,0-14.63,0-21.94,0-2.42.37-4.61,2.13-6.35-3.09-5.5-2.57-10.3,1.42-13.5a9.46,9.46,0,0,1,12.27.33c3.13,2.82,4.63,8.1,1,13.09,3.16,3,1.85,7,2.24,10.65,6.09-.64,11.22.9,15.22,5.73,2.61,3.15,5.45,6.12,8.21,9.16a12.83,12.83,0,0,1,3.29,5.73c.26,1.12.77,1.34,1.83,1.34q32,0,63.94,0c5,0,9.9,0,14.71,1.44,3.52,1.06,6.85,2.48,8.82,5.81a36.34,36.34,0,0,1,1.95,4.62Zm-90.53-53.27c0,4.83,0,9.59,0,14.34a1.82,1.82,0,0,0,1.85,1.78,14.34,14.34,0,0,0,1.47,0h79.3c1.78-.05,2.51-.78,2.53-2.54s0-3.3,0-5a6.67,6.67,0,0,0-4.34-6.57,27.14,27.14,0,0,0-10.94-2.12q-34.58-.06-69.14,0C159.36,108.82,159.19,108.85,158.78,108.88Zm-32.86,1.62V77.33c0-.31,0-.62,0-.93,0-1.51-.6-2.06-2.13-2.1-1.2,0-2.41,0-3.61,0-2.06,0-2.5.45-2.5,2.51q0,16.17,0,32.34v1.35Zm5.39-20a8.86,8.86,0,0,0,2.66,7c2.89,3.21,5.82,6.38,8.65,9.65a9.77,9.77,0,0,0,8.32,3.4,2.24,2.24,0,0,0,2.3-2.15,9.9,9.9,0,0,0-2.53-8.51q-4.47-4.78-8.75-9.73a10.18,10.18,0,0,0-8.2-3.44,2.28,2.28,0,0,0-2.44,2.3C131.28,89.5,131.31,90,131.31,90.48Zm-13.6,68.16h3.78L126.07,145h-8.36Zm117.84-13.72c1.53,4.58,3,9.1,4.56,13.67h3.75V144.92Zm-113.8-76a4.24,4.24,0,0,0,4.16-4.06,4.19,4.19,0,0,0-4-4.16,4.13,4.13,0,0,0-4.2,4.1A4.17,4.17,0,0,0,121.75,68.94Zm9.57,41.54h7.13l-7.13-7.92Z" transform="translate(-70.34 -8.11)"/><path class="cls-2" d="M152.37,144.82a2.58,2.58,0,0,1-2.66-2.58,2.64,2.64,0,1,1,2.66,2.58Z" transform="translate(-70.34 -8.11)"/></svg>