<svg id="Capa_1" data-name="Capa 1" xmlns="http://www.w3.org/2000/svg" viewBox="0 0 152 146.33"><defs><style>.cls-1{fill:#1a1a1a;}</style></defs><title>budget</title><path class="cls-1" d="M247.3,56.41v96.18c-.88,1.85-1.5,3.9-2.69,5.52-3.13,4.24-7.78,6.3-12.63,7.83a65,65,0,0,1-21.21,2.75c-1.47,0-2.93,0-4.26,0a32.9,32.9,0,0,1-.86,3.72c-1.53,4.27-4.84,6.88-8.69,8.9A47.16,47.16,0,0,1,180.52,186c-9.84,1.2-19.58.78-29-2.26-7.19-2.31-13.71-5.64-15.33-14.1-1.52,0-3,0-4.47,0a63.06,63.06,0,0,1-21.2-2.81c-6.87-2.27-13.12-5.44-15.18-13.3V80.16c1.21-5,4.53-8.3,8.9-10.68a43.75,43.75,0,0,1,14-4.48A73.48,73.48,0,0,1,141,64.78c6.1.89,12,2.37,17.28,5.8,4.6,3,7.3,7,7.14,12.77-.18,6.62,0,13.26,0,19.88v1.52h11.87v-1.83q0-22.32,0-44.65a11.52,11.52,0,0,1,.5-3.35c1.4-4.65,4.92-7.39,9-9.5a47.28,47.28,0,0,1,16.31-4.56c9.84-1.2,19.57-.76,29,2.26C239,45.32,245.24,48.55,247.3,56.41Zm-58.19,39c0,2.92-.08,5.74,0,8.55a3,3,0,0,0,1.1,2.16,30.3,30.3,0,0,0,6.14,2.86c9.17,2.79,18.49,2.82,27.85,1a25.41,25.41,0,0,0,9.9-3.76c.53-.36,1.19-1,1.21-1.54.12-3.08.06-6.16.06-9.29C216.58,100.63,207.21,100.63,189.11,95.36Zm46.31-23.53a69.43,69.43,0,0,1-46.31,0c0,3-.07,5.68,0,8.39a2.78,2.78,0,0,0,1,2,31.65,31.65,0,0,0,6.12,2.89,57.63,57.63,0,0,0,27.86,1.07,25.35,25.35,0,0,0,10-3.82,2.56,2.56,0,0,0,1.15-1.57C235.48,77.9,235.42,74.94,235.42,71.83ZM153.48,95.71a71.08,71.08,0,0,1-46.31,0c0,2.73,0,5.44,0,8.15a2.25,2.25,0,0,0,1.22,2.32,41.36,41.36,0,0,0,6,2.74A57.51,57.51,0,0,0,142.27,110a24.89,24.89,0,0,0,10-3.84,2.85,2.85,0,0,0,1.14-1.86C153.56,101.47,153.48,98.64,153.48,95.71Zm-5.34,63.54c0,2.82-.07,5.54.05,8.26a2.82,2.82,0,0,0,1,2.05,31.16,31.16,0,0,0,6.13,2.89,57.51,57.51,0,0,0,27.86,1.07,25.16,25.16,0,0,0,10-3.82A2.75,2.75,0,0,0,194.4,168c.12-2.9,0-5.81,0-8.75A71.14,71.14,0,0,1,148.14,159.25Zm0-22.86c0,2.6-.09,5.12.05,7.63a3,3,0,0,0,1.13,2.16,30.6,30.6,0,0,0,6,2.81,57.63,57.63,0,0,0,27.86,1.08,25,25,0,0,0,10-3.81,2.76,2.76,0,0,0,1.19-1.7c.12-2.71,0-5.43,0-8.18A71.14,71.14,0,0,1,148.14,136.39ZM148,122.28a15.36,15.36,0,0,0,6.24,3.56,54.38,54.38,0,0,0,25.79,1.88,73.55,73.55,0,0,0,11.08-3.09,15.19,15.19,0,0,0,3.2-1.94v-.58c-1.59-.84-3.12-1.82-4.78-2.51-5.76-2.37-11.85-3-18-3-6.36,0-12.65.62-18.6,3.07A55.17,55.17,0,0,0,148,122.28Zm87.52-64.49c-1.84-1-3.38-1.94-5-2.62-5.77-2.36-11.85-3-18-3-6.36,0-12.64.63-18.59,3.07a48.3,48.3,0,0,0-4.7,2.52l0,.67a34.93,34.93,0,0,0,4.64,2.45c11.5,4.12,23.13,4.07,34.79.74A14.88,14.88,0,0,0,235.54,57.79ZM153.6,81.54c-1.84-1-3.38-1.94-5-2.62-5.77-2.36-11.85-3-18-3-6.36,0-12.64.63-18.59,3.07a49.48,49.48,0,0,0-4.7,2.52l0,.67A35.56,35.56,0,0,0,112,84.6c11.5,4.12,23.14,4.07,34.8.74A14.8,14.8,0,0,0,153.6,81.54Zm-17.38,41.29c-10,.56-19.65-.2-29-3.79a40.77,40.77,0,0,1-.06,6.37c-.55,3.4,1.2,5,4,6.08l.69.29c7.81,3.07,15.94,3.44,24.19,2.86.08,0,.14-.13.25-.22Zm70.18,10.94a65.06,65.06,0,0,0,17.83-.92,26.81,26.81,0,0,0,9.89-3.76,2.76,2.76,0,0,0,1.24-1.66c.13-2.75.06-5.5.06-8.39-9.45,3.61-19.13,4.33-29,3.8Zm0,11.92v10.92a63.67,63.67,0,0,0,17.88-.92,27,27,0,0,0,9.88-3.77c.5-.35,1.15-.92,1.17-1.41.12-2.82.06-5.65.06-8.62C226,145.52,216.31,146.23,206.42,145.69Zm-99.25-2.91a54.41,54.41,0,0,1,0,6.41c-.3,2.42.85,3.62,2.8,4.59a41,41,0,0,0,16,3.82c3.38.19,6.78,0,10.23,0v-11C126.27,147.12,116.63,146.4,107.17,142.78Z" transform="translate(-95.3 -40.24)"/></svg>