<svg id="Capa_1" data-name="Capa 1" xmlns="http://www.w3.org/2000/svg" viewBox="0 0 210.5 210.5"><defs><style>.cls-1{fill:none;stroke:#1a1a1a;stroke-miterlimit:10;stroke-width:4px;}.cls-2{fill:#1a1a1a;}</style></defs><title>bunk_bed</title><circle class="cls-1" cx="105.25" cy="105.25" r="103.25"/><path class="cls-2" d="M164.66,168.14h-2.5c-5.33-1.75-5.32-6.12-5-10.6H97.39v7.57a3,3,0,0,1-1.5,3H94.66a2.71,2.71,0,0,1-1.55-2.85c.07-2.56,0-5.13,0-7.73H67.49c0,2.61,0,5.1,0,7.6a3.15,3.15,0,0,1-1.35,3H64.66a3.09,3.09,0,0,1-1.45-3c.07-1.58,0-3.16,0-4.74v-2.83H54.66v4.4a6.18,6.18,0,0,1-3.36,5.45c-.53.3-1.11.52-1.66.77h-2.5a7.15,7.15,0,0,1-5.25-5.25V45.39a7.15,7.15,0,0,1,5.25-5.25h2.52c3.86,1.35,5.28,4.13,5.07,8.12-.18,3.36,0,6.74,0,10.12,0,.29.06.59.11,1a15.21,15.21,0,0,1,10.64-4.34h55.1a6.44,6.44,0,0,1,6,3.54c.16.29.47.68.73.69,1.36.07,2.73,0,4.21,0v-2A10.65,10.65,0,0,1,142,46.53h.39c2,0,4,.06,6,0,3-.11,5.9.18,8.48,1.93l.25-.11V46.87a6.1,6.1,0,0,1,2.34-5.26,20.12,20.12,0,0,1,2.69-1.48h2.48a7.18,7.18,0,0,1,5.25,5.25V162.89A7.18,7.18,0,0,1,164.66,168.14ZM97.44,123.36h23.09a6.44,6.44,0,0,1,6,3.53c.17.29.47.69.73.7,1.36.07,2.72,0,4.21,0v-1.85c.13-6.43,4.6-10.87,11-10.93,2.12,0,4.25.06,6.37,0a12.86,12.86,0,0,1,8,1.92H157V89.27H97.44ZM54.83,72.06h68.1V61.26c0-1.26-.93-1.9-2.46-1.9H65.35A10.72,10.72,0,0,0,54.65,70.1,10.83,10.83,0,0,0,54.83,72.06Zm102.26,4.41H97.48v8.35h59.61Zm0,68.28H97.5v8.34h59.56ZM50.43,104.14V46.64a2.14,2.14,0,0,0-2-2.23h0a2.19,2.19,0,0,0-2.2,2.18V160.76c0,2,.69,3.06,2.08,3.11s2.18-1,2.18-3.11Zm111-.13v57.62a2.14,2.14,0,0,0,2,2.24,2.19,2.19,0,0,0,2.2-2.18V47.52c0-2.08-.76-3.15-2.2-3.11s-2.06,1-2.06,3.11ZM93.08,112.6V99.94H67.57V112.6ZM123,140.35v-10c0-2.1-.67-2.77-2.75-2.77H98.58a6,6,0,0,0-1.11.07v12.66ZM54.8,127.66c.37-.28.62-.46.86-.67a13.8,13.8,0,0,1,6.39-3.21c1-.2,1.24-.56,1.24-1.54V90.53a9,9,0,0,0-.06-1.25h-8.4Zm102.33-64H127.32V72h29.77Zm0,76.63v-8.35H127.29v8.35ZM67.56,84.89H93.05v-8.4H67.56Zm25.5,59.9H67.56v8.34h25.5Zm0-55.47H67.59v6.23H93.05Zm0,34V117H67.66v6.34Zm64.09-64V58c0-4.54-2.56-7.11-7.12-7.12h-7.75A6.54,6.54,0,0,0,136,59.3Zm-21.24,68.2h21.24v-1.34c0-4.47-2.58-7.06-7-7.07H143a10.27,10.27,0,0,0-2.35.19c-3.57.84-5.37,4-4.8,8.21Zm-68.33,4.3H93.06v-4.13H67.56Zm0,3.88v3.08H93.06V135.7Zm-12.81,4.62h8.35V127.94c-5.46.95-9,6.16-8.34,12.37Zm0-63.84v8.35h8.38V76.47Zm0,76.64h8.37v-8.35H54.76Z"/></svg>