<svg id="Capa_1" data-name="Capa 1" xmlns="http://www.w3.org/2000/svg" viewBox="0 0 210.5 210.5"><defs><style>.cls-1{fill:none;stroke:#1a1a1a;stroke-miterlimit:10;stroke-width:4px;}.cls-2{fill:#1a1a1a;}.cls-3{fill:#fff;}</style></defs><title>bunk_bed</title><circle class="cls-1" cx="105.25" cy="105.25" r="103.25"/><path class="cls-2" d="M235,176.25h-2.5c-5.33-1.75-5.32-6.12-5-10.6H167.73c0,2.58,0,5.08,0,7.57a3,3,0,0,1-1.5,3H165a2.71,2.71,0,0,1-1.55-2.85c.07-2.56,0-5.13,0-7.73H137.83c0,2.61-.05,5.1,0,7.6a3.14,3.14,0,0,1-1.35,3H135a3.09,3.09,0,0,1-1.45-3.05c.07-1.58,0-3.16,0-4.74v-2.83H125c0,1.51,0,3,0,4.4a6.19,6.19,0,0,1-3.36,5.45c-.53.3-1.11.52-1.66.77h-2.5a7.15,7.15,0,0,1-5.25-5.25V53.5a7.15,7.15,0,0,1,5.25-5.25H120c3.86,1.35,5.28,4.13,5.07,8.12-.18,3.36,0,6.74,0,10.12,0,.29.06.59.11,1.05a15.23,15.23,0,0,1,10.64-4.34h55.1a6.44,6.44,0,0,1,6,3.54c.16.29.47.68.73.69,1.36.07,2.73,0,4.21,0,0-.77,0-1.38,0-2a10.65,10.65,0,0,1,10.9-10.79c2,0,4,.06,6,0,3-.11,5.9.18,8.48,1.93,0,0,.14-.06.25-.11,0-.48,0-1,0-1.48a6.08,6.08,0,0,1,2.34-5.26,19.41,19.41,0,0,1,2.69-1.48H235a7.18,7.18,0,0,1,5.25,5.25V171A7.18,7.18,0,0,1,235,176.25Zm-67.22-44.78h1.48c7.2,0,14.41,0,21.61,0a6.45,6.45,0,0,1,6,3.53c.17.29.47.69.73.7,1.36.07,2.72,0,4.21,0,0-.7,0-1.28,0-1.85.13-6.43,4.6-10.87,11-10.93,2.12,0,4.25.06,6.37,0a12.85,12.85,0,0,1,8,1.92s.15,0,.16,0V97.38H167.78Zm-42.61-51.3h68.1c0-3.65,0-7.23,0-10.8,0-1.26-.93-1.9-2.46-1.9-18.37,0-36.75,0-55.12,0A10.72,10.72,0,0,0,125.17,80.17Zm102.26,4.41H167.82v8.35h59.61Zm0,68.28H167.84v8.34H227.4ZM120.77,112.25V56c0-.41,0-.83,0-1.25a2.14,2.14,0,0,0-2.05-2.23,2.19,2.19,0,0,0-2.2,2.24c0,.29,0,.58,0,.87V168.87c0,2,.69,3.06,2.08,3.11s2.18-1,2.18-3.11Zm111-.13v56.37c0,.42,0,.83,0,1.25a2.14,2.14,0,0,0,2,2.24,2.19,2.19,0,0,0,2.2-2.23c0-.3,0-.59,0-.88V55.63c0-2.08-.76-3.15-2.2-3.11s-2.06,1-2.06,3.11Zm-68.35,8.59V108.05H137.91v12.66Zm29.92,27.75c0-3.39,0-6.68,0-10,0-2.1-.67-2.77-2.75-2.77H168.92c-.37,0-.73,0-1.11.07v12.66Zm-68.2-12.69c.37-.28.62-.46.86-.67a13.8,13.8,0,0,1,6.39-3.21c1-.2,1.24-.56,1.24-1.54,0-10.57,0-21.14,0-31.71,0-.4,0-.81-.06-1.25h-8.4Zm102.33-64H197.66v8.34h29.77Zm-.05,76.63v-8.35H197.63v8.35ZM137.9,93h25.49V84.6H137.9Zm25.5,59.9H137.9v8.34h25.5Zm0-55.47H137.93v6.23h25.46Zm0,34v-6.34H138v6.34Zm64.09-64V66.06c0-4.54-2.56-7.11-7.12-7.12-2.59,0-5.17,0-7.75,0a6.54,6.54,0,0,0-6.28,8.47Zm-21.24,68.2h21.24v-1.34c0-4.47-2.58-7.06-7-7.07-2.37,0-4.74,0-7.11,0a10.18,10.18,0,0,0-2.35.19C207.46,128.25,205.66,131.38,206.23,135.62Zm-68.33,4.3h25.48V135.8H137.9Zm0,4.39v4.1H163.4v-4.1Zm-12.81,4.11h8.35V136.05C128,137,124.5,142.21,125.12,148.42Zm0-63.84v8.35h8.38V84.58Zm0,76.64h8.37v-8.35H125.1Z" transform="translate(-70.34 -8.11)"/><path class="cls-3" d="M232.5,48.25a19.41,19.41,0,0,0-2.69,1.48A6.08,6.08,0,0,0,227.47,55c0,.5,0,1,0,1.48-.11.05-.22.13-.25.11-2.58-1.75-5.47-2-8.48-1.93-2,.08-4,0-6,0a10.65,10.65,0,0,0-10.9,10.79c0,.62,0,1.23,0,2-1.48,0-2.85,0-4.21,0-.26,0-.57-.4-.73-.69a6.44,6.44,0,0,0-6-3.54h-55.1a15.23,15.23,0,0,0-10.64,4.34c-.05-.46-.11-.76-.11-1.05,0-3.38-.15-6.76,0-10.12.21-4-1.21-6.77-5.07-8.12Z" transform="translate(-70.34 -8.11)"/><path class="cls-3" d="M166.25,176.25a3,3,0,0,0,1.5-3c-.07-2.49,0-5,0-7.57h59.79c-.34,4.48-.35,8.85,5,10.6Z" transform="translate(-70.34 -8.11)"/><path class="cls-3" d="M136.5,176.25a3.14,3.14,0,0,0,1.35-3c-.07-2.5,0-5,0-7.6h25.64c0,2.6.05,5.17,0,7.73a2.71,2.71,0,0,0,1.55,2.85Z" transform="translate(-70.34 -8.11)"/><path class="cls-3" d="M120,176.25c.55-.25,1.13-.47,1.66-.77A6.19,6.19,0,0,0,125,170c0-1.44,0-2.89,0-4.4h8.54v2.83c0,1.58.06,3.16,0,4.74a3.09,3.09,0,0,0,1.45,3.05Z" transform="translate(-70.34 -8.11)"/><path class="cls-3" d="M117.5,48.25a7.15,7.15,0,0,0-5.25,5.25V48.25Z" transform="translate(-70.34 -8.11)"/><path class="cls-3" d="M112.25,171a7.15,7.15,0,0,0,5.25,5.25h-5.25Z" transform="translate(-70.34 -8.11)"/><path class="cls-3" d="M235,176.25a7.18,7.18,0,0,0,5.25-5.25v5.25Z" transform="translate(-70.34 -8.11)"/><path class="cls-3" d="M240.25,53.5A7.18,7.18,0,0,0,235,48.25h5.25Z" transform="translate(-70.34 -8.11)"/><path class="cls-3" d="M167.78,131.47V97.38h59.58V124.8s-.12.07-.16,0a12.85,12.85,0,0,0-8-1.92c-2.12.08-4.25,0-6.37,0-6.41.06-10.88,4.5-11,10.93,0,.57,0,1.15,0,1.85-1.49,0-2.85,0-4.21,0-.26,0-.56-.41-.73-.7a6.45,6.45,0,0,0-6-3.53c-7.2,0-14.41,0-21.61,0Z" transform="translate(-70.34 -8.11)"/><path class="cls-3" d="M227.43,84.58v8.35H167.82V84.58Z" transform="translate(-70.34 -8.11)"/><path class="cls-3" d="M227.4,152.86v8.34H167.84v-8.34Z" transform="translate(-70.34 -8.11)"/><path class="cls-3" d="M163.38,120.71H137.91V108.05h25.47Z" transform="translate(-70.34 -8.11)"/><path class="cls-3" d="M193.3,148.46H167.81V135.8c.38,0,.74-.07,1.11-.07h21.62c2.08,0,2.75.67,2.75,2.77C193.3,141.78,193.3,145.07,193.3,148.46Z" transform="translate(-70.34 -8.11)"/><path class="cls-3" d="M125.1,135.77V97.39h8.4c0,.44.06.85.06,1.25,0,10.57,0,21.14,0,31.71,0,1-.26,1.34-1.24,1.54A13.8,13.8,0,0,0,126,135.1C125.72,135.31,125.47,135.49,125.1,135.77Z" transform="translate(-70.34 -8.11)"/><path class="cls-3" d="M227.38,148.44H197.63v-8.35h29.75Z" transform="translate(-70.34 -8.11)"/><path class="cls-3" d="M137.9,93V84.6h25.49V93Z" transform="translate(-70.34 -8.11)"/><path class="cls-3" d="M163.4,152.86v8.34H137.9v-8.34Z" transform="translate(-70.34 -8.11)"/><path class="cls-3" d="M163.39,97.39v6.23H137.93V97.39Z" transform="translate(-70.34 -8.11)"/><path class="cls-3" d="M163.38,131.43H138v-6.34h25.43Z" transform="translate(-70.34 -8.11)"/><path class="cls-3" d="M206.23,135.62c-.57-4.24,1.23-7.37,4.76-8.22a10.18,10.18,0,0,1,2.35-.19c2.37,0,4.74,0,7.11,0,4.44,0,7,2.6,7,7.07v1.34Z" transform="translate(-70.34 -8.11)"/><path class="cls-3" d="M137.9,139.92V135.8h25.48v4.12Z" transform="translate(-70.34 -8.11)"/><path class="cls-3" d="M137.93,144.31H163.4v4.1H137.93Z" transform="translate(-70.34 -8.11)"/><path class="cls-3" d="M125.12,148.42c-.62-6.21,2.91-11.46,8.35-12.37v12.37Z" transform="translate(-70.34 -8.11)"/><path class="cls-3" d="M125.12,84.58h8.38v8.35h-8.38Z" transform="translate(-70.34 -8.11)"/><path class="cls-3" d="M125.1,161.22v-8.35h8.37v8.35Z" transform="translate(-70.34 -8.11)"/></svg>