<svg id="Capa_1" data-name="Capa 1" xmlns="http://www.w3.org/2000/svg" viewBox="0 0 210.5 210.5"><defs><style>.cls-1{fill:none;stroke:#1a1a1a;stroke-miterlimit:10;stroke-width:4px;}.cls-2{fill:#1a1a1a;}</style></defs><title>camera</title><circle class="cls-1" cx="105.25" cy="105.25" r="103.25"/><path class="cls-2" d="M105.2,83a35.57,35.57,0,0,1,2.1-5.76A15.41,15.41,0,0,1,121.56,69h21.26a33.14,33.14,0,0,1,1.54-5.41c2.33-4.87,6.41-7.14,11.73-7.15,13.08,0,26.16-.07,39.24,0,6.37,0,10.89,3.6,12.42,9.47a28.9,28.9,0,0,1,.48,3.08h1.53c6.75,0,13.5,0,20.24,0a15.9,15.9,0,0,1,15.76,12.27,18.74,18.74,0,0,1,.42,4.23c0,21.8-.08,43.6.07,65.4.05,7.85-6.07,16.69-16.4,16.52-4.82-.09-9.64,0-14.46,0q-46.68,0-93.35,0c-6.41,0-11.41-2.55-14.69-8-1-1.76-1.45-3.91-2.15-5.88Zm70.52,77.33q26.72,0,53.41,0a13.49,13.49,0,0,0,3.54-.38c4.19-1.11,6.58-4.65,6.58-9.63q0-32.28,0-64.57a12.1,12.1,0,0,0-.36-3.12c-1-4-4.38-6.46-8.81-6.47-8.35,0-16.7,0-25,0a3.67,3.67,0,0,1-4-3.92c0-1.24,0-2.48,0-3.72a4.92,4.92,0,0,0-5.09-5c-13.45,0-26.89,0-40.33,0l-.28,0a4.85,4.85,0,0,0-4.72,4.5c-.11,1.19-.09,2.38-.09,3.58,0,3.26-1.35,4.6-4.57,4.6-8.16,0-16.33,0-24.5,0-5.43,0-9.1,3.66-9.11,9.07q0,33,0,66.07a9.84,9.84,0,0,0,.89,4.11c1.7,3.58,4.81,4.94,8.65,4.94Z" transform="translate(-70.34 -8.11)"/><path class="cls-2" d="M175.79,85.23a33.08,33.08,0,0,1,32.89,33c0,18.18-15.06,33.15-33.08,32.94a33,33,0,0,1,.19-65.95Zm25.62,33.2a25.71,25.71,0,1,0-25.64,25.66A25.64,25.64,0,0,0,201.41,118.43Z" transform="translate(-70.34 -8.11)"/><path class="cls-2" d="M223.43,98.19A6.52,6.52,0,1,1,230,91.62,6.53,6.53,0,0,1,223.43,98.19Z" transform="translate(-70.34 -8.11)"/></svg>