<svg id="Capa_1" data-name="Capa 1" xmlns="http://www.w3.org/2000/svg" viewBox="0 0 167.62 167.63"><defs><style>.cls-1{fill:#1a1a1a;}</style></defs><title>check_preferences</title><path class="cls-1" d="M189.53,97.9v9.82a9.77,9.77,0,0,0-.28,1.41,77.79,77.79,0,0,1-9.57,33c-15.43,27.46-39,42.36-70.44,44.33a75.68,75.68,0,0,1-38.88-7.76c-29.86-14.85-46.1-39.09-48.29-72.38A77.29,77.29,0,0,1,31.9,63.22C45,39.69,64.79,25.31,91.29,20.31c3.14-.6,6.35-.88,9.53-1.3h9.82a9.44,9.44,0,0,0,1.26.27,78.89,78.89,0,0,1,33.18,9.57c23.61,13,38,32.84,43.13,59.37C188.82,91.41,189.1,94.67,189.53,97.9Zm-83.77,75.61A70.71,70.71,0,1,0,35,102.76,70.73,70.73,0,0,0,105.76,173.51Z" transform="translate(-21.9 -19.01)"/><path class="cls-1" d="M94.56,115.76a11,11,0,0,1,1.14-1.71q18.54-18.58,37.12-37.15a7.22,7.22,0,0,1,5.27-2.57,6.27,6.27,0,0,1,5.83,3.53,6.16,6.16,0,0,1-.51,6.79,12.35,12.35,0,0,1-1.4,1.59L99.68,128.58c-3.69,3.68-7.22,3.67-10.91,0q-9.84-9.82-19.66-19.67c-2.44-2.45-3-5.36-1.59-8,2.13-4.07,7.27-4.72,10.77-1.28,4.89,4.82,9.72,9.71,14.58,14.57C93.28,114.57,93.72,115,94.56,115.76Z" transform="translate(-21.9 -19.01)"/></svg>