<svg id="Capa_1" data-name="Capa 1" xmlns="http://www.w3.org/2000/svg" viewBox="0 0 210.5 210.5"><defs><style>.cls-1{fill:none;stroke:#1a1a1a;stroke-miterlimit:10;stroke-width:4px;}.cls-2{fill:#1a1a1a;}</style></defs><title>couples</title><circle class="cls-1" cx="105.25" cy="105.25" r="103.25"/><path class="cls-2" d="M161.38,96.46c-.39,2.2-.66,4.43-1.19,6.59a42.78,42.78,0,0,1-7.69,15.48c-5.4,7.23-12,13.35-18.74,19.24q-12,10.42-24,20.76c-3.08,2.65-6.39,2.76-9.36.19-10.45-9.06-20.91-18.08-31.23-27.28a79.21,79.21,0,0,1-14-16c-7-10.76-8.86-22.28-4.44-34.4,4-11,11.73-18.12,23.37-20.36,12.05-2.33,21.76,2,29.47,11.28.38.45.73.92,1.09,1.39l.29.24c.42-.53.83-1.07,1.26-1.6,4.47-5.47,9.92-9.48,16.89-11.13a30.56,30.56,0,0,1,32.08,12.52,35.65,35.65,0,0,1,6,16.83c0,.39.14.78.2,1.17ZM104.87,153.9l.74-.58c8.92-7.72,17.91-15.37,26.76-23.18,6.18-5.45,12.06-11.22,16.64-18.16,4.36-6.6,6.51-13.78,5.51-21.73-1.07-8.57-4.75-15.7-12.37-20.18C135.05,65.9,127.56,65.38,120,69c-4.46,2.14-7.76,5.63-10.51,9.67-.39.58-.74,1.18-1.16,1.74a4.13,4.13,0,0,1-6.9,0,71.05,71.05,0,0,0-4.91-6.35c-5.92-6.25-13.22-8.67-21.64-6.85-9.09,2-15.05,7.72-18.07,16.38-3.52,10.07-1.84,19.54,4,28.37a76.21,76.21,0,0,0,12.84,14.63c8,7.2,16.18,14.22,24.28,21.31C100.21,149.92,102.53,151.89,104.87,153.9Z"/></svg>