<svg id="Capa_1" data-name="Capa 1" xmlns="http://www.w3.org/2000/svg" viewBox="0 0 210.5 210.5"><defs><style>.cls-1{fill:none;stroke:#1a1a1a;stroke-miterlimit:10;stroke-width:4px;}.cls-2{fill:#1a1a1a;}</style></defs><title>dishwasher</title><circle class="cls-1" cx="105.25" cy="105.25" r="103.25"/><path class="cls-2" d="M120.4,47.7H228.16c.07,0,.13.13.2.15,5.39,1.54,7.8,4.72,7.8,10.31q0,55.68,0,111.35c0,6.18-4,10.18-10.13,10.18H122.54a12.69,12.69,0,0,1-2.05-.12c-5-.85-8.08-4.69-8.08-9.93q0-55.93,0-111.86c0-.26,0-.52,0-.78a9.14,9.14,0,0,1,4.36-7.74A24.5,24.5,0,0,1,120.4,47.7ZM232,76.66H116.53v92.61c0,4.25,2,6.3,6.32,6.3H225.57c4.45,0,6.46-2,6.46-6.42V76.66Zm0-4.26c0-5.29.07-10.44,0-15.59a5.25,5.25,0,0,0-5.53-5H122.08a5.33,5.33,0,0,0-5.54,5.52c0,4.72,0,9.45,0,14.17a6.91,6.91,0,0,0,.09.88Z" transform="translate(-70.34 -8.11)"/><path class="cls-2" d="M174.28,84.82c12.28,0,24.57,0,36.86,0a14.37,14.37,0,0,1,14.31,11.25,16.37,16.37,0,0,1,.38,3.7q0,26.35,0,52.71A14.45,14.45,0,0,1,211,167.32q-36.72,0-73.46,0a14.46,14.46,0,0,1-14.83-14.83q0-26.42,0-52.84a14.43,14.43,0,0,1,14.82-14.82C149.79,84.8,162,84.82,174.28,84.82Zm-28.1,70.09c0-.08,0-.14-.05-.15-.21,0-.42-.08-.62-.14-4.59-1.37-7.49-4.36-8.17-9.11a43.7,43.7,0,0,1-.13-7.33c0-1.14,1-1.79,2.28-1.79H169.9a2.07,2.07,0,0,1,2.31,2.32c0,1.84.07,3.69,0,5.54a10.64,10.64,0,0,1-5.5,9.18,32.69,32.69,0,0,1-3.44,1.48h22.11a2.33,2.33,0,0,0-.8-.34c-4.64-1.42-7.45-4.53-8.09-9.33a43.53,43.53,0,0,1-.09-7c0-1.21.93-1.9,2.3-1.9H209.1a2.07,2.07,0,0,1,2.3,2.33c0,1.89,0,3.78,0,5.67a11,11,0,0,1-7.61,10c-.45.14-.92.26-1.65.46h19.46V122c-2.9,0-5.77,0-8.64,0a1.77,1.77,0,0,0-1.08.72,18.55,18.55,0,0,1-21.3,6.36,2.62,2.62,0,0,0-1.59,0,19,19,0,0,1-12.88,0,2.51,2.51,0,0,0-1.58,0,19,19,0,0,1-12.88,0,2.58,2.58,0,0,0-1.58,0,18.65,18.65,0,0,1-21.32-6.38,2.16,2.16,0,0,0-1.45-.72c-2.32-.08-4.64,0-7,0h-3.48c0,11.1,0,22,0,33Zm75.54-37.15v-1.19c0-5.58,0-11.16,0-16.75,0-6.44-4.42-10.87-10.84-10.87q-36.58,0-73.19,0c-6.42,0-10.83,4.43-10.84,10.86q0,8.37,0,16.75v1.2H136a44.8,44.8,0,0,1-.82-5.11,18.57,18.57,0,0,1,24.79-18.51,2.75,2.75,0,0,0,1.7.06,19.12,19.12,0,0,1,12.88,0,2.75,2.75,0,0,0,1.7,0,19.28,19.28,0,0,1,12.64,0,3.05,3.05,0,0,0,1.82,0A18.57,18.57,0,0,1,215.3,114.3c-.16,1.16-.46,2.3-.7,3.46Zm-76.37.06c-.27-.46-.42-.7-.56-1-2.14-3.92-2-7.8.64-11.37A9.82,9.82,0,0,1,156,101.61a10.3,10.3,0,0,1,7.94,9.74c0,1.75-1.45,2.81-2.9,2.13a2.33,2.33,0,0,1-1.25-2.21,6.18,6.18,0,1,0-6.18,6.53c4,.06,7.9,0,11.85,0a1.56,1.56,0,0,0,1.74-1.23,14.44,14.44,0,1,0-27.42-.91c.62,2.11.62,2.11,2.87,2.11Zm74.2,41.33H129c.4.45.64.79.94,1.07a10.75,10.75,0,0,0,7.83,3q36.48,0,72.95,0c.43,0,.86,0,1.28,0A10.4,10.4,0,0,0,219.55,159.15Zm-78.27-18.58v3a6.91,6.91,0,0,0,7.28,7.26q6.12,0,12.24,0a7.11,7.11,0,0,0,1.66-.13c4.73-1.07,6.35-5,5.43-10.11Zm39.19,0c0,1.26,0,2.38,0,3.49a6.82,6.82,0,0,0,6.73,6.75c4.47.06,8.93,0,13.39,0a6.38,6.38,0,0,0,6.16-4.45,36.37,36.37,0,0,0,.7-5.79ZM165.74,97.41c1,1.08,1.75,2.06,2.64,2.91a4.56,4.56,0,0,0,1.94,1.22,10.31,10.31,0,0,1,8,9.64,2.9,2.9,0,0,1-.82,2,2.15,2.15,0,0,1-2,.24,2.88,2.88,0,0,1-1.25-1.86,6.83,6.83,0,0,0-2.8-5,19.36,19.36,0,0,1-.37,11.3c3.09,0,6.05,0,9,0a1.25,1.25,0,0,0,1.38-1,14.43,14.43,0,0,0-6.11-17.65A14.08,14.08,0,0,0,165.74,97.41Zm20.08,20.41c2.89,0,5.81,0,8.72,0a1.33,1.33,0,0,0,1.48-1,14.44,14.44,0,0,0-10.53-19.29,39.43,39.43,0,0,0-5.12-.34,14.52,14.52,0,0,0,2.46,3.13,4.49,4.49,0,0,0,1.93,1.23,10.45,10.45,0,0,1,8.08,9.79,2.12,2.12,0,0,1-2.28,2.35c-1.09-.13-1.74-.91-1.85-2.27a6,6,0,0,0-2.49-4.67,48.13,48.13,0,0,1,.38,5.49A51,51,0,0,1,185.82,117.82Zm8.85-20.37c.89,1,1.76,1.83,2.47,2.78a3.29,3.29,0,0,0,2.16,1.39,10.26,10.26,0,0,1,8,9.7,2.11,2.11,0,0,1-2.26,2.36c-1.09-.12-1.75-.91-1.86-2.26a6.23,6.23,0,0,0-2.75-4.87,19.52,19.52,0,0,1-.34,11.27c3.07,0,6,0,8.91,0a1.33,1.33,0,0,0,1.48-1,14.46,14.46,0,0,0-9.63-19.09A12.38,12.38,0,0,0,194.67,97.45Zm-31.14,24.61H143.79A14.26,14.26,0,0,0,163.53,122.06Zm2.34,3.71c3.33,1,9.87-.71,12-3.82-2.72,0-5.42,0-8.11,0a1.39,1.39,0,0,0-.88.36C167.84,123.43,166.89,124.57,165.87,125.77ZM192.38,122c-2.85,0-5.61,0-8.37,0a1.21,1.21,0,0,0-.74.38c-1,1.11-1.94,2.25-2.9,3.38C183.45,126.92,189.94,125.07,192.38,122Zm14.69,0c-3.11,0-5.85,0-8.58,0a1,1,0,0,0-.68.25c-1,1.17-2,2.37-3.14,3.69A14.78,14.78,0,0,0,207.07,122Z" transform="translate(-70.34 -8.11)"/><path class="cls-2" d="M174.16,68.32c-2.15,0-4.3,0-6.44,0-3.48,0-5.81-2.54-5.81-6.17S164.23,56,167.7,56q6.57,0,13.14,0c3.48,0,5.82,2.54,5.82,6.18s-2.33,6.14-5.8,6.18C178.62,68.34,176.39,68.32,174.16,68.32Zm.08-4.13c2.1,0,4.2,0,6.3,0,1.45,0,2-.59,2-2.06s-.53-2.05-2-2.05q-6.24,0-12.47,0c-1.49,0-2,.56-2.05,2s.53,2.12,2,2.13C170.13,64.21,172.19,64.2,174.24,64.19Z" transform="translate(-70.34 -8.11)"/><path class="cls-2" d="M131,62c0-.69,0-1.38,0-2.06A2,2,0,0,1,133,58a2,2,0,0,1,2,1.92c.07,1.45.07,2.92,0,4.38a2,2,0,0,1-2,1.93,2,2,0,0,1-2-1.92C130.93,63.56,131,62.78,131,62Z" transform="translate(-70.34 -8.11)"/><path class="cls-2" d="M143.34,62.24c0,.65,0,1.29,0,1.94a2.05,2.05,0,0,1-2,2.07,2,2,0,0,1-2.06-2c-.06-1.37-.05-2.75,0-4.12a2.05,2.05,0,0,1,4.1,0C143.37,60.78,143.34,61.51,143.34,62.24Z" transform="translate(-70.34 -8.11)"/><path class="cls-2" d="M151.58,62.13c0,.73,0,1.46,0,2.19a2,2,0,0,1-2,1.93,2,2,0,0,1-2-1.92c-.07-1.46-.07-2.93,0-4.38a2,2,0,0,1,2-1.93,2,2,0,0,1,2,1.92C151.63,60.66,151.58,61.4,151.58,62.13Z" transform="translate(-70.34 -8.11)"/><path class="cls-2" d="M201.08,62.12c0,.73,0,1.46,0,2.19a2,2,0,0,1-2,1.94,2,2,0,0,1-2-1.91c-.07-1.46-.07-2.93,0-4.38A2,2,0,0,1,199,58a2,2,0,0,1,2,1.91C201.13,60.65,201.08,61.39,201.08,62.12Z" transform="translate(-70.34 -8.11)"/><path class="cls-2" d="M205.24,62.07a17.77,17.77,0,0,1,0-2.19,2,2,0,0,1,4.06,0,42.41,42.41,0,0,1,0,4.51,2,2,0,0,1-4.06,0A19.94,19.94,0,0,1,205.24,62.07Z" transform="translate(-70.34 -8.11)"/><path class="cls-2" d="M217.58,62.12c0,.73,0,1.46,0,2.19a2,2,0,0,1-2,1.94,2,2,0,0,1-2-1.91c-.07-1.46-.07-2.93,0-4.38a2,2,0,0,1,2-1.94,2,2,0,0,1,2,1.91C217.63,60.65,217.58,61.39,217.58,62.12Z" transform="translate(-70.34 -8.11)"/></svg>