<svg id="Capa_1" data-name="Capa 1" xmlns="http://www.w3.org/2000/svg" viewBox="0 0 210.5 210.5"><defs><style>.cls-1{fill:none;stroke:#1a1a1a;stroke-miterlimit:10;stroke-width:4px;}.cls-2{fill:#1a1a1a;}</style></defs><title>doorman</title><circle class="cls-1" cx="105.25" cy="105.25" r="103.25"/><path class="cls-2" d="M197.72,184.42c-2.38-2.45-4.69-5-7.16-7.32a6.1,6.1,0,0,1-2-5c.12-5.2,0-10.4,0-15.6a9.85,9.85,0,0,1,.06-1.44,2.12,2.12,0,0,1,4.19-.12,9.19,9.19,0,0,1,.1,1.58c0,5.15,0,10.31,0,15.46a3.63,3.63,0,0,0,.82,2.15c1.42,1.69,3,3.26,4.7,5.09,1.9-1.95,3.79-3.79,5.53-5.76.39-.44.2-1.36.33-2.05a4.82,4.82,0,0,0-2.69-5.56,21.79,21.79,0,0,1-3.31-2.55,2.15,2.15,0,0,1,.06-3.66c1.45-1.17,2.94-2.3,4.56-3.56-1.5-1.17-2.89-2.25-4.27-3.34-1.82-1.43-1.8-2.75,0-4.2,1.32-1.05,2.65-2.08,4-3.13a2.12,2.12,0,0,0,.17-.26c-1.37-1.07-2.77-2.14-4.15-3.23-1.83-1.43-1.84-2.79,0-4.2,1.55-1.22,3.08-2.47,4.69-3.62a2.18,2.18,0,0,0,1-2.05c0-3.32,0-6.65,0-10a2.87,2.87,0,0,1,2.14-3.13,24.27,24.27,0,0,0,14.85-30.84c-.6-1.85-.05-3.17,1.41-3.43,1.24-.22,2.16.38,2.65,1.89,3,9.31,1.85,18.06-3.73,26.13a27.07,27.07,0,0,1-11.85,9.59,1.57,1.57,0,0,0-1.13,1.71c.06,3.13,0,6.27.05,9.4a3.58,3.58,0,0,1-1.7,3.39c-1.31.9-2.52,1.93-3.92,3l3.92,3c2.3,1.8,2.31,3,0,4.77l-3.95,3c1.58,1.22,3,2.33,4.46,3.47s1.55,2.68,0,4c-1.39,1.11-2.8,2.2-4.2,3.3,0,0,0,.08-.08.24,1.33,1,2.67,2.11,4.06,3.14a3.07,3.07,0,0,1,1.4,2.81c-.07,2.07,0,4.14,0,6.21a3.17,3.17,0,0,1-.71,1.94c-2.9,2.95-5.88,5.81-8.84,8.7Z" transform="translate(-70.34 -8.11)"/><path class="cls-2" d="M181.16,119.43c-2.11-2.33-4.15-4.61-6.26-6.83a3.2,3.2,0,0,0-1.51-.7,17,17,0,0,1-12.76-16.57,16.82,16.82,0,0,1,13-16.5,7.26,7.26,0,0,0,3.81-2.25c1.65-1.73,3.54-3.22,5.52-5-1-.15-1.92-.39-2.87-.44-9.82-.6-17.75,3-22.95,11.36s-5.05,17.14-.07,25.72c1,1.75,1,2.39-.28,3.69l-20.44,20.44c-1.16,1.16-2.51,1.25-3.42.29s-.76-2.18.33-3.31c.23-.25.47-.48.71-.72q8.9-8.89,17.79-17.78a9.45,9.45,0,0,1,1-.8c-.93-2.39-1.94-4.48-2.56-6.67a28.13,28.13,0,0,1,3-22.92,2.3,2.3,0,0,0,.17-2.38,29.87,29.87,0,1,1,57.3-10.81A4.08,4.08,0,0,0,213,71.52a53,53,0,0,1,7.27,6.08,2.07,2.07,0,0,1,0,3.29c-1,.87-2.2.72-3.27-.51a24.58,24.58,0,0,0-7-5.7c-1.22,2.51-2.43,4.94-3.55,7.42a1.77,1.77,0,0,0,.28,1.36,9.63,9.63,0,1,1-5.51-4.11c.46.13.9.29,1.64.52,1-2.27,2-4.52,3-6.91a22.87,22.87,0,0,0-8.66-1.21A24.34,24.34,0,0,0,190.31,119c2.5.87,2.68,1.12,2.68,3.72v22.69c0,.28,0,.57,0,.86-.07,1.56-.92,2.54-2.19,2.54s-2.13-1-2.14-2.55c0-7.09,0-14.17,0-21.25,0-2.54-.44-2.86-2.91-2.17a28.48,28.48,0,0,1-21.43-2.15l-.76-.4-17.21,17.23c.92.91,2,1.9,3,2.92A7.4,7.4,0,1,1,138.85,151c-1-1-2-2.06-3.09-3.14l-2.68,2.73c1.06,1,2.12,1.89,3.09,2.88A7.41,7.41,0,1,1,125.77,164c-1-1-2-2-3.14-3.18-1.56,1.59-3,3.16-4.57,4.64a7.37,7.37,0,0,1-10.81-10c6.39-6.61,13-13.06,19.48-19.55a2.16,2.16,0,0,1,3.11-.08,2.26,2.26,0,0,1-.26,3.33q-6.93,7-13.89,13.9c-1.5,1.5-3,3-4.5,4.5-1.7,1.71-1.9,3.6-.53,4.92s3.13,1.14,4.81-.53,3.54-3.56,5.32-5.31c1.32-1.3,2.41-1.29,3.74,0s2.72,2.74,4.1,4.08c1.53,1.48,3.31,1.56,4.6.25s1.19-3.08-.3-4.6-2.73-2.72-4.08-4.1-1.26-2.41-.06-3.64c1.68-1.72,3.39-3.42,5.11-5.11,1.27-1.24,2.34-1.23,3.63,0s2.79,2.81,4.2,4.19,3.2,1.5,4.5.24,1.24-3.12-.2-4.61-2.73-2.72-4.08-4.09-1.34-2.45-.06-3.74q9.65-9.67,19.32-19.31c1.16-1.16,1.95-1.2,3.47-.27A24.14,24.14,0,0,0,181.16,119.43ZM157.09,75.32c.15-.12.31-.23.45-.35q13.44-12.28,30.64-6.3a3.22,3.22,0,0,0,1.79,0,27.77,27.77,0,0,1,11.42-1c1.65.22,3.28.52,4.92.78,1.28-9.86-4.73-20.42-14.23-25a25.52,25.52,0,0,0-29.53,5.22C154.89,56.4,153.79,67.77,157.09,75.32Zm8.39,16.75c-1.73,5.26,1.08,12,5.88,14.21a1,1,0,0,0,0-.42,30.34,30.34,0,0,1-1.72-11,1.31,1.31,0,0,0-.61-1C167.94,93.24,166.76,92.7,165.48,92.07Zm37.71-5.56c-1.25,1.11-2.44,2.27-3.74,3.3s-2.69,1.9-4.06,2.86a5,5,0,0,0,6.53-.1A4.86,4.86,0,0,0,203.19,86.51Zm-3.43-2.61-.22-.45A4.89,4.89,0,0,0,195,84.73a3.81,3.81,0,0,0-1.31,4Zm-27.55.18-.3-.36L167,87.91l3.3,1.72C171,87.68,171.59,85.88,172.21,84.08Z" transform="translate(-70.34 -8.11)"/></svg>