<svg id="Capa_1" data-name="Capa 1" xmlns="http://www.w3.org/2000/svg" viewBox="0 0 210.5 210.5"><defs><style>.cls-1{fill:none;stroke:#1a1a1a;stroke-miterlimit:10;stroke-width:4px;}.cls-2{fill:#1a1a1a;}</style></defs><title>double_bed</title><circle class="cls-1" cx="105.25" cy="105.25" r="103.25"/><path class="cls-2" d="M240.36,127.24v35a1.44,1.44,0,0,0-.19.31c-1.44,5.71-5.87,8.93-11.47,8.24a10.21,10.21,0,0,1-8.79-10.72c0-.83,0-1.65,0-2.49h-88.1c0,1.1,0,2.11,0,3.11a10.22,10.22,0,1,1-20.44-.13c0-10.33-.06-20.66,0-31a26.8,26.8,0,0,1,6.89-17.93,3.13,3.13,0,0,0,.83-2.24q0-19.73,0-39.43a17.74,17.74,0,0,1,18.16-18.17q38.35,0,76.72,0a19.34,19.34,0,0,1,4.36.46A17.71,17.71,0,0,1,232.1,69.9q.06,19.53,0,39.06a2.82,2.82,0,0,0,.81,2.12,26.8,26.8,0,0,1,6.72,12.61C239.9,124.87,240.12,126.06,240.36,127.24Zm-124,10.18h67.2a10.22,10.22,0,0,1,1.75.09,2.46,2.46,0,0,1,0,4.86,11.41,11.41,0,0,1-1.76.08H116.46v9.93H235.24v-9.93h-24a11.06,11.06,0,0,1-1.63-.08,2.38,2.38,0,0,1-2-2.36c0-1.61,1.06-2.59,3-2.59h24.74c0-2.51,0-4.85,0-7.2a22.64,22.64,0,0,0-22.73-23q-36.72-.14-73.44,0a22.71,22.71,0,0,0-21.9,16.54C116,128.2,116.54,132.73,116.39,137.42Zm7.81-31c1.58-.76,3-1.51,4.44-2.12a1.26,1.26,0,0,0,.9-1.4c0-2.56-.07-5.13,0-7.69a13.22,13.22,0,0,1,12.77-13.06c7.76-.2,15.53-.1,23.29,0a12.44,12.44,0,0,1,8.5,3.6c.61.56,1.14,1.2,1.77,1.86l.62-.68a13,13,0,0,1,10.13-4.81c7.35,0,14.69-.12,22,0,7.94.14,13.49,6,13.53,13.89,0,2.31,0,4.62,0,6.93,0,.38.09,1,.33,1.09,1.44.75,2.93,1.38,4.47,2.09,0-.42,0-.74,0-1.07q0-17.44,0-34.9a15.45,15.45,0,0,0-.19-2.63c-1.21-6.45-6.37-10.6-13.21-10.6q-38,0-76.08,0a15.83,15.83,0,0,0-3,.21,12.66,12.66,0,0,0-10.43,12.71c-.07,11.92,0,23.85,0,35.77C124.14,105.81,124.17,106.05,124.2,106.39Zm10.26-4.18h38.88c0-2.24,0-4.21,0-6.17,0-5.39-3.48-8.92-8.87-9-4.28,0-8.57,0-12.85,0-3.1,0-6.21-.07-9.31.08a7.84,7.84,0,0,0-7.41,6.29A77.68,77.68,0,0,0,134.46,102.21Zm82.58.06a69.06,69.06,0,0,0-.06-8,8.06,8.06,0,0,0-8-7.17c-1-.06-2,0-3,0-6.26,0-12.51,0-18.76,0-4.24,0-7.74,2.35-8.46,6.13-.54,2.88-.37,5.89-.53,9.06ZM116.43,157.55c0,1.34-.09,2.55,0,3.75a5.12,5.12,0,0,0,4.76,4.55,5,5,0,0,0,5.39-3.92,25.53,25.53,0,0,0,0-4.38Zm118.88,0H225c0,1.16,0,2.25,0,3.33a5.17,5.17,0,0,0,10.33.15C235.37,160,235.31,158.82,235.31,157.59Z" transform="translate(-70.34 -8.11)"/><path class="cls-2" d="M195,139.92a2.47,2.47,0,0,1,2.48-2.48,2.55,2.55,0,0,1,2.53,2.47,2.51,2.51,0,0,1-2.58,2.52A2.44,2.44,0,0,1,195,139.92Z" transform="translate(-70.34 -8.11)"/></svg>