<svg id="Capa_1" data-name="Capa 1" xmlns="http://www.w3.org/2000/svg" viewBox="0 0 210.5 210.5"><defs><style>.cls-1{fill:none;stroke:#1a1a1a;stroke-miterlimit:10;stroke-width:4px;}.cls-2{fill:#1a1a1a;}</style></defs><title>dryer</title><circle class="cls-1" cx="105.25" cy="105.25" r="103.25"/><path class="cls-2" d="M129.42,170.59A14.76,14.76,0,0,1,117,144.87a2.79,2.79,0,0,0,1.11-2.44q-.06-23.66,0-47.32a8.4,8.4,0,0,1,8.82-8.6c.52,0,1,.13,1.72.21V57.61c0-6.75,4.47-11.2,11.25-11.2h78.82c6.69,0,11.18,4.47,11.18,11.14V166c0,6.67-4.49,11.15-11.16,11.16-26,0-51.94-.05-77.9,0C135.64,177.25,131.72,175.49,129.42,170.59ZM225.7,76H132.89c0,4.35,0,8.6,0,12.86a1.74,1.74,0,0,0,.34,1,9.22,9.22,0,0,1,1.76,5.8c0,15.64,0,31.28,0,46.92a2.54,2.54,0,0,0,1,2.22,14.68,14.68,0,0,1-1.52,23.77l-1,.68a6.63,6.63,0,0,0,6.48,3.75q39.21,0,78.42,0c4.93,0,7.34-2.42,7.34-7.37V76Zm-92.79-4.39H225.7c0-4.68,0-9.29,0-13.89s-2.51-7.12-7.18-7.12q-39.2,0-78.4,0c-.44,0-.88,0-1.32,0A6.17,6.17,0,0,0,133,56.39C132.82,61.43,132.91,66.48,132.91,71.64ZM122.42,95h4.07v4.19h-4v4.23h4v4.2h-4v4.24h4.08v4.2h-4.16v1.57c0,8.87,0,17.75,0,26.62a3.36,3.36,0,0,1-1.68,3.14,10.52,10.52,0,1,0,11.77,0,3.44,3.44,0,0,1-1.7-3.26q.06-24,0-48.1c0-.44,0-.88,0-1.32a4.27,4.27,0,0,0-4.24-4A4.19,4.19,0,0,0,122.42,95Z" transform="translate(-70.34 -8.11)"/><path class="cls-2" d="M139.22,124.45A40.08,40.08,0,1,1,179,164.53,40.09,40.09,0,0,1,139.22,124.45Zm4.22,0a35.86,35.86,0,1,0,35.94-35.81A35.88,35.88,0,0,0,143.44,124.4Z" transform="translate(-70.34 -8.11)"/><path class="cls-2" d="M213,69.61a8.44,8.44,0,1,1,8.51-8.26A8.46,8.46,0,0,1,213,69.61ZM213.81,57a4.11,4.11,0,0,0-4.1,1.59,3.66,3.66,0,0,0-.76,3.29Zm3.36,3.52-4.54,4.75C215.35,65.69,217.51,63.54,217.17,60.55Z" transform="translate(-70.34 -8.11)"/><path class="cls-2" d="M183.51,61.13a6.33,6.33,0,1,1-6.3-6.28A6.35,6.35,0,0,1,183.51,61.13Zm-6.35-2.06a2.1,2.1,0,1,0,2.13,2A2.11,2.11,0,0,0,177.16,59.07Z" transform="translate(-70.34 -8.11)"/><path class="cls-2" d="M194.07,54.85a6.32,6.32,0,1,1-6.33,6.38A6.35,6.35,0,0,1,194.07,54.85Zm0,4.22a2.1,2.1,0,1,0,2.12,2A2.12,2.12,0,0,0,194,59.07Z" transform="translate(-70.34 -8.11)"/><path class="cls-2" d="M137.17,67.43V54.94h4.08V67.43Z" transform="translate(-70.34 -8.11)"/><path class="cls-2" d="M145.61,67.41V54.91h4.06v12.5Z" transform="translate(-70.34 -8.11)"/><path class="cls-2" d="M158.13,67.44h-4V54.93h4Z" transform="translate(-70.34 -8.11)"/><path class="cls-2" d="M126.59,162.41a6.32,6.32,0,1,1,6.29-6.41A6.35,6.35,0,0,1,126.59,162.41Zm-.07-4.22a2.1,2.1,0,1,0-2.06-2.11A2.12,2.12,0,0,0,126.52,158.19Z" transform="translate(-70.34 -8.11)"/><path class="cls-2" d="M202.5,124.46c0,6.63,0,13.26,0,19.89a3.47,3.47,0,0,1-1.18,2.78c-9.17,8.45-19.83,11.17-31.68,7.36s-19.22-12.24-21.45-24.55a31.35,31.35,0,0,1,26.43-36.76c10.27-1.51,19.28,1.47,26.76,8.73a3.9,3.9,0,0,1,1,2.52C202.54,111.1,202.5,117.78,202.5,124.46Zm-4.22,0c0-6.23,0-12.47,0-18.7a2.65,2.65,0,0,0-.78-1.78,26.29,26.29,0,0,0-22.58-6.58,27.15,27.15,0,0,0-22.47,32.18c2,10.2,8.07,17.27,17.87,20.69s19,1.5,27.09-5.21a2.34,2.34,0,0,0,.92-2C198.26,136.86,198.28,130.66,198.28,124.47Z" transform="translate(-70.34 -8.11)"/><path class="cls-2" d="M172.66,133.59a10.32,10.32,0,0,0-1.32.95c-.61.63-1.17,1.31-1.9,2.14a47.49,47.49,0,0,1-3.75-4.18,7,7,0,0,1,.87-8.84c3-3.25,3-3.85-.13-7a11.36,11.36,0,0,0-1.42-1l3.24-3.23a40.89,40.89,0,0,1,3.59,4,7,7,0,0,1-.6,8.44c-.45.53-1,1-1.46,1.52a3,3,0,0,0,0,4.53C170.61,131.76,171.48,132.5,172.66,133.59Z" transform="translate(-70.34 -8.11)"/><path class="cls-2" d="M182.87,133.3l-3,3.22a42.48,42.48,0,0,1-3.62-4.06,7,7,0,0,1,.67-8.54c.43-.49.92-.94,1.37-1.42a2.94,2.94,0,0,0,0-4.53c-.83-.84-1.77-1.56-2.67-2.35.45-.5.65-.73.86-1,.69-.74,1.39-1.47,2.28-2.4a43.76,43.76,0,0,1,3.83,4.46,6.86,6.86,0,0,1-.79,8.2c-.48.57-1.05,1.06-1.55,1.62a2.9,2.9,0,0,0,0,4.24C181.05,131.68,182,132.48,182.87,133.3Z" transform="translate(-70.34 -8.11)"/><path class="cls-2" d="M186,115.64l3.18-3c3.74,2.85,5.65,5.58,4.53,9.35a10.85,10.85,0,0,1-2.46,3.93c-1.88,2.12-2,3.44,0,5.41.69.68,1.44,1.29,2.22,2l-3.3,3a38.51,38.51,0,0,1-3.37-3.7,6.79,6.79,0,0,1,.87-8.92c2.51-2.37,3.2-4.07-.2-7C187.08,116.31,186.58,116,186,115.64Z" transform="translate(-70.34 -8.11)"/></svg>