<svg id="Capa_1" data-name="Capa 1" xmlns="http://www.w3.org/2000/svg" viewBox="0 0 210.5 210.5"><defs><style>.cls-1{fill:none;stroke:#1a1a1a;stroke-miterlimit:10;stroke-width:4px;}.cls-2{fill:#1a1a1a;}</style></defs><title>elevator</title><circle class="cls-1" cx="105.25" cy="105.25" r="103.25"/><path class="cls-2" d="M223.75,177.25h-97a23.53,23.53,0,0,1-3.57-1.37c-3.91-2.23-5.54-5.71-5.53-10.17q0-52.45,0-104.92c0-.5,0-1,0-1.49a10.3,10.3,0,0,1,2.1-5.78,11.75,11.75,0,0,1,7-4.27h97a1.09,1.09,0,0,0,.31.18c5.7,1.39,8.77,5.23,8.77,11.11q0,52.71,0,105.42c0,5.87-3.06,9.71-8.77,11.1A1.44,1.44,0,0,0,223.75,177.25ZM143.33,145c-5.18,1.27-8.92-2.39-8.67-7.43.29-5.7.07-11.42.07-17.12s3.48-9.28,9.23-9.3q7.95,0,15.88,0c1.95,0,3.92,0,5.87.13a8.07,8.07,0,0,1,7.29,7.51c.16,6.87.12,13.75,0,20.62a5.88,5.88,0,0,1-4.82,5.64,19.85,19.85,0,0,1-3.72,0v27.87H186V145.1a2.4,2.4,0,0,0-.46-.09c-5.07.73-8.12-1.88-8.13-7q0-8.82,0-17.63c0-5.78,3.49-9.28,9.24-9.3q5.75,0,11.5,0c3.33,0,6.67-.1,10,.11a8.23,8.23,0,0,1,7.62,8.15c.07,6.54,0,13.08,0,19.62a6.12,6.12,0,0,1-5,6,19.43,19.43,0,0,1-3.6,0V172.9H220V90.43c0-2.13-.66-2.76-2.89-2.76H133.39c-2.33,0-2.92.61-2.92,3V172.9h12.86ZM126.2,172.42v-1.48q0-40.06,0-80.12a11.36,11.36,0,0,1,.2-2.61c.75-3,3.22-4.81,6.72-4.81q12.38,0,24.75,0,29.55,0,59.12,0a7.34,7.34,0,0,1,4.73,1.27,6.84,6.84,0,0,1,2.58,5.92q0,40.19,0,80.37v1.59a8.23,8.23,0,0,0,.82-.3,6.54,6.54,0,0,0,3.45-6.18q0-52.76,0-105.5c0-4.48-2.58-7-7.07-7H129a9.15,9.15,0,0,0-1.74.11c-3.37.61-5.32,3.16-5.32,6.94V165.93a12.54,12.54,0,0,0,.06,1.5A5.91,5.91,0,0,0,126.2,172.42Zm21.31-24v21.5a7.47,7.47,0,0,0,0,1.25,2.11,2.11,0,0,0,4.2-.15,10.47,10.47,0,0,0,0-1.12c0-7.92,0-15.84,0-23.75a4.88,4.88,0,0,1,.23-1.71,1.89,1.89,0,0,1,2.21-1.22,1.94,1.94,0,0,1,1.76,1.69,6.93,6.93,0,0,1,.05,1.37v23.62c0,2.08.76,3.16,2.21,3.12s2-1,2.06-3.11q0-21.43,0-42.87a5.21,5.21,0,0,1,.21-1.72,1.9,1.9,0,0,1,2.16-1.31,1.92,1.92,0,0,1,1.84,1.73,7.93,7.93,0,0,1,.05,1.38c0,3.83,0,7.66,0,11.5a2.18,2.18,0,0,0,2.15,2.4,2.11,2.11,0,0,0,2.09-2.32c0-6.38,0-12.75,0-19.13a4,4,0,0,0-4-4.09q-10.87-.1-21.75,0a4.05,4.05,0,0,0-4,4.23c0,2.5,0,5,0,7.5,0,3.83,0,7.67,0,11.5a2.13,2.13,0,1,0,4.24,0c0-.71,0-1.42,0-2.13,0-3.41,0-6.83,0-10.25a2.13,2.13,0,1,1,4.25-.06c0,.34,0,.67,0,1Zm55.48,0V126.64c0-1.76.72-2.66,2.09-2.69s2.17.93,2.17,2.73v11.63c0,1.66.82,2.67,2.13,2.67s2.13-1,2.13-2.68q0-9.12,0-18.25c0-3-1.68-4.63-4.66-4.65-3.38,0-6.75,0-10.13,0-3.54,0-7.08,0-10.62,0-2.55,0-4.37,1.62-4.39,4q-.11,9.69,0,19.37a2.73,2.73,0,0,0,1.11,1.91c1.41.93,3.06-.21,3.09-2.1.05-2.79,0-5.58,0-8.37,0-1.38,0-2.75,0-4.13a2,2,0,0,1,2-2.12,2.1,2.1,0,0,1,2.24,2,10.26,10.26,0,0,1,0,1.24q0,21.26,0,42.5a10.6,10.6,0,0,0,0,1.38,2,2,0,0,0,1.89,1.83,1.91,1.91,0,0,0,2.14-1.36,5,5,0,0,0,.19-1.6q0-11.87,0-23.75a8.7,8.7,0,0,1,0-1.25,1.94,1.94,0,0,1,1.77-1.81,1.91,1.91,0,0,1,2.26,1.33,5,5,0,0,1,.19,1.59q0,11.88,0,23.75a10.65,10.65,0,0,0,0,1.13,2.13,2.13,0,0,0,2,2,2.16,2.16,0,0,0,2.18-1.85,7.43,7.43,0,0,0,0-1.25Z" transform="translate(-70.34 -8.11)"/><path class="cls-2" d="M145.41,100.46a8.53,8.53,0,1,1,17.05,0,8.53,8.53,0,0,1-17.05,0Zm4.27,0a4.24,4.24,0,0,0,4.28,4.26,4.32,4.32,0,0,0,4.23-4.22,4.26,4.26,0,0,0-4.25-4.29A4.18,4.18,0,0,0,149.68,100.46Z" transform="translate(-70.34 -8.11)"/><path class="cls-2" d="M196.55,92a8.52,8.52,0,1,1,0,17,8.52,8.52,0,0,1,0-17Zm0,4.26a4.26,4.26,0,0,0-4.25,4.29,4.32,4.32,0,0,0,4.22,4.22,4.24,4.24,0,0,0,4.29-4.25A4.18,4.18,0,0,0,196.56,96.21Z" transform="translate(-70.34 -8.11)"/><path class="cls-2" d="M175.19,79.11h-20.5c-4.65,0-7.18-2.55-7.18-7.2,0-2.5,0-5,0-7.5a6.38,6.38,0,0,1,6.62-6.63q21.12,0,42.24,0A6.39,6.39,0,0,1,203,64.42c0,2.62,0,5.25,0,7.87,0,4.14-2.64,6.79-6.81,6.81C189.18,79.13,182.18,79.11,175.19,79.11ZM175.25,62H154.5c-2,0-2.72.77-2.73,2.73q0,3.69,0,7.37c0,1.93.73,2.7,2.61,2.7q20.87,0,41.74,0c1.88,0,2.6-.77,2.61-2.7,0-2.37,0-4.75,0-7.12s-.69-3-3-3Z" transform="translate(-70.34 -8.11)"/><path class="cls-2" d="M166.74,67.75c1-1.07,1.78-2,2.64-2.82a2.12,2.12,0,1,1,3,3q-2,2.07-4,4.06a2.1,2.1,0,0,1-3.29,0q-2.06-2-4-4.06a2.06,2.06,0,0,1-.08-3.09,2.14,2.14,0,0,1,3.11.13C164.91,65.76,165.71,66.66,166.74,67.75Z" transform="translate(-70.34 -8.11)"/><path class="cls-2" d="M183.81,69.18c-.95,1-1.72,1.86-2.55,2.67-1.08,1.06-2.28,1.12-3.2.21a2.16,2.16,0,0,1,.18-3.2c1.28-1.31,2.57-2.6,3.89-3.88a2.09,2.09,0,0,1,3.29,0q2,2,4,4a2.13,2.13,0,1,1-3,3C185.51,71.06,184.75,70.19,183.81,69.18Z" transform="translate(-70.34 -8.11)"/></svg>