<svg id="Capa_1" data-name="Capa 1" xmlns="http://www.w3.org/2000/svg" viewBox="0 0 210.5 210.5"><defs><style>.cls-1{fill:none;stroke:#1a1a1a;stroke-miterlimit:10;stroke-width:4px;}.cls-2{fill:#1a1a1a;}</style></defs><title>email</title><circle class="cls-1" cx="105.25" cy="105.25" r="103.25"/><path class="cls-2" d="M176.91,67.23h56.5c5.29,0,9.11,2.85,10.18,7.59a13.19,13.19,0,0,1,.24,2.88q0,35.17,0,70.36c0,6.54-4,10.56-10.51,10.57q-56.5,0-113,0c-6.48,0-10.54-4.09-10.54-10.58q0-35.11,0-70.21c0-6.6,4-10.61,10.63-10.61Zm19.5,45.24-16.95,14.4c-2,1.7-3.26,1.7-5.21,0l-8.7-7.4-8.3-7-37.12,40h113.4C221.06,139,208.79,125.79,196.41,112.47Zm-75.67-39,56.1,47.68,56.08-47.68ZM116,148l36.64-39.45L116,77.38Zm121.63-.1V77.46l-36.54,31.06Z" transform="translate(-70.34 -8.11)"/></svg>