<svg id="Capa_1" data-name="Capa 1" xmlns="http://www.w3.org/2000/svg" viewBox="0 0 238 125.54"><defs><style>.cls-1{fill:#1a1a1a;}</style></defs><title>eye</title><path class="cls-1" d="M295.64,119.93a38.25,38.25,0,0,1-3.68,5.2c-20.09,20.35-43,36.62-69.7,47.13-18.27,7.18-37.21,10.45-56.87,8.48a135.42,135.42,0,0,1-44-12.56,207,207,0,0,1-60.76-43.7c-4-4.11-4-7.79,0-11.89C80.9,91.94,104,75.45,131,64.81c18.26-7.19,37.2-10.45,56.87-8.48a135.9,135.9,0,0,1,44,12.55A206.25,206.25,0,0,1,292,111.94a38.25,38.25,0,0,1,3.68,5.2ZM176.58,69.73a48.81,48.81,0,1,0,48.86,48.75A49,49,0,0,0,176.58,69.73Z" transform="translate(-57.64 -55.76)"/><path class="cls-1" d="M192,87.6c-9,10.57-10.62,18.26-5.71,27.11,4.7,8.46,12.41,11.64,24.22,10,.35,10.24-11.45,23.55-24.2,27.32A34.84,34.84,0,0,1,152,93.91C162.73,83.21,179.93,80.49,192,87.6Z" transform="translate(-57.64 -55.76)"/></svg>