<svg id="Capa_1" data-name="Capa 1" xmlns="http://www.w3.org/2000/svg" viewBox="0 0 151.97 152.02"><defs><style>.cls-1{fill:#1a1a1a;}</style></defs><title>facebook</title><path class="cls-1" d="M179.91,189.41h-9.5a5.87,5.87,0,0,0-1-.25,67.46,67.46,0,0,1-18.81-3.88q-41.4-15.34-50.26-58.64c-.57-2.79-.81-5.65-1.2-8.48v-9.5c.08-.43.19-.86.26-1.29.51-3.42.8-6.89,1.54-10.25a76,76,0,1,1,87.28,91.12C185.48,188.71,182.69,189,179.91,189.41Zm.27-70.86h1.73c2.87,0,5.74,0,8.61,0,1.95,0,2.52-.57,2.74-2.52q.53-4.56,1.09-9.13c.26-2.05-.49-2.94-2.61-3-3.31,0-6.63,0-9.94,0h-1.58c0-3.6-.09-7,0-10.32.11-3.13,1.86-4.9,5-5.15,2.12-.17,4.25-.11,6.38-.18,1.68-.05,2.36-.68,2.38-2.34,0-2.72,0-5.45,0-8.17,0-1.66-.74-2.36-2.37-2.37-3.12,0-6.24-.07-9.35,0-8.15.28-14.11,5-15.51,13.07-.74,4.24-.45,8.66-.61,13,0,.77,0,1.55,0,2.46h-7.3c-2.41,0-3,.58-3,3q0,4.16,0,8.31c0,2.92.4,3.31,3.35,3.31h7v1.85q0,14.25,0,28.49c0,2.32.2,2.51,2.57,2.52h9.05c2,0,2.37-.36,2.37-2.44q0-14.25,0-28.5Z" transform="translate(-99.16 -37.38)"/></svg>