<svg id="Capa_1" data-name="Capa 1" xmlns="http://www.w3.org/2000/svg" viewBox="0 0 210.5 210.5"><defs><style>.cls-1{fill:none;stroke:#1a1a1a;stroke-miterlimit:10;stroke-width:4px;}.cls-2{fill:#1a1a1a;}</style></defs><title>female</title><circle class="cls-1" cx="105.25" cy="105.25" r="103.25"/><path class="cls-2" d="M175,188.32a10.45,10.45,0,0,1-4.91-2.92,8.87,8.87,0,0,1-2-5.76V171.4h-4.56c-1.39,0-2.78,0-4.16,0a8.3,8.3,0,0,1,0-16.59c2.86-.1,5.72,0,8.68,0V141.32c-15.58-3.25-27.31-11.82-34.51-26.14a45.77,45.77,0,0,1-3.83-31,47.83,47.83,0,1,1,55.14,57.17v13.43h8.14a8.22,8.22,0,0,1,6.54,2.79,8.28,8.28,0,0,1-5.89,13.81c-2.4.12-4.8,0-7.21,0h-1.65v6.44c0,6.27-1.24,8.14-6.93,10.48Zm-2.77-40.22c0,2.68,0,5.36,0,8,0,2.05-.72,2.77-2.75,2.77-3.14,0-6.28,0-9.42,0-2.84,0-4.72,1.66-4.74,4.13s1.87,4.17,4.68,4.19c3.1,0,6.19,0,9.29,0,2.29,0,2.94.66,2.94,3,0,3.1,0,6.2,0,9.3,0,2.72,1.69,4.58,4.11,4.62s4.2-1.87,4.21-4.66c0-3.19,0-6.38,0-9.57,0-1.94.73-2.67,2.69-2.68,3.19,0,6.38,0,9.57,0,2.73,0,4.6-1.67,4.64-4.08s-1.85-4.22-4.63-4.24c-3.24,0-6.47,0-9.71,0-1.78,0-2.56-.76-2.56-2.52,0-5.5,0-11,0-16.5a2.28,2.28,0,0,1,2.06-2.51c1.27-.25,2.56-.41,3.82-.71a43.78,43.78,0,0,0,33.22-48.19,43.67,43.67,0,0,0-50-37.41,42.07,42.07,0,0,0-27.09,15.61,43.57,43.57,0,0,0,4.2,59.43,42.64,42.64,0,0,0,23.06,11.2c1.9.3,2.43,1,2.44,2.89C172.24,142.83,172.23,145.47,172.23,148.1Z" transform="translate(-70.34 -8.11)"/><path class="cls-2" d="M211.72,94.21c-.07,16.94-12.29,31.71-28.66,34.68a35.21,35.21,0,0,1-41-26.5c-2.63-10.69-.45-20.6,6.08-29.51.89-1.21,2.1-1.5,3.11-.8s1.17,2,.22,3.28a29.74,29.74,0,0,0-6,14.57c-1.4,12.83,3.13,23.2,13.87,30.27,15.35,10.1,35.15,5,44.28-11,8-14,3.22-32.83-10.48-41.33a31,31,0,0,0-35.15,1c-.3.21-.6.43-.92.61A2,2,0,0,1,154.3,69a2,2,0,0,1,.49-2.82A43.13,43.13,0,0,1,160,62.85,35.28,35.28,0,0,1,208.85,80.2,33.71,33.71,0,0,1,211.72,94.21Z" transform="translate(-70.34 -8.11)"/></svg>