<svg id="Capa_1" data-name="Capa 1" xmlns="http://www.w3.org/2000/svg" viewBox="0 0 189.05 162.01"><defs><style>.cls-1{fill:#1a1a1a;}</style></defs><title>filters</title><path class="cls-1" d="M175.44,39.23q40.27,0,80.56,0c8.21,0,14.29,6.18,14,14.14a13.94,13.94,0,0,1-3.74,8.73Q249.11,82,232,101.92q-14.3,16.62-28.55,33.29a4.76,4.76,0,0,0-.91,2.84q-.1,14.23,0,28.47a7.76,7.76,0,0,1-3.73,7.07q-19.58,13-39.11,26c-2.48,1.66-5,2.22-7.71.71s-3.5-3.81-3.5-6.72q.06-27.72,0-55.46a5.61,5.61,0,0,0-1.23-3.34Q116.1,98.47,84.85,62.2c-3.9-4.52-5.11-9.52-2.58-15s7.18-8,13.23-8Q135.48,39.27,175.44,39.23ZM162,181.69a8,8,0,0,0,1-.49c8.3-5.53,16.62-11,24.87-16.65a3.27,3.27,0,0,0,1.07-2.4c.08-8.72.15-17.44,0-26.16a11.77,11.77,0,0,1,3.1-8.39q31.57-36.54,63-73.2c.39-.45.72-.94,1.15-1.51H94.81c.46.59.73,1,1,1.35l18.42,21.43q22.68,26.4,45.36,52.78A9,9,0,0,1,162,135c-.1,2.95,0,5.91,0,8.86Z" transform="translate(-80.94 -39.22)"/></svg>