<svg id="Capa_1" data-name="Capa 1" xmlns="http://www.w3.org/2000/svg" viewBox="0 0 163.07 137.11"><defs><style>.cls-1{fill:#1a1a1a;}</style></defs><title>flatmates</title><path class="cls-1" d="M87.27,117.16c.3-1.33.58-2.67.91-4a30.4,30.4,0,0,1,29.59-23.39c6.84-.09,13.68,0,20.52,0h2.09a30.14,30.14,0,0,0,9.08,20.47,37.12,37.12,0,0,0-20.82,16.28c-4.89,8-5.55,16.75-5,26a146.2,146.2,0,0,1-36.37-7Z" transform="translate(-87.27 -40.33)"/><path class="cls-1" d="M210.74,155.43c0,4.18-.07,8.38,0,12.56a2.4,2.4,0,0,1-1.68,2.61,74.37,74.37,0,0,1-19,5.44c-19.66,3.12-38.87.79-57.78-4.91-3-.91-3-.9-3-4.07,0-7.64-.11-15.28.06-22.91A30.16,30.16,0,0,1,158,114.6c8.36-.37,16.76-.31,25.12.05,11.89.51,23.33,10.3,26.46,22,1.3,4.84,1.2,9.75,1.2,14.68Z" transform="translate(-87.27 -40.33)"/><path class="cls-1" d="M216.31,153.13c0-3.84.16-7.07,0-10.29a36.07,36.07,0,0,0-24.38-32.08l-1.38-.53a30,30,0,0,0,9-20.37c.46,0,.77-.1,1.08-.1,6.68,0,13.37-.1,20.05,0,15.61.34,28.8,13,29.49,28.63.37,8.58.12,17.18.09,25.77a1.8,1.8,0,0,1-1,1.33c-4.58,1.63-9.1,3.58-13.81,4.63C229.32,151.52,223,152.13,216.31,153.13Z" transform="translate(-87.27 -40.33)"/><path class="cls-1" d="M146.11,88.87a23.89,23.89,0,1,1,23.81,23.87A23.88,23.88,0,0,1,146.11,88.87Z" transform="translate(-87.27 -40.33)"/><path class="cls-1" d="M104.14,64.23c0-12.19,9.4-22.71,21.28-23.79,12.62-1.14,23.8,7.11,26.08,19.24.14.73.23,1.46.33,2.2a5.49,5.49,0,0,1-2,5.52A27.09,27.09,0,0,0,141.05,83a2.82,2.82,0,0,1-1.62,2.12A23.86,23.86,0,0,1,104.14,64.23Z" transform="translate(-87.27 -40.33)"/><path class="cls-1" d="M233.41,64.21c0,16.93-17.41,28.64-32.83,22.06a2.43,2.43,0,0,1-1.27-1.49,29.5,29.5,0,0,0-12.87-20.34c-.93-.64-.79-1.39-.72-2.21a23.89,23.89,0,0,1,47.69,2Z" transform="translate(-87.27 -40.33)"/></svg>