<svg id="Capa_1" data-name="Capa 1" xmlns="http://www.w3.org/2000/svg" viewBox="0 0 210.5 210.5"><defs><style>.cls-1{fill:none;stroke:#1a1a1a;stroke-miterlimit:10;stroke-width:4px;}.cls-2{fill:#1a1a1a;}</style></defs><title>furniture</title><circle class="cls-1" cx="105.25" cy="105.25" r="103.25"/><path class="cls-2" d="M167.1,103V50.36c0-2.62.66-3.27,3.32-3.27h66.89c2.62,0,3.29.67,3.29,3.31V177c0,2.64-.67,3.31-3.29,3.31H163.39c-2.35,0-2.88-.43-3.44-2.74-.51-2.12-1-4.25-1.53-6.39H125.24q-.78,3.29-1.56,6.54c-.52,2.12-1.11,2.59-3.27,2.59H115c-2.22,0-3-.77-3-3.05,0-1.86,0-3.73,0-5.59a1.76,1.76,0,0,0-.76-1.28,7.05,7.05,0,0,1-3.8-6.59c0-5.12,0-10.24,0-15.36a1.74,1.74,0,0,0-1-1.78,11.43,11.43,0,0,1,.09-20.05,1.52,1.52,0,0,0,.9-1.91c-.27-1.46-.46-2.93-.67-4.4a16,16,0,0,1,11.5-17.74,82.69,82.69,0,0,1,48.46.42A1.92,1.92,0,0,0,167.1,103Zm39.11,54.26h29.68V67.84H206.21ZM171.83,77a2.06,2.06,0,0,0-.12.37q0,14,0,28a2.16,2.16,0,0,0,.65,1.32,15.86,15.86,0,0,1,4.51,13.52c-.24,1.93-.56,3.86-.83,5.75,3.36,2,4.56,3.09,5.75,5.33a11.48,11.48,0,0,1-4.5,15.41A8.45,8.45,0,0,0,176,148h25.53V77Zm-59.67,48.12a11.71,11.71,0,0,1,11.36,11.45h36.61c.81-6.9,3.91-10.05,11.36-11.55.25-1.56.54-3.16.75-4.76.88-6.83-2.33-11.84-9.05-13.5a108.52,108.52,0,0,0-14.2-2.63,73.07,73.07,0,0,0-29.88,3,10.9,10.9,0,0,0-7.47,7.86C110.64,118.41,111.81,121.7,112.16,125.13ZM112,148.25v14.87c0,2.76.64,3.4,3.35,3.4h53c.34,0,.67,0,1,0a2.26,2.26,0,0,0,2.38-2.33c0-5.31,0-10.62,0-15.9-1.77-.69-2.49-1.56-2.26-2.76.31-1.56,1.44-1.91,2.87-2a6.87,6.87,0,1,0-7.47-7.08c-.09,4.4,0,8.8,0,13.21,0,2.36-.74,3.11-3.06,3.11H122c-2.41,0-3.11-.73-3.12-3.2,0-4.3,0-8.61,0-12.91a6.88,6.88,0,1,0-7.4,6.9c1.82.18,2.7.79,2.8,2.08C114.35,147.12,113.42,147.86,112,148.25Zm124,13.78H176.33c0,.33-.05.57,0,.8.2,3.41-.91,6.1-4.11,7.69a.9.9,0,0,0-.46.61c0,1.51,0,3,0,4.51h64.24Zm-64.18-99h64.13V51.76H171.76Zm-11.62,78.3H123.53v6.71h36.61Zm11.62-69.11h29.67V67.83H171.76Zm29.67,85.06v-4.47h-25v4.47Zm-80.95,13.88h-3.83v4.47h2.72Zm42.69,0,1.13,4.47H167v-4.47Z" transform="translate(-70.34 -8.11)"/><path class="cls-2" d="M215.33,111.49c0,1.43,0,2.87,0,4.3a2.29,2.29,0,1,1-4.57,0q0-4.38,0-8.76a2.29,2.29,0,1,1,4.57,0C215.36,108.52,215.33,110,215.33,111.49Z" transform="translate(-70.34 -8.11)"/></svg>