<svg id="Capa_1" data-name="Capa 1" xmlns="http://www.w3.org/2000/svg" viewBox="0 0 210.5 210.5"><defs><style>.cls-1{fill:none;stroke:#1a1a1a;stroke-miterlimit:10;stroke-width:4px;}.cls-2{fill:#1a1a1a;}</style></defs><title>garden</title><circle class="cls-1" cx="105.25" cy="105.25" r="103.25"/><path class="cls-2" d="M176.65,38.71a73.89,73.89,0,0,1,13.62,18.87c1.61,3.09,2.92,6.32,4.37,9.49l.52,1.13c2.37-2.26,4.65-4.56,7.07-6.7A50.59,50.59,0,0,1,217.58,52c2-.78,3-.33,3.62,1.71A51.73,51.73,0,0,1,223,75.09c-.31,2.73-.78,5.44-1.19,8.3.42-.2.83-.38,1.23-.58,2.65-1.41,5.28-2.87,7.95-4.23,2.17-1.1,3.62-.26,3.76,2.15a93,93,0,0,1-1.27,22.6c-1,5.44-2.18,10.82-4.84,15.75a35.25,35.25,0,0,1-9.59,11.36l-.79.64c-.06.06-.07.17-.15.35,2.3.56,4.32,1.68,5.31,3.84a10.1,10.1,0,0,1,1,4.85c-.41,4.68-3.18,6.47-10.49,7.19-.61,3.22-1.23,6.49-1.83,9.76-.91,4.9-1.77,9.81-2.73,14.71C207.51,181.61,200,187.7,190,187.7q-14.27,0-28.52,0c-10.16,0-17.69-6.41-19.46-16.43-1.36-7.68-2.83-15.33-4.31-23a1.86,1.86,0,0,0-1-1.26,7.74,7.74,0,0,1-6.13-6.44c-.61-3.4.72-6.06,3.53-8,.16-.1.3-.22.5-.37-1.73-1.46-3.51-2.8-5.09-4.33a36.85,36.85,0,0,1-10.16-18.29A96.66,96.66,0,0,1,116.73,81c.15-2.78,1.55-3.61,4-2.33,3,1.53,5.9,3.12,9.06,4.8-.28-1.44-.56-2.69-.77-4-1.42-8.66-1.38-17.26,1.23-25.74.69-2.23,1.59-2.66,3.8-1.78a54.42,54.42,0,0,1,20.1,14.24L156,68.2c.06.06.17.07.4.16,4.37-11,10-21.22,18.53-29.65Zm-34.53,108.5a1.8,1.8,0,0,0,0,.45c1.45,7.86,2.84,15.73,4.38,23.57,1.4,7.17,6.83,12,14,12.06q15.27.22,30.56,0a13.93,13.93,0,0,0,13.77-11c1.22-5.13,2-10.36,3-15.54.59-3.13,1.16-6.25,1.76-9.52H166c-1.86,0-2.85-.78-2.87-2.16s1-2.17,2.8-2.2h49.47a9.14,9.14,0,0,0,2.16-.18,3.48,3.48,0,0,0,2.58-2.69,2.89,2.89,0,0,0-1.12-3.24,6.64,6.64,0,0,0-3.35-1q-38.19-.07-76.39,0a7.33,7.33,0,0,0-1.87.18,3.4,3.4,0,0,0-1.69,5.72,5.15,5.15,0,0,0,3.1,1.21c3.54.15,7.08,0,10.62.08a2.18,2.18,0,0,1,2.36,2.07,2.28,2.28,0,0,1-2.21,2.25c-.57.06-1.16,0-1.74,0ZM179.68,131l.24.53a20.64,20.64,0,0,0,3.78-1,71.7,71.7,0,0,0,19.92-14.65c4-4.08,7.63-8.51,11.44-12.78,1-1.17,2.34-1.37,3.31-.53s1,2,.09,3.24c-7.34,9.28-15.43,17.79-25.37,24.37-.41.27-.8.57-1.55,1.1h17.18a2.14,2.14,0,0,0,.83-.19,31.12,31.12,0,0,0,16.85-17.56c2.22-5.73,3.14-11.77,3.76-17.85.23-2.28.3-4.57.45-6.85a12,12,0,0,0-2.1,2.7c-1.24,2-2.44,2.56-3.66,1.78s-1.32-2-.07-4.06l2-3.18-.38-.34q-11.33,7-22.64,13.92a52.18,52.18,0,0,0-16.81,16.41A71.05,71.05,0,0,0,179.68,131Zm-6.2-83.82-.29-.19a3,3,0,0,1-.28.49c-11.36,14.8-17,31.7-18.4,50.15a2.07,2.07,0,0,0,1,2,53.68,53.68,0,0,1,13.3,14.87c1.6,2.62,3,5.35,4.66,8.25ZM178,123c.32-.46.42-.57.48-.69,4.23-9,9.92-16.85,17.89-22.93a1.94,1.94,0,0,0,.59-1.47c-.15-2.32-.32-4.64-.65-6.94a92.09,92.09,0,0,0-12.42-35.69c-1.72-2.82-3.69-5.49-5.54-8.23l-.35.18Zm-6.41,8.6L172,131c-1.47-3.26-2.82-6.57-4.45-9.75-3.74-7.3-8.56-13.83-15.39-18.47-7.28-5-14.88-9.45-22.35-14.12-1.57-1-3.22-1.84-5.15-2.92.26.52.32.69.41.84A151.83,151.83,0,0,0,145,113c6.7,7,14.06,13.21,22.8,17.57A19,19,0,0,0,171.63,131.55Zm-12.1-.26c-16.31-11.09-28-26.18-38.4-42.51a81.56,81.56,0,0,0,2.7,20.74,31.1,31.1,0,0,0,12,18c2.09,1.51,4.45,3.39,6.83,3.61C148.26,131.65,153.91,131.29,159.53,131.29ZM133.34,60.13c-.13.57-.24.92-.3,1.29a54.18,54.18,0,0,0,2.07,24.39,3.3,3.3,0,0,0,1.3,1.59c4.29,2.72,8.63,5.38,13,8,.23.14.48.23,1.13.54a11.18,11.18,0,0,0-.5-2.61q-8-16.12-16-32.22C133.8,60.86,133.62,60.59,133.34,60.13Zm67.8,35.71a4,4,0,0,0,.72-.19c4.57-2.82,9.15-5.64,13.69-8.51a2.39,2.39,0,0,0,.88-1.24,54.92,54.92,0,0,0,2.41-21.65c-.13-1.3-.35-2.6-.56-4.19a7.24,7.24,0,0,0-.52.75q-8.16,16.36-16.29,32.75A7.9,7.9,0,0,0,201.14,95.84ZM137.55,58.46c4.72,9.41,9.26,18.45,13.84,27.55,1-4,2-7.88,3-11.73a1.73,1.73,0,0,0-.2-1.31A54.47,54.47,0,0,0,137.55,58.46ZM200.16,86,214,58.47A54.22,54.22,0,0,0,197.4,73a1.74,1.74,0,0,0-.21,1.31C198.13,78.12,199.13,82,200.16,86Z" transform="translate(-70.34 -8.11)"/></svg>