<svg id="Capa_1" data-name="Capa 1" xmlns="http://www.w3.org/2000/svg" viewBox="0 0 138.71 147.98"><defs><style>.cls-1{fill:#1a1a1a;}</style></defs><title>google_play</title><path class="cls-1" d="M12.19,141.05,79.93,73.34,12.45,11.1a18,18,0,0,0-2.63,9.7q0,16.26,0,32.52,0,39.17,0,78.33A17.91,17.91,0,0,0,12.19,141.05Zm102.43-35.71L87.18,80,19.3,147.89l.3.18c6.31,3.21,12.5,2.81,18.62-.57q27.54-15.23,55.1-30.41ZM93.44,73.2c9.77,9,19.43,18,29.13,26.83a1.61,1.61,0,0,0,1.44.07q7.56-4.08,15-8.28c4.52-2.54,7.74-6.19,8.94-11.33,1.93-8.25-1.46-15.58-9.17-19.9-6.63-3.71-13.32-7.33-20-11.05a1.51,1.51,0,0,0-2.19.33Q105.59,61,94.42,72.15C94.12,72.46,93.84,72.78,93.44,73.2Z" transform="translate(-9.82 -2.29)"/><path class="cls-1" d="M30.64,2.29c5.24.93,9.58,3.88,14.11,6.37Q76.3,26,107.81,43.46c.42.23.82.48,1.09.64L86.35,66.68,19.28,4.8c2.17-1.54,4.66-1.86,7-2.51Z" transform="translate(-9.82 -2.29)"/><path class="cls-1" d="M12.19,141.05a17.91,17.91,0,0,1-2.37-9.4q0-39.16,0-78.33,0-16.26,0-32.52a18,18,0,0,1,2.63-9.7L79.93,73.34Z" transform="translate(-9.82 -2.29)"/><path class="cls-1" d="M114.62,105.34l-21.3,11.75q-27.55,15.19-55.1,30.41c-6.12,3.38-12.31,3.78-18.62.57l-.3-.18L87.18,80Z" transform="translate(-9.82 -2.29)"/><path class="cls-1" d="M93.44,73.2c.4-.42.68-.74,1-1Q105.57,61,116.69,49.87a1.51,1.51,0,0,1,2.19-.33c6.63,3.72,13.32,7.34,20,11.05,7.71,4.32,11.1,11.65,9.17,19.9-1.2,5.14-4.42,8.79-8.94,11.33q-7.49,4.22-15,8.28a1.61,1.61,0,0,1-1.44-.07C112.87,91.15,103.21,82.22,93.44,73.2Z" transform="translate(-9.82 -2.29)"/></svg>