<svg id="Capa_1" data-name="Capa 1" xmlns="http://www.w3.org/2000/svg" viewBox="0 0 154.93 135.68"><defs><style>.cls-1{fill:#fff;}</style></defs><title>heart_favs_white_solid</title><path class="cls-1" d="M253.39,90.21c-.65,3.25-1.09,6.56-2,9.74-3,10.64-8.84,19.83-15.7,28.38-12,15-26.51,27.35-42.05,38.51-4.66,3.35-9.53,6.41-14.29,9.64a5.59,5.59,0,0,1-6.74,0C152.72,164,134.33,149.6,118.9,131.72c-7.66-8.87-14.14-18.5-17.92-29.73-8-23.66,3.51-48.72,26.67-57,17.53-6.28,33.33-2.56,47,10.06a13.75,13.75,0,0,1,1.08,1.3L177,55.19c13.12-12.29,28.46-16.39,45.52-10.77s27.15,18,30.38,35.74c.2,1.12.36,2.26.54,3.39ZM108.08,86.75l-.4.08c.69,3.65,1.11,7.37,2.13,10.93,2.78,9.72,8.3,18,14.7,25.65,14.38,17.26,31.9,30.87,50.52,43.19a1.32,1.32,0,0,0,1.73,0c15.5-10.2,30.15-21.47,43.08-34.85,7.17-7.42,13.65-15.39,18.38-24.64,4.08-8,6.45-16.3,5.11-25.36a35.11,35.11,0,0,0-63-15.72c-2.73,3.67-6.12,3.64-8.91,0-8.11-10.45-18.78-15.29-32-14A35,35,0,0,0,108.08,86.75ZM135,49l31,6,10,8,17-11,24-3,27,14,4,25-10,30-43,44-20,11-32-25-35-38-4-29,7-19,15-10Z" transform="translate(-98.46 -41.95)"/></svg>