<svg id="Capa_1" data-name="Capa 1" xmlns="http://www.w3.org/2000/svg" viewBox="0 0 168.96 143.83"><defs><style>.cls-1{fill:#1a1a1a;}</style></defs><title>heart</title><path class="cls-1" d="M259.44,96.71c-.28,1.27-.54,2.55-.84,3.82-2.17,9.42-7.11,17.44-12.86,25-9.47,12.48-21,23-32.88,33a396.47,396.47,0,0,1-35.33,26.25c-1.64,1.1-3.14,1.36-4.86.2-20.87-13.92-40.68-29.14-58.1-47.28-7.64-7.95-14.43-16.56-19.47-26.47-5.58-10.93-5.84-22.17-2.18-33.61a50.25,50.25,0,0,1,23.1-29,48.09,48.09,0,0,1,31.57-6.22,48.62,48.62,0,0,1,26.2,12.16c.33.3.67.57,1.09.91,1.76-1.39,3.46-2.85,5.27-4.15a47.5,47.5,0,0,1,34.57-9c16,1.95,28.22,10.08,36.85,23.63a50.33,50.33,0,0,1,7.62,22.91c0,.43.17.84.25,1.26ZM141.13,48.51l-.08-.44c-4.2.77-8.52,1.14-12.57,2.38-13.5,4.14-22.82,13.06-28.14,26.06q-7.77,19,3.21,36.53a129.72,129.72,0,0,0,16.57,20.89c16.18,16.78,34.56,30.9,53.78,44a1.5,1.5,0,0,0,2,.05c19.35-13.18,37.87-27.39,54.14-44.32,6.29-6.55,12.16-13.47,16.69-21.41,3.36-5.87,6.13-12,6.06-18.92a44.73,44.73,0,0,0-11.48-30.12A42.76,42.76,0,0,0,179,60.93c-3.68,3.61-4.45,3.59-8.2,0A42.73,42.73,0,0,0,141.13,48.51Z" transform="translate(-90.48 -41.92)"/><path class="cls-1" d="M241.69,91c0,.49,0,1,0,1.48a3.23,3.23,0,0,1-3.07,3.26A3.15,3.15,0,0,1,235.27,93c-.44-2.54-.55-5.16-1.23-7.62a25.14,25.14,0,0,0-15.43-17.47c-.46-.18-.93-.33-1.38-.53-1.94-.86-2.75-2.5-2.09-4.23a3.2,3.2,0,0,1,4.32-1.91,35.86,35.86,0,0,1,6.57,3C235.89,70.39,240.87,79.49,241.69,91Z" transform="translate(-90.48 -41.92)"/><path class="cls-1" d="M202.33,63.3a3.29,3.29,0,1,1,3,3.39A3.19,3.19,0,0,1,202.33,63.3Z" transform="translate(-90.48 -41.92)"/></svg>