<svg id="Capa_1" data-name="Capa 1" xmlns="http://www.w3.org/2000/svg" viewBox="0 0 210.5 210.5"><defs><style>.cls-1{fill:none;stroke:#1a1a1a;stroke-miterlimit:10;stroke-width:4px;}.cls-2{fill:#1a1a1a;}</style></defs><title>heating</title><circle class="cls-1" cx="105.25" cy="105.25" r="103.25"/><path class="cls-2" d="M180.62,43.69a18.15,18.15,0,0,0-3.39-9.89,3,3,0,0,0-4.25-.91A3.05,3.05,0,0,0,171.92,37c.26.52.61,1,.88,1.52,2,3.78,2.19,7.42-.76,10.89-5.07,6-3.95,13.36,0,19.15a3,3,0,0,0,4,1.07c1.8-.9,2.18-2.84,1-4.91-2.88-4.9-2.71-7.91.7-12.34A14.07,14.07,0,0,0,180.62,43.69Zm24.12,9.19a11.54,11.54,0,0,0-2.46-6.6,3,3,0,0,0-3.51-1.18,2.82,2.82,0,0,0-2.1,2.87,6,6,0,0,0,.88,2.43c1.28,2.33,1.27,3.27-.4,5.16-3.82,4.29-2.67,9.63.2,13.31A3.08,3.08,0,0,0,202.78,67a5.45,5.45,0,0,0-.79-2.3c-1.43-2.61-1.39-3.43.5-5.66A9.35,9.35,0,0,0,204.74,52.88Zm-50.24.43a11.77,11.77,0,0,0-2.41-7c-1.57-1.88-4.16-1.75-5.27.28a3.33,3.33,0,0,0,.34,3.59c1.56,2.55,1.48,3.43-.4,5.62-3.64,4.26-2.44,9.71.53,13.15a4.11,4.11,0,0,0,2.87.9,2.28,2.28,0,0,0,2.26-2.14,6,6,0,0,0-.66-3c-1.31-2.54-1.29-3.53.52-5.68A8.6,8.6,0,0,0,154.5,53.31Z" transform="translate(-70.34 -8.11)"/><path class="cls-2" d="M96.18,97.65c1-3.06,3.68-2.5,6.26-2.6V90.24c0-3.55,1-4.57,4.53-4.57,2.45,0,4.9,0,7.35,0a1.81,1.81,0,0,0,1.36-.87,12.52,12.52,0,0,1,20.63-4.82c.17.17.37.31.67.55a12.82,12.82,0,0,1,9.36-4.19,12.4,12.4,0,0,1,9.34,4.16c7.85-5.59,12-5.59,19,0A12.83,12.83,0,0,1,184,76.3a12.42,12.42,0,0,1,9.36,4.16c8-5.59,12.06-5.6,18.64-.25A44.08,44.08,0,0,1,218,77c7.28-2.61,15.54,2.94,16.09,10.66.13,1.91.08,3.82.1,5.73,0,.53,0,1.06,0,1.66h6.32V71.29a12.89,12.89,0,0,1,.08-1.76,3.06,3.06,0,0,1,5.93-.5,6.59,6.59,0,0,1,.23,1.88q0,13.17,0,26.33c0,3-1.13,4.15-4.17,4.16h-8.4v2q0,33,0,66c0,4.51-1.4,8.36-5.15,11-1.71,1.18-3.87,1.72-5.83,2.56h-3.53c-2.77-.89-5.43-2-7.33-4.14a37,37,0,0,1-3.63,2.55,37.24,37.24,0,0,1-4,1.59H200.9c-2.78-.89-5.44-2-7.34-4.14a37,37,0,0,1-3.63,2.55,36.29,36.29,0,0,1-4,1.59h-3.83c-2.77-.89-5.43-2-7.5-4.32-2.06,2.47-4.75,3.45-7.5,4.32h-3.82c-2.78-.89-5.44-2-7.5-4.32-2.06,2.47-4.75,3.45-7.5,4.32h-3.83c-2.77-.89-5.43-2-7.49-4.32-2.07,2.47-4.76,3.45-7.51,4.32h-3.23a28.16,28.16,0,0,1-4-1.3c-4.91-2.46-7.16-6.59-7.16-12V110.81c-2.07,0-4,0-5.86,0-6.12.18-6.92-.44-6.72-6.64,0-.91,0-1.81,0-2.69-5.11-.38-5.11-.38-6.26-2.66Zm37.65,32V90.09a17.23,17.23,0,0,0,0-1.76,6.33,6.33,0,0,0-5-5.65A6.09,6.09,0,0,0,122,86.11a10.07,10.07,0,0,0-.7,3.85q-.06,39.63,0,79.25a14.1,14.1,0,0,0,.17,2.34,6.17,6.17,0,0,0,6.86,5c3.38-.45,5.52-3,5.53-6.66Q133.85,149.79,133.83,129.64Zm18.83,0V90.1a14.73,14.73,0,0,0,0-1.76,6.26,6.26,0,0,0-10.56-4,6.81,6.81,0,0,0-2,5.34q0,40,0,80a10.79,10.79,0,0,0,.19,2.05,6.19,6.19,0,0,0,6.68,4.92c3.47-.4,5.68-3,5.68-6.67Q152.68,149.79,152.66,129.65Zm18.82-.06V90a17.17,17.17,0,0,0,0-1.76,6.32,6.32,0,0,0-5.05-5.6,6.1,6.1,0,0,0-6.78,3.48,10,10,0,0,0-.67,3.71q-.06,39.76,0,79.54a12.27,12.27,0,0,0,.21,2.34,6.18,6.18,0,0,0,6.73,4.85c3.45-.43,5.62-3,5.62-6.72Q171.5,149.73,171.48,129.59Zm18.83,0V102.07c0-4.37,0-8.73,0-13.09a6.2,6.2,0,0,0-6.13-6.38c-3.91-.06-6.42,2.78-6.42,7.3q0,39.71,0,79.39a13,13,0,0,0,.21,2.49,6.17,6.17,0,0,0,6.75,4.81c3.45-.43,5.59-3,5.59-6.75Q190.33,149.71,190.31,129.56Zm18.82,0V101.17c0-4.06,0-8.13,0-12.2A6.21,6.21,0,0,0,203,82.6c-3.91-.06-6.41,2.78-6.41,7.31q0,39.71,0,79.39a13,13,0,0,0,.19,2.34,6.16,6.16,0,0,0,6.79,5c3.44-.44,5.58-3,5.58-6.76Q209.15,149.7,209.13,129.55Zm18.83.06V94.18c0-1.86.06-3.73,0-5.59a6.23,6.23,0,0,0-8.64-5.53c-2.95,1.28-3.91,3.74-3.91,6.79q0,39.77,0,79.54a12.26,12.26,0,0,0,.2,2.34,6.15,6.15,0,0,0,4.82,4.78c4.11.8,7.53-2.16,7.53-6.62Q228,149.76,228,129.61ZM108.83,104.37h6.09V92.08h-6.09Z" transform="translate(-70.34 -8.11)"/><path class="cls-2" d="M180.62,43.69a14.07,14.07,0,0,1-3,8.69c-3.41,4.43-3.58,7.44-.7,12.34,1.22,2.07.84,4-1,4.91a3,3,0,0,1-4-1.07c-3.92-5.79-5-13.19,0-19.15,3-3.47,2.76-7.11.76-10.89-.27-.52-.62-1-.88-1.52A3.05,3.05,0,0,1,173,32.89a3,3,0,0,1,4.25.91A18.15,18.15,0,0,1,180.62,43.69Z" transform="translate(-70.34 -8.11)"/><path class="cls-2" d="M204.74,52.88A9.35,9.35,0,0,1,202.49,59c-1.89,2.23-1.93,3-.5,5.66a5.45,5.45,0,0,1,.79,2.3,3.08,3.08,0,0,1-5.43,1.92c-2.87-3.68-4-9-.2-13.31,1.67-1.89,1.68-2.83.4-5.16a6,6,0,0,1-.88-2.43,2.82,2.82,0,0,1,2.1-2.87,3,3,0,0,1,3.51,1.18A11.54,11.54,0,0,1,204.74,52.88Z" transform="translate(-70.34 -8.11)"/><path class="cls-2" d="M154.5,53.31A8.6,8.6,0,0,1,152.28,59c-1.81,2.15-1.83,3.14-.52,5.68a6,6,0,0,1,.66,3,2.28,2.28,0,0,1-2.26,2.14,4.11,4.11,0,0,1-2.87-.9c-3-3.44-4.17-8.89-.53-13.15,1.88-2.19,2-3.07.4-5.62a3.33,3.33,0,0,1-.34-3.59c1.11-2,3.7-2.16,5.27-.28A11.77,11.77,0,0,1,154.5,53.31Z" transform="translate(-70.34 -8.11)"/></svg>