<svg id="Capa_1" data-name="Capa 1" xmlns="http://www.w3.org/2000/svg" viewBox="0 0 210.5 210.5"><defs><style>.cls-1{fill:none;stroke:#1a1a1a;stroke-miterlimit:10;stroke-width:4px;}.cls-2{fill:#1a1a1a;}</style></defs><title>home</title><circle class="cls-1" cx="105.25" cy="105.25" r="103.25"/><path class="cls-2" d="M244.34,99.63c-1.67,3.13-3.68,3.56-6.57,1.45q-31-22.68-61.92-45.38a1.46,1.46,0,0,0-2.09.06Q142.88,78.43,111.94,101c-2.44,1.8-4.58,1.72-5.93-.2s-.76-3.84,1.66-5.61l64.12-46.95c2.55-1.86,3.56-1.86,6.07,0Q210,71.8,242.19,95.38a16.09,16.09,0,0,1,2.15,2.35Z" transform="translate(-70.34 -8.11)"/><path class="cls-2" d="M127.88,163.54c.55,0,1,.07,1.43.07,8.64,0,17.28,0,25.92,0,1.27,0,1.57-.37,1.57-1.59-.05-9.73,0-19.46,0-29.18,0-8.93,5.36-16,13.64-18.16,10.73-2.77,21.69,5,22.33,16,.33,5.64.13,11.31.15,17q0,7.33,0,14.66c0,.73,0,1.3,1,1.29,9.1,0,18.19,0,27.28,0a3.92,3.92,0,0,0,.59-.12V162q0-27.62,0-55.24c0-2.69,1.52-4.31,3.86-4.16a3.45,3.45,0,0,1,3.23,2.8,10.28,10.28,0,0,1,.13,1.76v59c0,3.44-1.22,4.66-4.65,4.66h-34.2c-3.24,0-4.49-1.26-4.49-4.52,0-11.27,0-22.53,0-33.8a10.84,10.84,0,1,0-21.67-.11c0,11.4,0,22.8-.05,34.2a5.05,5.05,0,0,1-1,3.06,4,4,0,0,1-2.74,1.12c-11.9.07-23.8.05-35.69,0a3.54,3.54,0,0,1-3.79-3.58c0-.45,0-.91,0-1.36q0-29.17,0-58.36a13.22,13.22,0,0,1,.08-1.89,3.48,3.48,0,0,1,3.7-3.06,3.54,3.54,0,0,1,3.41,3.24c.05.5,0,1,0,1.5v56.26Z" transform="translate(-70.34 -8.11)"/></svg>