<svg id="Capa_1" data-name="Capa 1" xmlns="http://www.w3.org/2000/svg" viewBox="0 0 169.9 170.28"><defs><style>.cls-1{fill:#1a1a1a;}</style></defs><title>instagram</title><path class="cls-1" d="M173.32,26.23h10.29c.54.1,1.07.21,1.61.3,4.58.74,9.24,1.14,13.72,2.28,41.83,10.71,68.57,49.41,63.69,92.43-2.46,21.68-12,40-28.66,54.08-24.53,20.67-52.64,26.56-83,16.15-31.15-10.68-49.7-33.18-56.31-65.43-.64-3.13-.91-6.33-1.35-9.5V105.92c.43-3.11.77-6.24,1.3-9.33a84.86,84.86,0,0,1,67.09-68.68C165.53,27.16,169.44,26.78,173.32,26.23Zm5,42.5c-5.54,0-11.07,0-16.6,0-14.85,0-25.94,11.08-26,25.88q0,16.61,0,33.2c0,14.82,11.1,25.9,25.93,25.92q16.59,0,33.2,0c14.73,0,25.84-11.09,25.87-25.8q0-16.77,0-33.53a25.31,25.31,0,0,0-25.68-25.67C189.53,68.72,183.94,68.73,178.36,68.73Z" transform="translate(-93.3 -26.23)"/><path class="cls-1" d="M178.35,145.16c-5.54,0-11.07,0-16.6,0-10.21,0-17.34-7.13-17.37-17.32q0-16.59,0-33.19c0-10.2,7.18-17.3,17.36-17.32q16.6,0,33.2,0c10.09,0,17.24,7.11,17.28,17.22q.06,16.68,0,33.36c0,10.1-7.16,17.18-17.28,17.24C189.41,145.18,183.88,145.16,178.35,145.16Zm-22-34a22,22,0,1,0,22-21.89A21.88,21.88,0,0,0,156.34,111.17Zm44.15-16.52a5.42,5.42,0,1,0-.18-10.83A5.5,5.5,0,0,0,195,89.25,5.44,5.44,0,0,0,200.49,94.65Z" transform="translate(-93.3 -26.23)"/><path class="cls-1" d="M191.7,111.3a13.4,13.4,0,1,1-13.29-13.47A13.34,13.34,0,0,1,191.7,111.3Z" transform="translate(-93.3 -26.23)"/></svg>