<svg id="Capa_1" data-name="Capa 1" xmlns="http://www.w3.org/2000/svg" viewBox="0 0 75.93 138.02"><defs><style>.cls-1{fill:#fff;}</style></defs><title>left</title><path class="cls-1" d="M129.66,173.55a13.76,13.76,0,0,1-5.39-3.84q-29.76-29.82-59.61-59.65c-2.78-2.78-3.37-6-1.62-9a9.81,9.81,0,0,1,1.42-1.79L125.73,38c2.11-2.11,4.57-3,7.48-2.05a6.92,6.92,0,0,1,3,11.16c-.38.44-.79.86-1.2,1.27l-55,55a8.59,8.59,0,0,1-1.32.91v.6a10.15,10.15,0,0,1,1.33.92q27.69,27.66,55.37,55.35c2.82,2.82,3.36,6.14,1.53,9.14a8.32,8.32,0,0,1-4.58,3.29Z" transform="translate(-62.05 -35.56)"/></svg>