<svg id="Capa_1" data-name="Capa 1" xmlns="http://www.w3.org/2000/svg" viewBox="0 0 153.06 148.18"><defs><style>.cls-1{fill:#1a1a1a;}</style></defs><title>living</title><path class="cls-1" d="M93.23,104.29V101.6a12.3,12.3,0,0,1,3.65-5.14q33.18-30.36,66.3-60.76c4.44-4.08,8.69-4.13,13.24-.14l56.89,49.77c3.33,2.92,6.68,5.82,10,8.76,2.72,2.41,3.76,5.57,2.38,8.42a14.74,14.74,0,0,1-7.72,7.54,3.77,3.77,0,0,1-4.4-.81c-.71-.71-1.52-1.33-2.55-2.22v2.13q0,31.75,0,63.5c0,4.82-3,8-7.67,8.09-9.31.07-18.62,0-27.93,0-2.73,0-5-1.11-6.2-3.66a11.68,11.68,0,0,1-.94-4.6c-.06-14.79,0-29.58,0-44.37v-1.74h-34.1v22.37c0,7.92,0,15.84,0,23.75,0,5-3,8.23-7.85,8.26-8.66.05-17.33,0-26,0-3.27,0-5.83-1.41-7.14-4.46a10.93,10.93,0,0,1-.71-4.22q-.06-32,0-63.94v-2c-1.83,1.64-3.33,3-4.86,4.34a7.3,7.3,0,0,1-9.81,0A12.91,12.91,0,0,1,93.23,104.29Z" transform="translate(-93.23 -32.6)"/></svg>