<svg id="Capa_1" data-name="Capa 1" xmlns="http://www.w3.org/2000/svg" viewBox="0 0 210.5 210.5"><defs><style>.cls-1{fill:none;stroke:#1a1a1a;stroke-miterlimit:10;stroke-width:4px;}.cls-2{fill:#1a1a1a;}</style></defs><title>male</title><circle class="cls-1" cx="105.25" cy="105.25" r="103.25"/><path class="cls-2" d="M236.33,96.89c-.64,1.94-1.49,3.73-3.35,4.81a7.09,7.09,0,0,1-10.82-6.17c0-4.61,0-9.22,0-13.83V77.87L201.9,98.13c8.28,11.76,11.15,24.93,7.8,39.22a46.34,46.34,0,0,1-19.44,28.35,47.8,47.8,0,1,1-47.11-82.79,47.74,47.74,0,0,1,48.3,4.81l20.38-20.37h-1.2c-5.55,0-11.1.05-16.66,0a7,7,0,0,1-6.82-9.43,6.75,6.75,0,0,1,4.26-4.28l1.2-.46h36.16a32.36,32.36,0,0,1,4.08,1.92c2,1.3,2.87,3.42,3.48,5.65ZM210.71,56.72c-5.52,0-11,0-16.55,0a3.66,3.66,0,0,0-3.33,1.64,3.31,3.31,0,0,0-.13,3.59A3.51,3.51,0,0,0,194,63.81h21a11.14,11.14,0,0,1,1.53,0,1.73,1.73,0,0,1,1.17,2.85,9.82,9.82,0,0,1-.89.94l-21,21.05c-.84.84-1.66,1.69-2.51,2.51a1.86,1.86,0,0,1-2.83.22c-.29-.2-.57-.42-.86-.63A43.43,43.43,0,0,0,157,82.5a42.31,42.31,0,0,0-25.16,12.65c-10.12,10.4-14.3,22.94-12.41,37.37A42.58,42.58,0,0,0,132,157.7a44.3,44.3,0,0,0,74.87-38.81,42.61,42.61,0,0,0-8.28-19.2c-1.48-2-1.43-2.31.34-4.08l23-23a8.86,8.86,0,0,1,.94-.9,1.74,1.74,0,0,1,2.82,1.09,6.62,6.62,0,0,1,0,1.18q0,10.63,0,21.27A3.61,3.61,0,0,0,227.9,99c2.44,1,4.88-.77,4.88-3.65q0-16.3,0-32.61c0-3.85-2.14-6-6-6Z" transform="translate(-70.34 -8.11)"/><path class="cls-2" d="M200.4,126.35a37.43,37.43,0,0,1-29.74,36.44c-17.4,3.48-35.08-5.69-41.72-22-5.44-13.41-3.53-26.05,5.17-37.63.8-1.06,1.78-1.26,2.65-.63s1,1.68.13,2.79a33.33,33.33,0,0,0-6.08,11.91c-2.77,10.35-1.14,20,5.08,28.73a32.39,32.39,0,0,0,21.16,13.48,33.62,33.62,0,0,0,17.78-64.6c-11.44-4.1-22.14-2.38-32,4.72-.29.21-.57.44-.86.63a1.78,1.78,0,0,1-2.62-.21,1.72,1.72,0,0,1,.49-2.58,49.33,49.33,0,0,1,5.49-3.65c10.38-5.5,21.13-6.19,32-1.74a36,36,0,0,1,20.47,20.91A35.46,35.46,0,0,1,200.4,126.35Z" transform="translate(-70.34 -8.11)"/></svg>