<svg id="Capa_1" data-name="Capa 1" xmlns="http://www.w3.org/2000/svg" viewBox="0 0 169.99 127.51"><defs><style>.cls-1{fill:#1a1a1a;}</style></defs><title>menu</title><path class="cls-1" d="M190.59,54.11a26.33,26.33,0,0,1-1.4,3.52,10.35,10.35,0,0,1-8.93,5.44c-.38,0-.77,0-1.16,0H32c-5.88,0-10.11-3.24-11.22-8.58a10.61,10.61,0,0,1,9.73-12.65c.72,0,1.44,0,2.16,0H177.62c7.7,0,10.24,1.75,13,9Z" transform="translate(-20.59 -41.83)"/><path class="cls-1" d="M190.59,107.24a26.19,26.19,0,0,1-1.4,3.51,10.33,10.33,0,0,1-8.93,5.44c-.38,0-.77,0-1.16,0H32c-5.88,0-10.11-3.24-11.22-8.57A10.61,10.61,0,0,1,30.54,95c.72,0,1.44,0,2.16,0H177.62c7.69,0,10.24,1.77,13,9Z" transform="translate(-20.59 -41.83)"/><path class="cls-1" d="M190.59,160.36a26.33,26.33,0,0,1-1.4,3.52,10.35,10.35,0,0,1-8.93,5.44c-.38,0-.77,0-1.16,0H32c-5.88,0-10.11-3.24-11.22-8.58a10.61,10.61,0,0,1,9.73-12.65c.72,0,1.44,0,2.16,0H177.62c7.69,0,10.24,1.76,13,9Z" transform="translate(-20.59 -41.83)"/></svg>