<svg id="Capa_1" data-name="Capa 1" xmlns="http://www.w3.org/2000/svg" viewBox="0 0 210.5 210.5"><defs><style>.cls-1{fill:none;stroke:#1a1a1a;stroke-miterlimit:10;stroke-width:4px;}.cls-2{fill:#1a1a1a;}</style></defs><title>mixed</title><circle class="cls-1" cx="105.25" cy="105.25" r="103.25"/><path class="cls-2" d="M104.25,106.42c.52-2.88.84-5.81,1.61-8.62a42.31,42.31,0,0,1,22.37-27.58c11.32-5.77,23.1-6.32,35.11-2.1a4.26,4.26,0,0,0,2.57-.07,43.37,43.37,0,0,1,32.28,1c2.07.87,4,2,5.94,3l5.79-5.81a26.51,26.51,0,0,1-4.32-2.49A9.53,9.53,0,0,1,211.65,47c7.42-.09,14.84-.12,22.25,0a9.33,9.33,0,0,1,9.31,9.4c.12,7.32.11,14.66,0,22a9.59,9.59,0,0,1-18.9,2.19,2,2,0,0,0-.56-1c-.94,1.08-1.84,2.19-2.82,3.23s-2,1.94-2.75,2.65c1.6,3.77,3.41,7.15,4.5,10.74,4.2,13.86,2.11,26.85-6.27,38.66A43.59,43.59,0,0,1,166,150.52a4.3,4.3,0,0,0-3.25,0c-1.38.54-2.85.85-4.26,1.33a1.76,1.76,0,0,0-.82,1c3.58,0,6.72.63,9.15,3.29a9.24,9.24,0,0,1,2.52,6.42,9.43,9.43,0,0,1-3.52,7.47c-2.33,2-5.13,2.25-8.13,2.25.18,3.78-.39,7.23-3.43,9.77a9.24,9.24,0,0,1-6.5,2.27,9.4,9.4,0,0,1-7.33-3.78c-1.89-2.4-2.08-5.22-2-8.2l-3-.22a9.55,9.55,0,0,1,.24-19c.63,0,1.27,0,1.9-.07a3.12,3.12,0,0,0,.85-.4c-.24-.27-.42-.67-.71-.77-2.09-.72-4.27-1.21-6.29-2.08-13.82-5.94-22.49-16.28-26.07-30.87-.55-2.23-.76-4.53-1.13-6.8Zm67.39,40a36.22,36.22,0,0,0,13.78,1A38.19,38.19,0,0,0,210,134.11a37.14,37.14,0,0,0,9-21.52,37.67,37.67,0,0,0-6.61-25c-1.2-1.77-1.06-3,.43-4.47,3.83-3.84,7.68-7.67,11.51-11.52,1-1,2-1.58,3.39-1s1.78,1.79,1.78,3.19c0,1.67,0,3.35.1,5a3.89,3.89,0,0,0,3,3.45c2.75.7,5.07-1.35,5.08-4.58q0-10.17,0-20.36c0-3.25-1.59-4.81-4.85-4.82h-17c-1.35,0-2.72-.05-4.07,0a4.06,4.06,0,0,0,.17,8.12c1.4,0,2.81,0,4.21,0s2.74.24,3.38,1.72-.08,2.58-1.1,3.61c-3.76,3.73-7.49,7.48-11.24,11.22-1.73,1.72-2.76,1.86-4.78.51a37.88,37.88,0,0,0-24.26-6.56,36.91,36.91,0,0,0-20.06,7.4A38.23,38.23,0,0,0,150.8,133a1.44,1.44,0,0,0,1.09.55,21.65,21.65,0,0,0,7.88-2.66l-1.23-1.36a30.14,30.14,0,1,1,46.63-2.41c-6,8.05-14.19,12.05-24.21,12.41a3.57,3.57,0,0,0-1.86.81c-2.23,1.75-4.41,3.58-6.61,5.39Zm-2.28-58.83c0,.15,0,.26.07.32L171,89.62a29,29,0,0,1,7.12,16.68,29.91,29.91,0,0,1-8.14,23.75c-9.58,10.48-27.08,12.41-38.69,4.19-8.25-5.84-12.8-13.75-13.2-23.87a30,30,0,0,1,29.6-31.19,3.46,3.46,0,0,0,2.39-1c2-1.8,4.15-3.47,6.25-5.19.32-.27.67-.51,1.1-.84a37.56,37.56,0,0,0-17.51-.36,38.3,38.3,0,0,0-29.65,42.76c1.75,12.17,8.07,21.39,18.54,27.77A36.31,36.31,0,0,0,141,146.89c2.28.43,3,1.29,3,3.62,0,1.63,0,3.26,0,4.88-.06,2.15-1.08,3.13-3.21,3.17-1.45,0-2.9,0-4.34,0a4.07,4.07,0,1,0,.06,8.13c1.49,0,3,0,4.47,0a2.81,2.81,0,0,1,3,3c.07,1.44,0,2.89,0,4.34a8.1,8.1,0,0,0,.27,2.14,4,4,0,0,0,4.13,2.68,3.9,3.9,0,0,0,3.64-3.44c.16-1.7.09-3.43.12-5.15,0-2.54,1-3.53,3.54-3.55,1.31,0,2.63,0,3.94,0a4.06,4.06,0,0,0,4.19-4.06,4.1,4.1,0,0,0-4.2-4.07c-1.4,0-2.8,0-4.2,0-2.15,0-3.18-1-3.25-3.13-.06-1.58,0-3.16,0-4.75,0-2.58.66-3.32,3.23-3.82a38.3,38.3,0,0,0,22.68-61.38A1.47,1.47,0,0,0,177,85,21.34,21.34,0,0,0,169.36,87.56Zm15.46-2.49q14.33,24.23,0,48.42c9.74-1.13,20.54-10.22,20.7-23.93S195.1,86.36,184.82,85.07Zm-40.59,48.36a44,44,0,0,1,0-48.37c-10.82,1.36-20.81,11.22-20.77,24.26C123.54,122.53,133.76,132.19,144.23,133.43Zm20.21-5.86c11.61-10.14,10.32-28.16,0-36.54A24.5,24.5,0,0,0,164.44,127.57Z" transform="translate(-70.34 -8.11)"/><path class="cls-2" d="M230.42,66.51a16.83,16.83,0,0,1,.3-2.26,2.55,2.55,0,0,1,2.76-1.88,2.52,2.52,0,0,1,2.45,2.26,21.53,21.53,0,0,1,0,3.5,2.73,2.73,0,0,1-2.7,2.65,2.8,2.8,0,0,1-2.72-2.51,12.77,12.77,0,0,1,0-1.75Z" transform="translate(-70.34 -8.11)"/><path class="cls-2" d="M236,57.64a2.68,2.68,0,0,1-2.79,2.66,2.77,2.77,0,0,1-2.67-2.69,2.83,2.83,0,0,1,2.76-2.76A2.73,2.73,0,0,1,236,57.64Z" transform="translate(-70.34 -8.11)"/></svg>