<svg id="Capa_1" data-name="Capa 1" xmlns="http://www.w3.org/2000/svg" viewBox="0 0 164.94 176.93"><defs><style>.cls-1{fill:#1a1a1a;}</style></defs><title>my_publications</title><path class="cls-1" d="M123.07,25.24h88.85l2.34.49A28.89,28.89,0,0,1,237.8,54.37c0,14.86,0,29.73,0,44.59a3,3,0,0,0,.93,2.12c7.89,5.59,11.71,13.2,11.7,22.83q0,38.19,0,76.39v1.82H216.29V179H119.62v23.19H85.67c0-.51-.12-1-.12-1.41q0-38.81,0-77.6a25.48,25.48,0,0,1,10.64-21.25,2.81,2.81,0,0,0,1.27-2.56c0-15.21-.21-30.42,0-45.63.2-11.9,6-20.56,16.72-25.73C117,26.66,120.12,26.13,123.07,25.24ZM240,144.89c0-.68.08-1.19.08-1.7,0-6.5,0-13,0-19.52-.06-9.92-6.72-16.51-16.66-16.51H112.63c-10,0-16.63,6.62-16.67,16.67q0,9.58,0,19.18c0,.61.06,1.22.09,1.88ZM121.24,96.77V93.54C121.31,80,131.26,70,144.88,70q23.15,0,46.31,0a24.71,24.71,0,0,1,4.47.32,22.89,22.89,0,0,1,19.12,22.71c0,1.19,0,2.38,0,3.66h12.55c0-.55.09-1,.09-1.55q0-20.22,0-40.44c0-11.16-8.06-19.11-19.25-19.12H127.11c-11.29,0-19.25,8-19.26,19.24q0,20.13,0,40.26v1.65ZM96,168.29H240V155.47H96.13a5.4,5.4,0,0,0-.16.92C96,160.3,96,164.22,96,168.29ZM204.37,96.71c0-1.45,0-2.76,0-4.07a12.28,12.28,0,0,0-12.13-12.15c-16.13-.12-32.25-.06-48.38,0-6.75,0-13.91,6.16-11.93,16.25ZM109.2,178.85c-4.17,0-8.23,0-12.3.06-.32,0-.88.78-.9,1.22-.09,2.23,0,4.48,0,6.72v4.92H109.2Zm117.6,12.91H240V179H226.8Z" transform="translate(-85.54 -25.24)"/></svg>