<svg id="Capa_1" data-name="Capa 1" xmlns="http://www.w3.org/2000/svg" viewBox="0 0 210.5 210.5"><defs><style>.cls-1,.cls-3{fill:none;stroke:#1a1a1a;stroke-miterlimit:10;}.cls-1{stroke-width:4px;}.cls-2{fill:#1a1a1a;}.cls-3{stroke-width:5px;}</style></defs><title>no_smoke</title><circle class="cls-1" cx="105.25" cy="105.25" r="103.25"/><path class="cls-2" d="M254.41,80.44c-.95,2.31-1.55,4.85-2.92,6.89-2.73,4.07-6.9,5.79-11.75,5.89-1.88,0-3.76,0-5.64,0-4.79.1-8.36,3.29-8.66,8.05-.24,3.69-.11,7.41-.14,11.11,0,2.81-1,4.26-3,4.28s-3.07-1.48-3.08-4.23c0-3.25,0-6.5,0-9.75.06-9.26,6.38-15.55,15.62-15.57,1.73,0,3.46,0,5.18,0a8.3,8.3,0,0,0,8.3-8.35,8.2,8.2,0,0,0-8.37-8.1c-5.63-.06-11.26,0-17.09,0,.64,1.16,1.25,2.17,1.75,3.24a14.26,14.26,0,0,1-7.29,19,6.81,6.81,0,0,1-1.92.37,8.75,8.75,0,0,0-7.79,6.47,8.59,8.59,0,0,0,3.65,9.43c.29.2.59.39.87.62a3.09,3.09,0,0,1,.74,4.19,3,3,0,0,1-4.06.83,14.68,14.68,0,0,1,5-27.36c4.23-.55,8.4-7,4.33-12.56a8,8,0,0,0-6.84-3.32c-4.31,0-8.63,0-12.94,0-4.94,0-9.17-1.68-12.19-5.73a13.56,13.56,0,0,1-1.58-14.63c2.48-5.34,6.89-8.08,12.8-8.28a2.88,2.88,0,0,1,3.1,2.7A2.77,2.77,0,0,1,198,48.8c-2.36.33-4.62.81-6.3,2.65a7.88,7.88,0,0,0-1.84,8.45c1.09,3.08,3.32,5.15,6.58,5.33,4.63.25,9.28.06,13.74.06-.79-2-1.68-4-2.38-6.06a9.41,9.41,0,0,1-.31-3,3,3,0,0,1,5.85-.59c.19.83.21,1.71.41,2.54.95,3.92,4.19,6.35,8.55,6.38,5.79,0,11.57,0,17.36,0,6.08.05,10.61,2.74,13.33,8.22a30.4,30.4,0,0,1,1.45,4.6Z" transform="translate(-70.34 -8.11)"/><path class="cls-2" d="M221.56,140.56a20.34,20.34,0,0,1,0-14.92H140.37v14.92c1.3,0,2.59,0,3.89,0,2,0,4.06,0,6.07.17a2.88,2.88,0,0,1,2.56,2.93,3.05,3.05,0,0,1-2.77,2.92,13,13,0,0,1-1.52.07H102.75c-3.42,0-4.33-.92-4.34-4.33V124.21c0-4,.79-4.76,4.69-4.76q62.37,0,124.74,0c4.33,0,7.36,1.74,9.12,5.54a17.93,17.93,0,0,1-.79,17.61,8.39,8.39,0,0,1-7.79,4.13c-13.61-.07-27.21,0-40.82,0-4.21,0-8.43,0-12.64,0-2.46,0-4-2-3.06-4a4.51,4.51,0,0,1,2-1.82,5.14,5.14,0,0,1,2.24-.23h45.43Zm-117-15v14.83H134V125.59ZM233.22,133a57.32,57.32,0,0,0-2.29-6.3c-.78-1.57-1.88-1.47-2.93-.1-2.34,3.06-2.37,9.73-.05,12.81,1.09,1.45,2.22,1.55,3-.09A54.46,54.46,0,0,0,233.22,133Z" transform="translate(-70.34 -8.11)"/><path class="cls-2" d="M205.86,47.67a3.21,3.21,0,0,1,3.28-3.23,3.29,3.29,0,0,1,3.2,3.2A3.33,3.33,0,0,1,209,50.89,3.27,3.27,0,0,1,205.86,47.67Z" transform="translate(-70.34 -8.11)"/><path class="cls-2" d="M161.84,143.56a3,3,0,0,1-2.91,3.06,3,3,0,0,1-3.23-2.93,3.07,3.07,0,0,1,3.1-3.08A3,3,0,0,1,161.84,143.56Z" transform="translate(-70.34 -8.11)"/><line class="cls-3" x1="45.66" y1="20.89" x2="162.66" y2="190.89"/></svg>