<svg id="Capa_1" data-name="Capa 1" xmlns="http://www.w3.org/2000/svg" viewBox="0 0 210.5 210.5"><defs><style>.cls-1{fill:none;stroke:#1a1a1a;stroke-miterlimit:10;stroke-width:4px;}.cls-2{fill:#1a1a1a;}</style></defs><title>parking</title><circle class="cls-1" cx="105.25" cy="105.25" r="103.25"/><path class="cls-2" d="M236.17,143.75c-2.8,9.91-9.11,15.18-17.86,15-6.78-.15-14.88-4.56-16.91-14.89H151.07a17.63,17.63,0,0,1-7.42,11.8,17.19,17.19,0,0,1-10.92,3.07c-8.09-.4-14.43-6.16-16.32-15h-6.78c-5.4,0-8.38-3-8.38-8.43V108.91c0-5,2.66-7.78,7.62-8.31q6.19-.67,12.38-1.6a2.5,2.5,0,0,0,1.46-1.32c4.41-8.72,8.81-17.45,13.13-26.22,2.57-5.21,6.65-7.75,12.46-7.73q22,.08,43.91,0a12.82,12.82,0,0,1,12,7c5.11,9,10.28,18,15.39,27a2.67,2.67,0,0,0,2.12,1.5q11.55,1.86,23.08,3.86a7.35,7.35,0,0,1,6.45,7.61q0,12.65,0,25.31a7.48,7.48,0,0,1-7.8,7.75Zm-122.48-9.92h-7.43c0,1-.05,1.74,0,2.51a2.25,2.25,0,0,0,2.11,2.33c2.69.13,5.38,0,8,0,1.89-8.81,8.34-14.61,16.46-14.93a17.28,17.28,0,0,1,11,3.24,17.56,17.56,0,0,1,7.16,11.61h25.1V103.75H143c-4.61,0-6.75-2.89-5.43-7.3q2.72-9,5.44-18.06c1.09-3.6,2.48-4.64,6.19-4.64H200a7.45,7.45,0,0,0-7.51-5c-14.68,0-29.37,0-44,0a8.25,8.25,0,0,0-8.16,5.09c-4.56,9.29-9.25,18.51-13.86,27.78a3.55,3.55,0,0,1-3.07,2.23c-4.71.52-9.4,1.18-14.1,1.77-2.26.28-3,1-3,3.34v18.44c0,.44.06.88.1,1.43h7.34Zm87.66,4.85c2.61-9.38,8.57-14.67,16.74-14.91a17.31,17.31,0,0,1,10.59,3.1,17.7,17.7,0,0,1,7.41,11.87c2.65,0,5.19.06,7.74,0a2.36,2.36,0,0,0,2.4-2.4c.06-.81,0-1.63,0-2.61h-7.37v-5h7.27v-4.94c-3.32,0-6.55,0-9.77,0a5,5,0,0,1-5.11-5.15c0-1.4,0-2.81,0-4.21,0-3.64,2-5.62,5.58-5.63,2.73,0,5.47,0,8.2,0a3,3,0,0,0-1.74-.88c-4.31-.74-8.61-1.51-12.93-2.16-4.82-.71-9.66-1.75-14.51-1.87-10.92-.28-21.86-.09-32.79-.09h-1.71v34.93ZM142.16,98.63h34V78.85H148.07C146.09,85.47,144.13,92,142.16,98.63Zm72.16.09c-.16-.37-.23-.56-.32-.73-3.51-6.14-7-12.28-10.57-18.38a2.26,2.26,0,0,0-1.73-.82c-6.34-.06-12.69,0-19,0-.45,0-.9.06-1.3.09V98.72Zm-93.07,42.5a12.5,12.5,0,1,0,12.57-12.47A12.53,12.53,0,0,0,121.25,141.22Zm97.58-12.47a12.5,12.5,0,1,0,12.42,12.46A12.51,12.51,0,0,0,218.83,128.75Zm27.31-10.07v-4.8h-9.8v4.8Z" transform="translate(-70.34 -8.11)"/><path class="cls-2" d="M143.82,113.64v-4.81h9.8v4.81Z" transform="translate(-70.34 -8.11)"/><path class="cls-2" d="M196.16,113.68h-9.8v-4.83h9.8Z" transform="translate(-70.34 -8.11)"/><path class="cls-2" d="M136.15,143.72h-4.78v-4.86h4.78Z" transform="translate(-70.34 -8.11)"/><path class="cls-2" d="M216.28,143.65v-4.78h4.86v4.78Z" transform="translate(-70.34 -8.11)"/></svg>