<svg id="Capa_1" data-name="Capa 1" xmlns="http://www.w3.org/2000/svg" viewBox="0 0 210.5 210.5"><defs><style>.cls-1{fill:none;stroke:#1a1a1a;stroke-miterlimit:10;stroke-width:4px;}.cls-2{fill:#1a1a1a;}</style></defs><title>pets</title><circle class="cls-1" cx="105.25" cy="105.25" r="103.25"/><path class="cls-2" d="M252.31,115.24c-1.05,3-1.68,6.21-3.22,8.92-3.9,6.86-9.85,11-17.9,11.45-8.73.51-15.7-4.86-17.72-13.39-3.17-13.35,8.23-27.58,21.88-27.33A17.06,17.06,0,0,1,252,109.48a10.65,10.65,0,0,0,.29,1.11Z" transform="translate(-70.34 -8.11)"/><path class="cls-2" d="M122,152.44a20.56,20.56,0,0,1,2.75-10.74c6.33-10,12.25-20.42,19.43-29.83,8.7-11.39,20.9-15.62,35.11-13.06,10.22,1.84,18.08,7.46,23.73,16.1q8.08,12.35,15.93,24.84c8.65,13.76,1.6,31.32-14,34.95a21.47,21.47,0,0,1-13.27-.91,49.38,49.38,0,0,0-21.21-4.13,50.72,50.72,0,0,0-16.88,4,22.88,22.88,0,0,1-30.29-13.93,19,19,0,0,1-.77-2.94C122.29,155.34,122.17,153.88,122,152.44Z" transform="translate(-70.34 -8.11)"/><path class="cls-2" d="M183.3,70.54C183,78,180.5,84.82,174.4,90a19.73,19.73,0,0,1-27-.9c-10.14-9.79-10.48-27.41-.72-37.46,9.52-9.8,24.22-8.43,31.94,3A28,28,0,0,1,183.3,70.54Z" transform="translate(-70.34 -8.11)"/><path class="cls-2" d="M226.91,76.48c-.47,9.89-3.74,17.07-11,22-11,7.36-24.08,2.88-28.53-9.59-4-11.25,1.46-24.78,12.16-30.05a18.37,18.37,0,0,1,25.7,10.39A53,53,0,0,1,226.91,76.48Z" transform="translate(-70.34 -8.11)"/><path class="cls-2" d="M141.49,98.46a17.72,17.72,0,0,1-8.32,14.61c-6.82,4.35-13.67,3.44-20.16-.94-8.28-5.57-11.91-17.46-8.26-26.76,4.65-11.89,18.44-15.2,28.37-6.82C138.39,83,141.52,89.72,141.49,98.46Z" transform="translate(-70.34 -8.11)"/></svg>