<svg id="Capa_1" data-name="Capa 1" xmlns="http://www.w3.org/2000/svg" viewBox="0 0 210.5 210.5"><defs><style>.cls-1{fill:none;stroke:#1a1a1a;stroke-miterlimit:10;stroke-width:4px;}.cls-2{fill:#1a1a1a;}</style></defs><title>phone</title><circle class="cls-1" cx="105.25" cy="105.25" r="103.25"/><path class="cls-2" d="M134.11,44.25c4.44.87,7.64,3.66,10.67,6.77,5.36,5.51,10.92,10.84,16.15,16.47,4.91,5.29,4.89,12.43,0,17.81C157.62,89,154,92.49,150.4,96a1.58,1.58,0,0,0-.43,2.17c3.58,7.48,8.75,13.8,14.35,19.8a98.9,98.9,0,0,0,19.11,16.18c1.94,1.23,4,2.24,6,3.4a1.12,1.12,0,0,0,1.62-.27c3-3.07,6-6.18,9.13-9.09a21.83,21.83,0,0,1,5.7-4c5.4-2.36,10.33-1,14.46,3,6,5.79,11.76,11.77,17.7,17.6,6.15,6,6.67,14,1,20.2-4.21,4.54-8.5,9-13.08,13.18-4.91,4.44-11,5.54-17.49,5-10.13-.81-19.41-4.4-28.4-8.88A141.76,141.76,0,0,1,144,148.77c-16-15.64-28.9-33.4-36.25-54.79a52.41,52.41,0,0,1-3.17-18.48,22.32,22.32,0,0,1,6.31-15.57q5.49-5.64,11.12-11.14a16.92,16.92,0,0,1,8.62-4.54Zm76.7,132c4.24.1,8.14-1,11.22-3.93,4.06-3.93,8-8,11.83-12.14,2.87-3.12,2.84-6.54-.12-9.58q-9.13-9.37-18.51-18.52c-2.43-2.38-5.52-2.44-8.28-.43a18.32,18.32,0,0,0-1.92,1.71c-3.37,3.35-6.72,6.73-10.09,10.07-2.26,2.24-4.63,2.63-7.41,1.21-2-1-3.95-2-5.84-3.16a104,104,0,0,1-22.81-18.89c-6.26-6.75-12-13.91-15.78-22.41-1.66-3.69-1.28-5.7,1.62-8.49,3.32-3.2,6.64-6.41,9.87-9.71,3.79-3.87,3.76-7,.06-11l-.19-.2c-5.57-5.56-11.11-11.15-16.71-16.68a11.19,11.19,0,0,0-3-2.23c-3.08-1.44-5.65-.18-7.85,2-3.57,3.47-7.15,6.94-10.53,10.59A19.08,19.08,0,0,0,112.75,70c-1.87,4.51-1.38,9.24-.44,13.89a84.42,84.42,0,0,0,9.62,24.93c15.82,27.91,38,49,67.45,62.08A57.87,57.87,0,0,0,210.81,176.25Z" transform="translate(-70.34 -8.11)"/></svg>