<svg id="Capa_1" data-name="Capa 1" xmlns="http://www.w3.org/2000/svg" viewBox="0 0 210.5 210.5"><defs><style>.cls-1{fill:none;stroke:#1a1a1a;stroke-miterlimit:10;stroke-width:4px;}.cls-2{fill:#1a1a1a;}</style></defs><title>refresh</title><circle class="cls-1" cx="105.25" cy="105.25" r="103.25"/><path class="cls-2" d="M226.8,66.83c0-5.55-.08-11.1,0-16.64a5.77,5.77,0,0,1,8.82-4.82A5.28,5.28,0,0,1,238.4,50c0,11.19.11,22.39,0,33.58,0,3.39-2.51,5.49-5.95,5.5q-16.29.06-32.59,0a5.81,5.81,0,0,1-1.79-11.39,10.58,10.58,0,0,1,2.7-.27c5.74,0,11.48,0,17.22,0h1.84c-.45-.59-.7-1-1-1.3A57.36,57.36,0,0,0,183,56.82a56.52,56.52,0,0,0-40.69,9.39c-14.37,9.77-23,23.4-25.44,40.68-2.34,16.86,1.94,32.15,12.85,45.11,13.8,16.41,31.72,23.64,53.09,20.82C201,170.43,214.91,161,224.7,145.5a56.15,56.15,0,0,0,8.74-29.88c.05-3.64,2-6.14,5-6.53a5.82,5.82,0,0,1,6.76,6.13,66.76,66.76,0,0,1-5.53,26.93c-9.29,20.94-25,34.8-47.13,40.72-37.53,10-76.25-13-85.85-50.71C97.13,94.63,119.84,56,157.51,46.78c25.94-6.35,48.69.33,67.81,19.06a7.66,7.66,0,0,1,1,1.4Z" transform="translate(-70.34 -8.11)"/></svg>