<svg id="Capa_1" data-name="Capa 1" xmlns="http://www.w3.org/2000/svg" viewBox="0 0 75.93 138.02"><defs><style>.cls-1{fill:#fff;}</style></defs><title>right</title><path class="cls-1" d="M70.38,35.59a13.76,13.76,0,0,1,5.39,3.84q29.76,29.82,59.61,59.65c2.78,2.78,3.37,6,1.62,9a9.81,9.81,0,0,1-1.42,1.79L74.31,171.15c-2.11,2.11-4.57,3-7.48,2a6.91,6.91,0,0,1-4.41-8.72A7,7,0,0,1,63.83,162c.38-.44.79-.86,1.2-1.27l55-55a8.59,8.59,0,0,1,1.32-.91v-.6a9.52,9.52,0,0,1-1.33-.92Q92.33,75.68,64.65,48c-2.82-2.82-3.36-6.14-1.53-9.14a8.25,8.25,0,0,1,4.58-3.29Z" transform="translate(-62.05 -35.56)"/></svg>