<svg id="Capa_1" data-name="Capa 1" xmlns="http://www.w3.org/2000/svg" viewBox="0 0 168.91 194.04"><defs><style>.cls-1{fill:#1a1a1a;}</style></defs><title>share</title><path class="cls-1" d="M231.51,16.29c1.4.32,2.82.6,4.21.95,14.55,3.71,24.82,17.3,24.06,31.85-.82,15.68-12,28.24-27.23,30.37-10,1.39-18.84-1.5-26.32-8.36-.51-.47-1-.95-1.51-1.43a1.66,1.66,0,0,0-.36-.15L152.3,101.77a32.24,32.24,0,0,1,0,23l52.14,32.29c1.07-1,2.1-1.94,3.2-2.86a31.59,31.59,0,0,1,36.26-3.19c11.39,6.58,17.75,19.89,15.5,32.45-2.44,13.67-12.55,24-25.88,26.32-23.29,4.13-42.85-18.08-35.74-40.67.54-1.72.24-2.47-1.28-3.4q-24.45-15-48.76-30.19c-1.22-.76-1.84-.62-2.83.34a31.69,31.69,0,0,1-53.86-24.75C92.16,98.05,99,88.59,111.22,83.8s23.54-2.23,33.37,6.53A11.84,11.84,0,0,1,145.87,92c.68-.34,1.09-.49,1.45-.72q24.87-15.39,49.73-30.77a1.7,1.7,0,0,0,.89-2.4c-6.13-19.25,5.79-38.3,25.87-41.46a4.85,4.85,0,0,0,.88-.31Zm-3.42,182.38a20.15,20.15,0,1,0-20.19-20A20.13,20.13,0,0,0,228.09,198.67ZM207.9,48.06a20.15,20.15,0,1,0,20-20.15A20.15,20.15,0,0,0,207.9,48.06ZM102.55,113.22a20.15,20.15,0,1,0,20.31-20.06A20.11,20.11,0,0,0,102.55,113.22Z" transform="translate(-90.94 -16.29)"/></svg>