<svg id="Capa_1" data-name="Capa 1" xmlns="http://www.w3.org/2000/svg" viewBox="0 0 210.5 210.5"><defs><style>.cls-1{fill:none;stroke:#1a1a1a;stroke-miterlimit:10;stroke-width:4px;}.cls-2{fill:#1a1a1a;}</style></defs><title>study</title><circle class="cls-1" cx="105.25" cy="105.25" r="103.25"/><path class="cls-2" d="M92.17,89.91a7.5,7.5,0,0,1,4.46-4.06q37.59-16.21,75.12-32.55a6.89,6.89,0,0,1,5.87,0q37.75,16.41,75.54,32.77c3.38,1.47,4.69,3.93,3.71,6.81a5.16,5.16,0,0,1-3,3.15c-3.59,1.56-7.16,3.15-10.77,4.65a1.93,1.93,0,0,0-1.4,2.11q.06,28.6,0,57.19a7.9,7.9,0,0,1-.72,3.4,5,5,0,0,1-5.46,2.48,5.24,5.24,0,0,1-4.08-4.63c0-.59,0-1.18,0-1.77V105.8c-1.67.71-3.18,1.25-4.57,2-.38.21-.56,1.06-.57,1.62,0,9.39-.25,18.8.05,28.19.3,9.23-3.67,16.1-10.68,21.56s-15,8.47-23.57,10.19c-14.75,2.95-29.37,2.4-43.68-2.47-7.67-2.61-14.63-6.45-19.92-12.8a22.19,22.19,0,0,1-5.37-14.8c.08-9.93,0-19.87,0-29.8a1.94,1.94,0,0,0-1.38-2.14c-8.38-3.57-16.72-7.26-25.11-10.8a7.5,7.5,0,0,1-4.47-4.07ZM215,101.61a12,12,0,0,0-1.39-.36q-19.4-2.44-38.8-4.86c-3.5-.43-5.65-2.74-5.29-5.79s3.12-4.91,6.65-4.42c3.83.52,7.66,1,11.5,1.46,14.37,1.8,28.75,3.51,43.11,5.47,3,.41,5.36-.56,8-1.91-.51-.27-.81-.46-1.14-.6Q206.86,77.24,176,63.91a3.78,3.78,0,0,0-2.69,0Q142.72,77.1,112.2,90.37c-.51.22-1,.5-1.69.84.6.3,1,.5,1.34.66q30.77,13.34,61.55,26.62a3.78,3.78,0,0,0,2.69,0c9.37-4,18.71-8.06,28-12.11Zm-81.6,10.85c0,9.09.05,17.9,0,26.7a12.55,12.55,0,0,0,3.15,8.55,28.63,28.63,0,0,0,11.39,7.93c16.67,6.75,33.56,6.89,50.51,1.2,5.49-1.84,10.52-4.62,14.37-9.14a12.54,12.54,0,0,0,3.14-8.55c-.09-8.27,0-16.54,0-24.81,0-.56,0-1.11-.08-1.79l-1.8.75c-12,5.2-24,10.36-36,15.63a7.54,7.54,0,0,1-6.62,0c-7.77-3.48-15.62-6.81-23.45-10.2Z" transform="translate(-70.34 -8.11)"/></svg>