<svg id="Capa_1" data-name="Capa 1" xmlns="http://www.w3.org/2000/svg" viewBox="0 0 210.5 210.5"><defs><style>.cls-1{fill:none;stroke:#1a1a1a;stroke-miterlimit:10;stroke-width:4px;}.cls-2{fill:#1a1a1a;}</style></defs><title>study_and_work</title><circle class="cls-1" cx="105.25" cy="105.25" r="103.25"/><path class="cls-2" d="M91,68.33a4.49,4.49,0,0,1,2.68-2.44q22.59-9.73,45.15-19.56a4.12,4.12,0,0,1,3.53,0L187.76,66c2,.88,2.82,2.36,2.24,4.1A3.15,3.15,0,0,1,188.18,72c-2.16.93-4.31,1.9-6.48,2.8a1.15,1.15,0,0,0-.84,1.26q0,17.19,0,34.38a4.76,4.76,0,0,1-.43,2,3,3,0,0,1-3.29,1.49,3.16,3.16,0,0,1-2.45-2.78c0-.36,0-.71,0-1.07V77.88c-1,.43-1.91.76-2.75,1.21-.22.13-.33.64-.34,1,0,5.65-.15,11.3,0,17s-2.2,9.68-6.42,13A33.3,33.3,0,0,1,151,116.09a49.86,49.86,0,0,1-26.26-1.48,25.83,25.83,0,0,1-12-7.7A13.36,13.36,0,0,1,109.58,98c0-6,0-11.94,0-17.92a1.17,1.17,0,0,0-.83-1.28c-5-2.15-10-4.36-15.09-6.49A4.5,4.5,0,0,1,91,69.88Zm73.84,7a6.18,6.18,0,0,0-.83-.21q-11.67-1.47-23.32-2.92c-2.11-.26-3.4-1.65-3.18-3.49s1.87-2.95,4-2.65c2.3.31,4.61.59,6.91.87,8.64,1.09,17.29,2.12,25.91,3.29a7.79,7.79,0,0,0,4.83-1.14,6.91,6.91,0,0,0-.68-.36q-18.54-8-37.08-16a2.26,2.26,0,0,0-1.62,0Q121.39,60.63,103,68.61c-.31.13-.6.3-1,.5.37.18.58.3.81.4q18.49,8,37,16a2.24,2.24,0,0,0,1.61,0q8.44-3.6,16.86-7.28Zm-49,6.53c0,5.46,0,10.75,0,16a7.56,7.56,0,0,0,1.89,5.13,17.14,17.14,0,0,0,6.85,4.77,42.54,42.54,0,0,0,30.36.72,18.94,18.94,0,0,0,8.63-5.49,7.53,7.53,0,0,0,1.89-5.14c-.05-5,0-9.94,0-14.92,0-.33,0-.66,0-1.07l-1.08.45c-7.22,3.12-14.44,6.23-21.64,9.39a4.49,4.49,0,0,1-4,0c-4.67-2.09-9.39-4.09-14.09-6.13Z" transform="translate(-70.34 -8.11)"/><path class="cls-2" d="M251.21,120.22v53a1,1,0,0,0-.09.21,7.14,7.14,0,0,1-7.32,6.06q-32.7,0-65.4,0a8.13,8.13,0,0,1-2.09-.24c-3.39-.94-5.31-3.59-5.31-7.29V121.22c0-2,.86-2.88,2.92-2.88h20.74c0-.8,0-1.48,0-2.16A7.06,7.06,0,0,1,201.9,109c6.13,0,12.27,0,18.4,0a8,8,0,0,1,3.24.72,6.8,6.8,0,0,1,4,6.47c0,.72,0,1.44,0,2.17h1.06c6.53,0,13.06,0,19.58,0C249.69,118.31,250.74,118.75,251.21,120.22Zm-75.37,15.39-.14,0v36.14c0,2.15.83,3,3,3h64.85c2.15,0,3-.82,3-3V135.64a1.2,1.2,0,0,0-.33.54q-1.62,4.86-3.25,9.72c-1.2,3.6-3.62,5.34-7.44,5.34H222.86v2.13a2.37,2.37,0,0,1-2.6,2.57H201.94a2.37,2.37,0,0,1-2.58-2.59c0-.69,0-1.38,0-2.11h-13a7,7,0,0,1-7-4.92c-.6-1.69-1.14-3.41-1.71-5.11Zm.82-12.53c0,.16.07.29.11.41q3.53,10.61,7.07,21.21a2.41,2.41,0,0,0,2.66,1.84c4.07,0,8.14,0,12.22,0,.2,0,.39,0,.64,0,0-.72,0-1.4,0-2.07a2.37,2.37,0,0,1,2.6-2.57h18.32a2.37,2.37,0,0,1,2.58,2.59v2.1H235.5c1.76,0,2.44-.49,3-2.16l6.84-20.54c.08-.24.14-.49.22-.76Zm22.7-4.79h23.5v-2a2.4,2.4,0,0,0-2.67-2.65h-7.05c-3.75,0-7.51,0-11.26,0a2.35,2.35,0,0,0-2.52,2.48C199.35,116.84,199.36,117.54,199.36,118.29Zm4.73,32.9h14v-4.6h-14Z" transform="translate(-70.34 -8.11)"/></svg>