<svg id="Capa_1" data-name="Capa 1" xmlns="http://www.w3.org/2000/svg" viewBox="0 0 234.05 131.31"><defs><style>.cls-1{fill:#4d4d4d;}.cls-2{fill:#fff;}.cls-3{fill:#1a1a1a;}</style></defs><title>switch_on</title><polygon class="cls-1" points="24.55 26.23 51.55 8.23 192.55 13.23 227.55 52.23 217.55 102.23 188.55 121.23 68.55 127.23 15.55 102.23 7.55 48.23 24.55 26.23"/><circle class="cls-2" cx="68.55" cy="64.23" r="27"/><path class="cls-3" d="M292.5,112.43c-.82,4.24-1.33,8.56-2.5,12.7-8.07,28.64-33.47,47.73-63.86,47.85q-50.61.21-101.21,0c-31-.11-56.71-19.94-64.39-49.33C51,87.07,75.12,49.46,112.45,42.94a75.86,75.86,0,0,1,12.94-1.1q50.15-.14,100.3,0c31.15.05,56.93,19.66,64.67,49.2,1,3.72,1.44,7.58,2.14,11.37Zm-117-56.93c-16.6,0-33.21,0-49.81,0a65.93,65.93,0,0,0-9.32.63c-33.76,4.93-53.89,41.29-39.6,72.23,9.47,20.5,26.14,30.75,48.68,30.87,33.35.18,66.71.05,100.06,0,1.6,0,3.2-.08,4.79-.18,32.2-1.92,55-33.38,46.85-64.59C271,71.16,250.71,55.61,226,55.51,209.17,55.45,192.34,55.5,175.51,55.5Z" transform="translate(-58.45 -41.77)"/><path class="cls-3" d="M126.74,143.58a36.18,36.18,0,1,1,36.42-36A36.26,36.26,0,0,1,126.74,143.58Zm.11-13.71a22.47,22.47,0,1,0-22.49-22.52A22.56,22.56,0,0,0,126.85,129.87Z" transform="translate(-58.45 -41.77)"/></svg>