<svg id="Capa_1" data-name="Capa 1" xmlns="http://www.w3.org/2000/svg" viewBox="0 0 178.01 177.99"><defs><style>.cls-1{fill:#1a1a1a;}</style></defs><title>twitter</title><path class="cls-1" d="M167.92,24.34H179c3,.38,6,.66,8.92,1.16A89.32,89.32,0,0,1,261.11,98c.58,3.24.92,6.52,1.37,9.77V118.9c-.26,2.12-.48,4.24-.79,6.35-2.76,19.35-10.71,36.28-24.55,50.08-22.83,22.77-50.38,31.25-82,25-21.71-4.29-39.27-15.81-52.59-33.43-14.68-19.43-20.38-41.45-17.21-65.59A86.27,86.27,0,0,1,110.1,51,87.18,87.18,0,0,1,158.15,25.7C161.38,25.13,164.66,24.79,167.92,24.34ZM130.58,76.67a19,19,0,0,0-2.83,10.85,20.77,20.77,0,0,0,8.64,16.1l-.28.47-8.61-2.4c.7,10.19,6,16.77,15.73,19.9l-.1.43h-8.35a20.5,20.5,0,0,0,7.13,10,22,22,0,0,0,11.88,4.24,42.08,42.08,0,0,1-29.91,8.49c.62.44.87.66,1.15.82,18.09,10.27,36.95,11.62,55.54,2.49,21.76-10.68,32-29.27,32.59-53.27a3.18,3.18,0,0,1,1.33-2.91,29,29,0,0,0,4-3.58c1.59-1.68,3-3.51,4.79-5.56l-10.84,2.9-.19-.43a20.51,20.51,0,0,0,8.11-10.35l-11.21,4a2.34,2.34,0,0,1-2.6-.66c-6.22-5.49-13.38-7-21.14-4.08-7.6,2.91-12,8.67-13,16.78a57.5,57.5,0,0,0,0,7C155.45,96.7,141.58,89.54,130.58,76.67Z" transform="translate(-84.47 -24.34)"/></svg>