<svg id="Capa_1" data-name="Capa 1" xmlns="http://www.w3.org/2000/svg" viewBox="0 0 140.94 95.29"><defs><style>.cls-1{fill:#1a1a1a;}</style></defs><title>type_bed</title><path class="cls-1" d="M105.2,61.14h9.19v49.13H246.14v45.9H237v-1.66c0-7.11,0-14.23,0-21.34,0-1.15-.32-1.46-1.46-1.46q-59.88,0-119.77,0c-1.14,0-1.48.3-1.48,1.45.06,7.12,0,14.23,0,21.34v1.92H105.2Z" transform="translate(-105.2 -61.14)"/><path class="cls-1" d="M148.39,107.12c0-5.73-.3-11.38.09-17,.31-4.35,3.32-6.8,7.67-7.32a22.78,22.78,0,0,1,2.34-.14h71.17c2.92,0,5.66.45,7.83,2.69a7.4,7.4,0,0,1,2.27,4.89c.15,5.58.05,11.17.05,16.86Z" transform="translate(-105.2 -61.14)"/><path class="cls-1" d="M129.75,107.78A12.83,12.83,0,1,1,142.55,95,12.89,12.89,0,0,1,129.75,107.78Z" transform="translate(-105.2 -61.14)"/></svg>