<svg id="Capa_1" data-name="Capa 1" xmlns="http://www.w3.org/2000/svg" viewBox="0 0 172.05 172.01"><defs><style>.cls-1{fill:#1a1a1a;}</style></defs><title>user</title><path class="cls-1" d="M261.36,108.17v10.08a13,13,0,0,0-.29,1.61,81.7,81.7,0,0,1-4.79,22.56,86.13,86.13,0,0,1-101.56,54.31c-44.19-10.8-72.51-55-63.85-99.65a84.42,84.42,0,0,1,23.34-44.29,83.77,83.77,0,0,1,46.33-24.25c3.24-.56,6.52-.89,9.78-1.33H180.4c2.27.27,4.54.5,6.8.82A86,86,0,0,1,260,98.41C260.6,101.64,260.92,104.92,261.36,108.17ZM232.73,162.7a75.6,75.6,0,0,0-6.31-105.59c-31.86-29.11-80.8-26-109,7.26-27.29,32.11-20.55,75.13.71,98.26a58.88,58.88,0,0,1,13.32-24.94,59.85,59.85,0,0,1,23.56-16c-21.81-15.64-18.34-43.2-5-55.87a36.5,36.5,0,0,1,51.14.32c13.7,13.68,15.57,40.53-5.25,55.46C214.81,129.26,227.07,142.91,232.73,162.7Zm-56,26.44c1.72-.14,4.85-.3,8-.67a74.15,74.15,0,0,0,38.49-16.41,2.24,2.24,0,0,0,.65-1.78,48.92,48.92,0,0,0-96.9.17,2.1,2.1,0,0,0,.68,1.62C141.49,183.27,157.42,188.9,176.69,189.14Zm-1.33-71.42a26.11,26.11,0,1,0-26.14-26A26.18,26.18,0,0,0,175.36,117.72Z" transform="translate(-89.31 -27.21)"/></svg>