<svg id="Capa_1" data-name="Capa 1" xmlns="http://www.w3.org/2000/svg" viewBox="0 0 210.5 210.5"><defs><style>.cls-1{fill:none;stroke:#1a1a1a;stroke-miterlimit:10;stroke-width:4px;}.cls-2{fill:#1a1a1a;}</style></defs><title>vegan</title><circle class="cls-1" cx="105.25" cy="105.25" r="103.25"/><path class="cls-2" d="M174.06,116.48c-2.93-10.74-4.18-21.49-.64-32.19,4.75-14.36,14.84-23.05,29.49-26.48a71,71,0,0,1,23.83-1.17c4.86.51,9.68,1.41,14.51,2.15.5.07,1,.22,1.58.35a2,2,0,0,1-.23.52,49.61,49.61,0,0,0-11.42,22.06c-1.43,5.73-3.27,11.37-4.81,17.09-3.1,11.47-10.68,18.34-21.89,21.61a68.56,68.56,0,0,1-17.75,2.8,3.38,3.38,0,0,0-3,1.61,81.16,81.16,0,0,0-7.62,15.44,283.46,283.46,0,0,0-11.36,36.32c-.47,1.93-1.57,2.92-3.12,2.82s-2.6-1.25-2.83-3.25a158.64,158.64,0,0,0-8-33.09c-6.37-18.45-14.55-36-25.49-52.26-1.61-2.39-3.35-4.68-5.09-7a1.63,1.63,0,0,1,.09-2.48c1.43-1.42,2.79-2.92,4.22-4.35,1.28-1.29,2-1.23,3.13.18,11.41,13.79,20,29.25,26.74,45.74a129.59,129.59,0,0,1,7,21.5,2.19,2.19,0,0,0,2.2,2,2,2,0,0,0,2.14-1.7c3.08-13.2,10.44-24.07,18.75-34.41a160.16,160.16,0,0,1,36.31-33.15c.4-.26.8-.5,1.18-.79a2.21,2.21,0,0,0,.73-3,2.16,2.16,0,0,0-3.15-.6c-2.26,1.49-4.51,3-6.7,4.58A164.43,164.43,0,0,0,175,115.55c-.18.25-.35.49-.54.73C174.36,116.34,174.27,116.36,174.06,116.48Z" transform="translate(-70.34 -8.11)"/></svg>