<svg id="Capa_1" data-name="Capa 1" xmlns="http://www.w3.org/2000/svg" viewBox="0 0 219.08 219.04"><defs><style>.cls-1{fill:none;stroke:#1a1a1a;stroke-miterlimit:10;stroke-width:4px;}.cls-2{fill:#1a1a1a;}</style></defs><title>verify</title><circle class="cls-1" cx="111.08" cy="110.83" r="103.25"/><path class="cls-2" d="M283.59,105.22v13.69a11.86,11.86,0,0,0-.36,1.65,104.44,104.44,0,0,1-15.16,47.53c-17.4,28.26-42.43,45.66-75.13,51.8-4,.75-8,1.13-12,1.68H167.24c-.68-.13-1.37-.29-2.06-.39-4.58-.67-9.22-1.05-13.72-2-26.3-5.7-47.86-19.17-64.14-40.54C67.1,152.07,60.29,122.12,67,89.48,73,60.68,88.6,37.92,112.86,21.42,136.83,5.11,163.44-.51,192,4.06a105.59,105.59,0,0,1,54.56,26.08c19,16.94,30.85,38,35.32,63.05C282.61,97.18,283,101.21,283.59,105.22ZM164,129.4c-.83-1.07-1.1-1.5-1.45-1.86-7.14-7.16-14.32-14.29-21.44-21.47-2.7-2.72-5.86-3.79-9.54-2.7-6.79,2-8.69,10.22-3.54,15.42,9.38,9.46,18.83,18.85,28.25,28.27,5.15,5.14,10,5.13,15.17,0l57-57c.61-.61,1.23-1.2,1.77-1.86a9.07,9.07,0,0,0-5.47-14.73c-3.47-.63-6.22.69-8.63,3.11q-25.14,25.2-50.31,50.35A22.3,22.3,0,0,0,164,129.4Z" transform="translate(-64.51 -2.53)"/></svg>