<svg id="Capa_1" data-name="Capa 1" xmlns="http://www.w3.org/2000/svg" viewBox="0 0 210.5 210.5"><defs><style>.cls-1{fill:none;stroke:#1a1a1a;stroke-miterlimit:10;stroke-width:4px;}.cls-2{fill:#1a1a1a;}</style></defs><title>washer</title><circle class="cls-1" cx="105.25" cy="105.25" r="103.25"/><path class="cls-2" d="M221.26,43.17A18.45,18.45,0,0,1,229,46.56a15.47,15.47,0,0,1,5.89,11.6c0,.27,0,.54,0,.81q0,53.67,0,107.35A15.23,15.23,0,0,1,227,180.1a15.81,15.81,0,0,1-8.31,2.08q-24.76,0-49.54,0c-12.25,0-24.51,0-36.77,0a15.56,15.56,0,0,1-15.76-13.28,19.44,19.44,0,0,1-.18-3.24q0-53,0-106c0-8.65,4.82-14.54,13.28-16.28a1.17,1.17,0,0,0,.34-.2ZM120.77,168.57c.06.43.08.74.15,1,1.3,5,5.93,8.47,11.57,8.48q43.15,0,86.32-.06a14.16,14.16,0,0,0,5.85-1.39,10.62,10.62,0,0,0,5.93-8.07H229c-4.79,0-9.59,0-14.38,0-1.7,0-2.62-.78-2.58-2.11s.9-2,2.56-2h16.16V80.13H120.59V164.5h83.82c.5,0,1,0,1.5,0a2,2,0,0,1,.16,4,9.72,9.72,0,0,1-1.62.06H120.77Zm-.22-92.69H230.76c0-.48.05-.88.05-1.28,0-5,0-10,0-15.06,0-7.43-4.91-12.3-12.35-12.3q-42.81,0-85.62,0c-7.45,0-12.32,4.86-12.35,12.3,0,5,0,10,0,15.06C120.49,75,120.52,75.4,120.55,75.88Z" transform="translate(-70.34 -8.11)"/><path class="cls-2" d="M213.09,121.73c-.11,18.45-13,34.08-30.19,37.29a37.29,37.29,0,0,1-43.54-27.87c-2.91-11.73-.33-22.48,7-32.1a2.13,2.13,0,0,1,3.06-.7,2.08,2.08,0,0,1,.19,3.13A33.17,33.17,0,0,0,143,115.87a32.53,32.53,0,0,0,7.42,28.1,33.31,33.31,0,0,0,58.56-20.73,32.06,32.06,0,0,0-10-24.76,32.54,32.54,0,0,0-26-9.4A31.77,31.77,0,0,0,157,94.67c-.64.43-1.25.9-1.91,1.29a1.92,1.92,0,0,1-2.67-.49,2,2,0,0,1,.38-2.79,6.35,6.35,0,0,1,.64-.49,37,37,0,0,1,43-.93C207.34,98.66,212.71,109.23,213.09,121.73Z" transform="translate(-70.34 -8.11)"/><path class="cls-2" d="M175.68,94.36a27.95,27.95,0,1,1-28,28A28,28,0,0,1,175.68,94.36Zm23.9,28c-.42-9.1-4.18-16.15-12-20.62-8.41-4.83-17-4.57-25.13.72-7,4.57-10.44,11.33-10.75,19.7.2,0,.25.06.28,0,.21-.07.42-.16.63-.25a10,10,0,0,1,9.61.55,7.14,7.14,0,0,0,8.12,0,9.7,9.7,0,0,1,10.54,0,7.13,7.13,0,0,0,8.14,0,9.69,9.69,0,0,1,8.59-.89C198.25,121.78,198.82,122,199.58,122.35Zm-23.3,23.82c.71-.07,2.07-.16,3.4-.36a23.76,23.76,0,0,0,19.14-17.91,1.67,1.67,0,0,0-.52-1.39,6.23,6.23,0,0,0-7.47-.4,10.47,10.47,0,0,1-11.64,0,6.42,6.42,0,0,0-7.06,0,10.47,10.47,0,0,1-11.64,0,6.43,6.43,0,0,0-7.39.25,1.3,1.3,0,0,0-.65,1.65C155,138.58,164.65,146.16,176.28,146.17Z" transform="translate(-70.34 -8.11)"/><path class="cls-2" d="M201.72,53h11c3.46,0,5.29,1.84,5.3,5.26,0,2.35,0,4.7,0,7,0,2.91-1.76,4.89-4.66,4.92q-11.65.14-23.33,0c-2.86,0-4.59-1.9-4.67-4.75-.07-2.53-.07-5.07,0-7.6a4.62,4.62,0,0,1,5-4.87C194.12,52.94,197.92,53,201.72,53Zm-.15,13.2c3.58,0,7.15,0,10.72,0,1.32,0,1.73-.43,1.67-1.73-.1-2.07-.05-4.15,0-6.23,0-.89-.33-1.21-1.19-1.21q-11.06,0-22.11,0c-1,0-1.27.39-1.26,1.29,0,2.13.06,4.26,0,6.38,0,1.12.37,1.5,1.49,1.49C194.43,66.13,198,66.16,201.57,66.16Z" transform="translate(-70.34 -8.11)"/><path class="cls-2" d="M147.19,61.61a8.59,8.59,0,1,1-8.6-8.64A8.62,8.62,0,0,1,147.19,61.61Zm-4.07,0A4.54,4.54,0,0,0,138.6,57a4.55,4.55,0,0,0,0,9.1A4.54,4.54,0,0,0,143.12,61.65Z" transform="translate(-70.34 -8.11)"/><path class="cls-2" d="M153.35,61.54a8.58,8.58,0,1,1,8.56,8.67A8.65,8.65,0,0,1,153.35,61.54Zm13.09.05a4.51,4.51,0,1,0-4.58,4.54A4.55,4.55,0,0,0,166.44,61.59Z" transform="translate(-70.34 -8.11)"/></svg>