<svg id="Capa_1" data-name="Capa 1" xmlns="http://www.w3.org/2000/svg" viewBox="0 0 210.5 210.5"><defs><style>.cls-1{fill:none;stroke:#1a1a1a;stroke-miterlimit:10;stroke-width:4px;}.cls-2{fill:#1a1a1a;}</style></defs><title>wifi</title><circle class="cls-1" cx="105.25" cy="105.25" r="103.25"/><path class="cls-2" d="M99.27,93.81c1-3.74,3.85-6,6.52-8.39,14.34-12.8,30.9-21.32,49.84-24.66,32.88-5.8,62.25,2,87.82,23.61,1.66,1.4,3.23,2.91,4.79,4.43,3.82,3.7,4,9,.55,12.73a8.81,8.81,0,0,1-12.64.15,97.17,97.17,0,0,0-15.71-12.36A84.3,84.3,0,0,0,185.3,77.17a85.42,85.42,0,0,0-53.49,11.08,84.08,84.08,0,0,0-16.92,12.94c-2.55,2.5-5.52,3.65-9.06,2.68a8.55,8.55,0,0,1-6.09-5.75,9.72,9.72,0,0,0-.47-1Z" transform="translate(-70.34 -8.11)"/><path class="cls-2" d="M221.32,125.53a9.51,9.51,0,0,1-5.89-2.35,71.93,71.93,0,0,0-11.73-9,54.22,54.22,0,0,0-21.3-7.25c-17.1-1.94-32.16,2.7-45,14.22-.7.63-1.39,1.26-2.11,1.87a8.84,8.84,0,0,1-12-13,72.73,72.73,0,0,1,17.26-12.7A74,74,0,0,1,227,109.78c4.81,4.7,3.84,12-2,14.7A23.65,23.65,0,0,1,221.32,125.53Z" transform="translate(-70.34 -8.11)"/><path class="cls-2" d="M175.38,117.06a45.05,45.05,0,0,1,31.81,13.14,8.81,8.81,0,0,1-11.81,13.07c-3.38-3-6.87-5.66-11.21-7-10.09-3.15-19.23-1.38-27.29,5.51-1.82,1.55-3.55,3.14-6.06,3.46A8.83,8.83,0,0,1,143.41,130,45.39,45.39,0,0,1,175.38,117.06Z" transform="translate(-70.34 -8.11)"/><path class="cls-2" d="M162.09,161.41a13.14,13.14,0,1,1,13.19,13.08A13.25,13.25,0,0,1,162.09,161.41Z" transform="translate(-70.34 -8.11)"/></svg>