<svg id="Capa_1" data-name="Capa 1" xmlns="http://www.w3.org/2000/svg" viewBox="0 0 210.5 210.5"><defs><style>.cls-1{fill:none;stroke:#1a1a1a;stroke-miterlimit:10;stroke-width:4px;}.cls-2{fill:#1a1a1a;}</style></defs><title>window</title><circle class="cls-1" cx="105.25" cy="105.25" r="103.25"/><path class="cls-2" d="M233.75,45.16a12,12,0,0,1,2.71,2,4.58,4.58,0,0,1-3.12,7.34,34.24,34.24,0,0,1-4.06,0V157.13c3-.13,5.61.52,7.2,3.29s1.09,5.24-.63,7.61a18.89,18.89,0,0,1,2.71,1.76,6.15,6.15,0,0,1,1.79,6.77,6.32,6.32,0,0,1-5.51,4.54,9.74,9.74,0,0,1-1.33.05q-57.9,0-115.81,0a6.9,6.9,0,0,1-5.66-2.38,6.53,6.53,0,0,1,2.06-10.06c.39-.19.79-.36,1.3-.59-1.8-2.5-2.24-5.12-.65-7.81s4.18-3.34,7.17-3.19V54.71c-1.4-.07-2.8-.06-4.19-.23a4.49,4.49,0,0,1-3.84-3.69A4.66,4.66,0,0,1,116,45.88c.45-.27.92-.48,1.39-.72ZM175.49,178.84h57.22c.62,0,1.24,0,1.85,0a4.17,4.17,0,0,0,3.79-4.71c-.28-2.32-2-3.8-4.64-3.8H117.42a6.08,6.08,0,0,0-1.7.25,4.21,4.21,0,0,0-2.92,4.14,4.11,4.11,0,0,0,3,3.95,9.27,9.27,0,0,0,2.36.21Zm.07-19.43h-54a10.43,10.43,0,0,0-2.24.19,4.23,4.23,0,0,0-.38,8.1,7.52,7.52,0,0,0,2.22.28q54.5,0,109,0a9.39,9.39,0,0,0,1.19-.07,4.24,4.24,0,0,0,.39-8.37,9.34,9.34,0,0,0-2-.14Zm-51.18-2.34h50v-50h-50Zm52.39,0h50V107.12h-50ZM174.4,54.73h-50v49.89h50Zm52.38,0h-50v49.9h50Zm-51.19-7.25H119.83a12.31,12.31,0,0,0-1.72.07,2.22,2.22,0,0,0-2,2.15,2.2,2.2,0,0,0,1.63,2.43,5.12,5.12,0,0,0,1.57.19H231.88a5.16,5.16,0,0,0,1.57-.19,2.36,2.36,0,0,0-.38-4.58,12.45,12.45,0,0,0-1.73-.07Z" transform="translate(-70.34 -8.11)"/><path class="cls-2" d="M169.17,151.9H129.51V112.23h39.66Zm-37.38-2.24H167V114.55H131.79Z" transform="translate(-70.34 -8.11)"/><path class="cls-2" d="M182,112.2h39.67v39.66H182Zm37.35,37.46V114.53H184.22v35.13Z" transform="translate(-70.34 -8.11)"/><path class="cls-2" d="M169.2,99.53H129.53V59.81H169.2ZM131.83,62.09V97.2H167V62.09Z" transform="translate(-70.34 -8.11)"/><path class="cls-2" d="M182,99.53V59.84h39.72V99.53Zm2.25-2.35h35.13V62h-1.42c-10.75,0-21.5,0-32.26,0-1.22,0-1.54.33-1.54,1.55,0,10.75,0,21.51,0,32.26C184.14,96.24,184.18,96.67,184.2,97.18Z" transform="translate(-70.34 -8.11)"/></svg>