<svg id="Capa_1" data-name="Capa 1" xmlns="http://www.w3.org/2000/svg" viewBox="0 0 210.5 210.5"><defs><style>.cls-1{fill:none;stroke:#1a1a1a;stroke-miterlimit:10;stroke-width:4px;}.cls-2{fill:#1a1a1a;}</style></defs><title>work</title><circle class="cls-1" cx="105.25" cy="105.25" r="103.25"/><path class="cls-2" d="M244.21,67.49v89.92a1.89,1.89,0,0,0-.16.36c-.84,6-6,10.31-12.42,10.3q-55.53,0-111.06,0a13.69,13.69,0,0,1-3.55-.42c-5.76-1.59-9-6.1-9-12.38V69.19c0-3.46,1.45-4.89,5-4.89h35.21c0-1.37,0-2.52,0-3.67.1-7.1,5.19-12.24,12.29-12.28,10.42-.05,20.84-.07,31.26,0a13.5,13.5,0,0,1,5.49,1.24c4.57,2.14,6.68,6,6.82,11,0,1.21,0,2.44,0,3.69h1.81c11.08,0,22.17,0,33.25,0C241.62,64.25,243.41,65,244.21,67.49Zm-128,26.14-.24,0V155c0,3.65,1.4,5,5.08,5H231.18c3.66,0,5-1.39,5-5V93.66a2,2,0,0,0-.56.93l-5.52,16.5c-2,6.12-6.16,9.08-12.64,9.08H196.06c0,1.31,0,2.46,0,3.6,0,2.77-1.63,4.37-4.4,4.37q-15.57,0-31.12,0c-2.77,0-4.35-1.62-4.38-4.39,0-1.18,0-2.35,0-3.58H154.5c-6.78,0-13.56,0-20.35,0a11.89,11.89,0,0,1-11.83-8.35c-1-2.87-1.94-5.79-2.91-8.68Q117.82,98.38,116.22,93.63Zm1.38-21.29c.08.28.13.49.19.69q6,18,12,36c.76,2.26,2.06,3.13,4.52,3.13h20.75c.33,0,.67-.05,1.08-.09,0-1.22,0-2.37,0-3.52a4,4,0,0,1,4.41-4.36h31.12c2.76,0,4.34,1.62,4.37,4.4,0,1.18,0,2.35,0,3.58h21.48c3,0,4.13-.84,5.08-3.67q5.81-17.44,11.62-34.89c.13-.41.24-.83.38-1.29Zm38.56-8.13h39.9c0-1.19,0-2.29,0-3.39,0-2.93-1.59-4.49-4.54-4.5h-12c-6.38,0-12.76,0-19.14,0a4,4,0,0,0-4.27,4.22C156.14,61.74,156.16,62.93,156.16,64.21Zm8,55.86H188v-7.81H164.19Z" transform="translate(-70.34 -8.11)"/></svg>