<svg id="Capa_1" data-name="Capa 1" xmlns="http://www.w3.org/2000/svg" viewBox="0 0 305.95 305.95"><defs><style>.cls-1{fill:#fff;}.cls-2{fill:#9fcace;}.cls-3{fill:#1d1d1b;}</style></defs><title>logo_rooms2</title><circle class="cls-1" cx="152.98" cy="152.98" r="152.98"/><ellipse class="cls-2" cx="87.23" cy="157.31" rx="22.42" ry="21.38"/><ellipse class="cls-2" cx="218.58" cy="157.31" rx="22.42" ry="21.38"/><path class="cls-3" d="M134.45,111.13c-16.51,24.34-30.92,60-16.56,88.21C129.41,222,155.16,236.69,180.58,233c15.88-2.3,29.81-11.39,40.61-23a130.66,130.66,0,0,0,18.73-26.44c5.74-10.44,10-21.58,16.54-31.59,9.54-14.54,23.07-27.34,40.21-32a52.34,52.34,0,0,1,40.45,5.72c14.62,8.68,24.61,23.55,29.05,39.79,5.76,21.08,2.24,43.24-5.81,63.22-1.2,3,3.63,4.28,4.82,1.33,12.71-31.54,13.2-70.27-10.89-96.69-19.49-21.37-50.62-26.27-75.36-11-16.06,9.92-27.53,25.93-35.5,42.75C234,185,223.15,205.1,204.57,218c-23.94,16.53-54.83,12.64-74.12-9.09-12-13.48-15.57-30.34-12-47.94,3.29-16.64,10.77-33.19,20.31-47.27C140.57,111,136.24,108.48,134.45,111.13Z" transform="translate(-89.33 -18)"/></svg>